<?xml version="1.0" encoding="utf-8"?>
<!-- Generator: Adobe Illustrator 17.1.0, SVG Export Plug-In . SVG Version: 6.00 Build 0)  -->
<!DOCTYPE svg PUBLIC "-//W3C//DTD SVG 1.1//EN" "http://www.w3.org/Graphics/SVG/1.1/DTD/svg11.dtd">
<svg version="1.1" id="Capa_1" xmlns="http://www.w3.org/2000/svg" xmlns:xlink="http://www.w3.org/1999/xlink" x="0px" y="0px"
	 viewBox="0 0 1500 500" enable-background="new 0 0 1500 500" xml:space="preserve">
<g>
	<path fill="#E9C46A" d="M736,288.1c0-32.7-26.6-59.3-59.3-59.3s-59.3,26.6-59.3,59.3s26.6,59.3,59.3,59.3S736,320.8,736,288.1z
		 M676.6,330.5c-23.4,0-42.4-19-42.4-42.4s19-42.4,42.4-42.4s42.4,19,42.4,42.4S700,330.5,676.6,330.5z"/>
	<circle fill="#E9C46A" cx="659.7" cy="271.2" r="16.9"/>
	<path fill="#E9C46A" d="M829.2,228.8c-32.7,0-59.3,26.6-59.3,59.3s26.6,59.3,59.3,59.3c32.7,0,59.3-26.6,59.3-59.3
		S861.9,228.8,829.2,228.8z M829.2,330.5c-23.4,0-42.4-19-42.4-42.4s19-42.4,42.4-42.4c23.4,0,42.4,19,42.4,42.4
		S852.5,330.5,829.2,330.5z"/>
	<circle fill="#E9C46A" cx="812.2" cy="271.2" r="16.9"/>
	<path fill="#E9C46A" d="M759.6,373.7c-38.7,5.8-63.4,41.2-64.5,42.7c-2.7,3.9-1.7,9.1,2.2,11.8c1.5,1,3.1,1.5,4.8,1.5
		c2.7,0,5.3-1.3,7-3.7c0.2-0.3,21.6-30.9,53-35.6c16.7-2.6,33.7,2.9,50.3,16c3.7,2.9,9,2.3,11.9-1.4c2.9-3.7,2.3-9-1.4-11.9
		C802.4,377,781.1,370.4,759.6,373.7z"/>
	<path fill="#E9C46A" d="M994.9,370c-17.8-39.9-23.4-115.3-25.1-156.8c-1.6-39.1-13.3-75.9-33.8-106.4
		c-36.5-54.4-77-76.6-104.3-88.5c-55.6-24.3-119.4-24.3-175,0c-32.1,14.1-68.9,34.5-97.8,79.8c-19.4,30.4-30.1,66.9-30.9,105.8
		c-0.9,44.7-5,125.8-23.1,167.6c-5.7,13.3,0.3,28.9,13.5,34.7c7.6,3.4,22.1,5.4,40.3,7.6c1.2,0.2,2.2,0.3,3.4,0.4v9.5
		c0,22.6,19.9,42.4,42.5,42.4h21.3v14.4c0,10.8,8.8,19.5,19.5,19.5h198.2c10.8,0,19.5-8.8,19.5-19.5v-14.4H891
		c23,0,43.9-20.2,43.9-42.4v-9.8c4.6-0.8,9.3-1.5,14-2.1c12.3-1.7,23.9-3.4,31.4-6.3c6.8-2.7,12.1-7.8,14.9-14.6
		C998,384.2,997.9,376.7,994.9,370z M846.1,480.5c0,1.4-1.2,2.6-2.6,2.6H645.3c-1.4,0-2.6-1.2-2.6-2.6v-14.4h203.4V480.5z
		 M918,423.7c0,12.8-13.4,25.4-27,25.4h-27.9H625.8h-21.3c-13.1,0-25.5-12.4-25.5-25.4V236.8c34.2-2.4,164.3-15.3,218.8-77
		c12.3,22.8,42,70.4,81.1,82.8c13.2,4.2,26.3,4,39.1-0.5L918,423.7L918,423.7z M979.6,384.5c-1,2.4-2.9,4.3-5.3,5.2
		c-5.7,2.2-16.8,3.8-27.6,5.3c-3.9,0.5-7.8,1.1-11.7,1.7V228.8c0-3-1.6-5.8-4.3-7.4c-2.7-1.5-5.9-1.5-8.5,0.1
		c-12.6,7.4-25.1,9-38.2,4.9c-43.6-13.7-76.6-85.1-76.9-85.9c-1.3-2.8-4-4.7-7-4.9c-3-0.3-6,1.2-7.7,3.7
		c-49.1,72.9-220.4,80.9-222.1,81c-4.5,0.2-8.1,3.9-8.1,8.5v168.3c-0.4-0.1-0.8-0.1-1.3-0.2c-11.8-1.5-29.6-3.7-35.5-6.3
		c-4.8-2.1-6.9-7.6-4.8-12.5c19.2-44.5,23.6-128.1,24.5-174c0.7-35.7,10.4-69.3,28.2-97c26.5-41.5,60.6-60.4,90.4-73.4
		c51.3-22.4,110.1-22.4,161.4,0c25.4,11.1,63,31.7,97.1,82.5c18.7,27.9,29.4,61.6,30.9,97.6c2.2,52.1,8.6,122.7,26.6,163
		C980.5,379.3,980.6,382.1,979.6,384.5z"/>
</g>
</svg>
