<svg version="1.1" xmlns="http://www.w3.org/2000/svg" xmlns:xlink="http://www.w3.org/1999/xlink" viewBox="0 0 172 172"><g fill="none" fill-rule="nonzero" stroke="none" stroke-width="1" stroke-linecap="butt" stroke-linejoin="miter" stroke-miterlimit="10" stroke-dasharray="" stroke-dashoffset="0" font-family="none" font-weight="none" font-size="none" text-anchor="none" style="mix-blend-mode: normal"><path d="M0,172v-172h172v172z" fill="none"></path><g fill="#ffffff"><path d="M86,6.88c-9.63469,0 -17.2,7.56531 -17.2,17.2c0,9.63469 7.56531,17.2 17.2,17.2c9.63469,0 17.2,-7.56531 17.2,-17.2c0,-9.63469 -7.56531,-17.2 -17.2,-17.2zM32.25,30.96c-0.45687,0.05375 -0.86,0.14781 -1.29,0.3225c-0.34937,0 -1.04812,0.3225 -1.3975,0.3225h-0.3225c-0.34937,0.34938 -1.04812,0.40313 -1.3975,0.7525c0,0.34938 -0.3225,0.3225 -0.3225,0.3225c-0.34937,0.34938 -0.645,0.29563 -0.645,0.645c-1.72,1.72 -2.795,3.82969 -2.795,6.235c0,3.44 1.76031,6.15438 4.515,7.525c0.34938,0.34938 0.29563,0.43 0.645,0.43l39.56,14.405v24.4025l-32.3575,33.4325c-1.37062,1.37063 -2.365,3.39969 -2.365,5.805c0,4.81063 3.78938,8.6 8.6,8.6c1.03469,0 2.08281,-0.29562 3.1175,-0.645c1.03469,-0.34937 1.97531,-1.03469 3.01,-1.72l37.195,-35.1525l36.765,35.1525c0.68531,0.68531 1.74688,1.37063 3.1175,1.72c1.03469,0.34938 2.08281,0.645 3.1175,0.645c4.81063,0 8.6,-3.78937 8.6,-8.6c0,-2.40531 -0.99437,-4.085 -2.365,-5.805l-32.035,-33.4325v-24.4025l39.56,-14.405c0.34938,0 0.29563,-0.43 0.645,-0.43c2.75469,-1.37062 4.515,-4.085 4.515,-7.525c0,-2.40531 -1.075,-4.515 -2.795,-6.235l-0.645,-0.645c-0.34937,0 -0.29562,-0.3225 -0.645,-0.3225c-0.34937,-0.34937 -0.71219,-0.40312 -1.3975,-0.7525h-0.3225c-0.34937,-0.34937 -1.04812,-0.3225 -1.3975,-0.3225c-1.72,-0.34937 -3.78937,-0.36281 -5.16,0.3225l-36.12,13.115h-26.875l-36.4425,-13.115c-1.03469,-0.51062 -2.49937,-0.80625 -3.87,-0.645zM86,134.16c-11.58312,0 -21.6075,2.9025 -21.6075,2.9025c-1.30344,0.22844 -2.35156,1.1825 -2.71437,2.45906c-0.36281,1.27656 0.04031,2.63375 1.03469,3.50719c0.99437,0.87344 2.39187,1.10188 3.61469,0.59125c0,0 9.23156,-2.58 19.6725,-2.58c10.44094,0 19.6725,2.58 19.6725,2.58c1.22281,0.51063 2.62031,0.28219 3.61469,-0.59125c0.99438,-0.87344 1.3975,-2.23062 1.03469,-3.50719c-0.36281,-1.27656 -1.41094,-2.23063 -2.71438,-2.45906c0,0 -10.02437,-2.9025 -21.6075,-2.9025zM86,147.92c-27.04969,0 -49.665,10.6425 -49.665,10.6425c-1.72,0.83313 -2.44562,2.9025 -1.6125,4.6225c0.83313,1.72 2.9025,2.44563 4.6225,1.6125c0,0 21.41938,-9.9975 46.655,-9.9975c25.23563,0 46.655,9.9975 46.655,9.9975c1.72,0.83313 3.78938,0.1075 4.6225,-1.6125c0.83313,-1.72 0.1075,-3.78937 -1.6125,-4.6225c0,0 -22.61531,-10.6425 -49.665,-10.6425z"></path></g></g></svg>