<svg version="1.1" xmlns="http://www.w3.org/2000/svg" xmlns:xlink="http://www.w3.org/1999/xlink" viewBox="0 0 172 172"><g fill="none" fill-rule="nonzero" stroke="none" stroke-width="1" stroke-linecap="butt" stroke-linejoin="miter" stroke-miterlimit="10" stroke-dasharray="" stroke-dashoffset="0" font-family="none" font-weight="none" font-size="none" text-anchor="none" style="mix-blend-mode: normal"><path d="M0,172v-172h172v172z" fill="none"></path><g fill="#616161"><path d="M141.04,13.76h-110.08c-9.4944,0 -17.2,7.7056 -17.2,17.2v110.08c0,9.4944 7.7056,17.2 17.2,17.2h110.08c9.4944,0 17.2,-7.7056 17.2,-17.2v-110.08c0,-9.4944 -7.7056,-17.2 -17.2,-17.2zM127.28,65.36h-6.88c-7.3616,0 -10.32,1.72 -10.32,6.88v10.32h17.2l-3.44,17.2h-13.76v51.6h-17.2v-51.6h-13.76v-17.2h13.76v-10.32c0,-13.76 6.88,-24.08 20.64,-24.08c9.976,0 13.76,3.44 13.76,3.44z"></path></g></g></svg>