<svg version="1.1" xmlns="http://www.w3.org/2000/svg" xmlns:xlink="http://www.w3.org/1999/xlink" viewBox="0 0 172 172"><g fill="none" fill-rule="nonzero" stroke="none" stroke-width="1" stroke-linecap="butt" stroke-linejoin="miter" stroke-miterlimit="10" stroke-dasharray="" stroke-dashoffset="0" font-family="none" font-weight="none" font-size="none" text-anchor="none" style="mix-blend-mode: normal"><path d="M0,172v-172h172v172z" fill="none"></path><g fill="#616161"><path d="M48.375,21.5c-14.77946,0 -26.875,12.09554 -26.875,26.875v75.25c0,14.77946 12.09554,26.875 26.875,26.875h75.25c14.77946,0 26.875,-12.09554 26.875,-26.875v-75.25c0,-14.77946 -12.09554,-26.875 -26.875,-26.875zM112.875,43h10.75c2.97417,0 5.375,2.40083 5.375,5.375c0,2.97417 -2.40083,5.375 -5.375,5.375h-10.75c-2.97417,0 -5.375,-2.40083 -5.375,-5.375c0,-2.97417 2.40083,-5.375 5.375,-5.375zM86,64.5c11.9378,0 21.5,9.56221 21.5,21.5c0,11.93779 -9.5622,21.5 -21.5,21.5c-11.9378,0 -21.5,-9.56221 -21.5,-21.5c0,-11.93779 9.5622,-21.5 21.5,-21.5zM32.25,71.66667h24.91536c-2.1662,4.32755 -3.41536,9.18473 -3.41536,14.33333c0,17.74751 14.50247,32.25 32.25,32.25c17.74753,0 32.25,-14.50249 32.25,-32.25c0,-5.14861 -1.24917,-10.00578 -3.41536,-14.33333h24.91536v51.95833c0,8.97087 -7.15413,16.125 -16.125,16.125h-75.25c-8.97087,0 -16.125,-7.15413 -16.125,-16.125z"></path></g></g></svg>