<svg width="1920" height="1080" viewBox="0 0 1920 1080" xmlns="http://www.w3.org/2000/svg"><rect width="1920" height="1080" fill="#03000c"/><path d="M1920,1080C1601,1134.6666666666667,275.6666666666667,1092,0,1080C-275.6666666666667,1068,176.83333333333331,1028.3333333333333,266,1008C355.1666666666667,987.6666666666666,443.6666666666667,1011.5,535,958C626.3333333333334,904.5,722.1666666666666,675.8333333333334,814,687C905.8333333333334,698.1666666666666,994.6666666666666,1024.1666666666667,1086,1025C1177.3333333333333,1025.8333333333333,1270.3333333333333,695.5,1362,692C1453.6666666666667,688.5,1544,994,1636,1004C1728,1014,1866.6666666666667,739.3333333333334,1914,752C1961.3333333333333,764.6666666666666,2239,1025.3333333333333,1920,1080C1601,1134.6666666666667,275.6666666666667,1092,0,1080" fill="#ffffff"/></svg>