<svg version="1.1" xmlns="http://www.w3.org/2000/svg" xmlns:xlink="http://www.w3.org/1999/xlink" viewBox="0 0 172 172"><g fill="none" fill-rule="nonzero" stroke="none" stroke-width="1" stroke-linecap="butt" stroke-linejoin="miter" stroke-miterlimit="10" stroke-dasharray="" stroke-dashoffset="0" font-family="none" font-weight="none" font-size="none" text-anchor="none" style="mix-blend-mode: normal"><path d="M0,172v-172h172v172z" fill="none"></path><g><path d="M153.61144,156.32595l0.04668,-86.09225c0.00257,-4.78219 2.31649,-9.24426 6.16664,-12.0694c6.32835,-4.644 12.21898,-10.80329 12.17525,-17.91924c-0.12349,-20.01668 -47.15226,-40.10871 -88.74906,-39.49642c-37.58935,0.55349 -82.50965,18.1879 -83.24175,38.82018c-0.25396,7.1538 4.84283,13.58874 10.89627,18.74322c3.29373,2.80456 5.15044,6.94836 5.14824,11.2796l-0.04704,86.77106c-0.00441,8.23174 6.65544,14.9063 14.87028,14.90226l107.87891,-0.05292c8.20234,-0.00404 14.8508,-6.66647 14.85558,-14.88609z" fill="#ffb966"></path><path d="M138.75585,164.13725l-107.87928,0.05292c-8.16375,0.00404 -14.78906,-6.58892 -14.86624,-14.75047l-0.00368,6.923c-0.00441,8.23174 6.65544,14.9063 14.86991,14.90226l107.87891,-0.05292c8.20234,-0.00404 14.85117,-6.66647 14.85558,-14.88609l0.00221,-3.86743c-1.54138,6.67713 -7.75433,11.67505 -14.85742,11.67873z" fill="#f2a85f"></path><path d="M142.25098,85.39138c0,-7.92229 -3.7127,-15.03677 -9.60811,-19.9248c-2.91591,-2.41756 -4.33087,-6.21589 -3.82038,-9.97379c3.88617,-28.37926 -35.64002,-40.08188 -51.34898,-19.48157c-2.60462,3.18898 -6.6775,4.72779 -10.73015,4.0284c-21.08727,-4.36542 -41.21752,16.75714 -31.61235,36.83373c1.67259,3.58848 1.22164,7.77234 -0.99562,11.05063c-7.5397,10.43944 -4.86488,26.30608 5.21844,34.09385c2.10516,1.74609 3.43779,4.24708 3.82921,6.95718c2.04305,19.59256 29.28778,29.84384 45.29921,17.99091c2.74502,-1.85451 6.14863,-2.48481 9.33026,-1.56711c20.13539,6.48418 42.92098,-11.78641 36.08913,-32.91448c-1.15585,-3.7127 -0.19626,-7.73155 2.30032,-10.70957c3.78951,-4.52162 6.04903,-10.20607 6.04903,-16.38337z" fill="#ffebb8"></path><path d="M134.80279,116.573c-1.49875,16.77404 -21.63451,27.18151 -36.99029,22.12332c-3.18126,-0.9177 -6.58525,-0.2874 -9.33026,1.56711c-4.73184,3.1967 -10.55338,5.08282 -16.85012,5.08282c-10.80807,0.01874 -22.08803,-5.58485 -27.93089,-13.79308c2.99309,11.70703 14.38001,20.51909 27.93089,20.49556c6.29674,0 12.11828,-1.88612 16.85012,-5.08282c2.74502,-1.85415 6.14863,-2.48481 9.33026,-1.56711c18.16364,5.95568 40.17817,-9.03662 36.99029,-28.8258z" fill="#f9da9b"></path><ellipse cx="252.124" cy="134.133" transform="scale(0.36752,0.36752)" rx="7.93" ry="10.331" fill="#ffffff"></ellipse><ellipse cx="161.523" cy="343.412" transform="scale(0.36752,0.36752)" rx="7.93" ry="10.331" fill="#ffffff"></ellipse><path d="M45.35397,104.15078c-1.44252,0.04263 -2.38117,-1.74867 -1.49103,-2.9093c1.28596,-1.71302 0.82141,-4.34815 -0.97283,-5.5176c-0.83832,-0.5726 -1.05405,-1.71559 -0.48182,-2.55391c0.57223,-0.83795 1.71559,-1.05368 2.55354,-0.48182c3.47749,2.26614 4.37865,7.37762 1.88612,10.69634c-0.3587,0.5002 -0.92211,0.76628 -1.49397,0.76628z" fill="#f4f4f4"></path><path d="M119.95971,109.908c-0.57186,0 -1.13527,-0.26609 -1.49434,-0.76591c-2.49253,-3.31945 -1.591,-8.43021 1.88612,-10.69634c0.83795,-0.57113 1.98131,-0.35613 2.55354,0.48182c0.57223,0.83832 0.3565,1.98168 -0.48182,2.55391c-1.79461,1.16909 -2.25879,3.80495 -0.97283,5.5176c0.89087,1.16026 -0.04851,2.95156 -1.49067,2.90893z" fill="#f4f4f4"></path><path d="M105.25885,128.28407c-0.57186,0 -1.13527,-0.26609 -1.49434,-0.76591c-2.49253,-3.31945 -1.591,-8.43021 1.88612,-10.69634c0.83832,-0.57113 1.98168,-0.35613 2.55354,0.48182c0.57223,0.83832 0.3565,1.98168 -0.48182,2.55391c-1.79461,1.16909 -2.25879,3.80495 -0.97283,5.5176c0.89087,1.16026 -0.04851,2.95156 -1.49067,2.90893z" fill="#f4f4f4"></path><path d="M83.55268,135.6345c-1.44252,0.04263 -2.38117,-1.74867 -1.49103,-2.9093c1.28596,-1.71265 0.82178,-4.34815 -0.97283,-5.5176c-0.83832,-0.5726 -1.05405,-1.71559 -0.48182,-2.55391c0.5726,-0.83795 1.71559,-1.05368 2.55354,-0.48182c3.47749,2.2665 4.37865,7.37726 1.88612,10.69634c-0.35833,0.5002 -0.92211,0.76628 -1.49397,0.76628z" fill="#f4f4f4"></path><path d="M126.13444,83.74746c-1.44252,0.04263 -2.38117,-1.74867 -1.49103,-2.9093c1.28596,-1.71302 0.82178,-4.34815 -0.97283,-5.51833c-0.83832,-0.57223 -1.05368,-1.71559 -0.48145,-2.55354c0.5726,-0.83795 1.71559,-1.05405 2.55391,-0.48145c3.47712,2.26614 4.37828,7.37762 1.88575,10.69634c-0.35907,0.5002 -0.92248,0.76628 -1.49434,0.76628z" fill="#f4f4f4"></path><path d="M111.43358,50.67054c-1.44252,0.04263 -2.38117,-1.74867 -1.49103,-2.9093c1.28596,-1.71302 0.82178,-4.34815 -0.97283,-5.51833c-0.83832,-0.57223 -1.05368,-1.71559 -0.48145,-2.55354c0.57223,-0.83832 1.71596,-1.05368 2.55391,-0.48145c3.47712,2.26614 4.37828,7.37762 1.88575,10.69634c-0.35907,0.5002 -0.92248,0.76628 -1.49434,0.76628z" fill="#f4f4f4"></path><path d="M57.08415,65.00975c-0.57186,0 -1.13527,-0.26609 -1.49434,-0.76591c-2.49253,-3.31945 -1.591,-8.43021 1.88612,-10.69634c0.83795,-0.57113 1.98131,-0.3565 2.55354,0.48182c0.57223,0.83832 0.3565,1.98168 -0.48182,2.55391c-1.79461,1.16909 -2.25879,3.80495 -0.97283,5.5176c0.89087,1.16026 -0.04851,2.95156 -1.49067,2.90893z" fill="#f4f4f4"></path><ellipse cx="230.154" cy="230.621" transform="scale(0.36752,0.36752)" rx="68.631" ry="68.508" fill="#f9e169"></ellipse><path d="M84.58651,103.23418c-12.79158,0 -23.35157,-9.50704 -24.99439,-21.82709c-0.14627,1.09705 -0.22897,2.21395 -0.22897,3.35106c0,13.90554 11.29283,25.17815 25.22336,25.17815c13.93053,0 25.22336,-11.27262 25.22336,-25.17815c0,-1.13711 -0.08269,-2.25401 -0.22897,-3.35106c-1.64282,12.32005 -12.20281,21.82709 -24.99439,21.82709z" fill="#f4d34a"></path><path d="M95.30638,86.59575c-1.01473,0 -1.83761,-0.82251 -1.83761,-1.83761c0,-4.8873 -3.98467,-8.86315 -8.88226,-8.86315c-1.01473,0 -1.83761,-0.82251 -1.83761,-1.83761c0,-1.01509 0.82288,-1.83761 1.83761,-1.83761c6.9241,0 12.55747,5.62491 12.55747,12.53836c0,1.01509 -0.82288,1.83761 -1.83761,1.83761z" fill="#f4f4f4"></path></g></g></svg>