<svg version="1.1" xmlns="http://www.w3.org/2000/svg" xmlns:xlink="http://www.w3.org/1999/xlink" viewBox="0 0 172 172"><g fill="none" fill-rule="nonzero" stroke="none" stroke-width="1" stroke-linecap="butt" stroke-linejoin="miter" stroke-miterlimit="10" stroke-dasharray="" stroke-dashoffset="0" font-family="none" font-weight="none" font-size="none" text-anchor="none" style="mix-blend-mode: normal"><path d="M0,172v-172h172v172z" fill="none"></path><g fill="#000000"><path d="M63.06667,17.2c-14.90667,0 -26.5766,11.00585 -28.31953,25.17292c-10.30853,4.34013 -17.54714,14.53615 -17.54714,26.42708c0,15.82973 12.83693,28.66667 28.66667,28.66667c1.677,0 3.30822,-0.16716 4.89349,-0.47031c4.45968,9.62412 11.11344,26.92592 12.16094,46.79609c0.31404,5.95854 5.30519,11.00755 11.45547,11.00755h23.21328c6.18233,0 11.2116,-5.08931 11.45547,-11.11953c0.71554,-17.27438 4.77052,-29.38258 8.53281,-37.13229c2.98065,-6.13964 5.0951,-8.68059 6.03568,-9.73099c1.74281,0.383 3.53025,0.64948 5.3862,0.64948c14.24733,0 25.8,-11.55267 25.8,-25.8c0,-11.80493 -7.97104,-21.6522 -18.8013,-24.7138c-4.4032,-13.92053 -17.4219,-24.01953 -32.7987,-24.01953h-0.06719c-3.08453,0.00573 -4.99212,3.31673 -3.65052,6.09167c0.36694,0.75107 0.70395,1.5213 1.00782,2.30677c0.9976,2.5628 0.11628,5.58722 -2.21719,7.04349c-0.9804,0.60773 -2.04169,0.89583 -3.07942,0.89583c-2.3048,0 -4.47541,-1.40225 -5.35261,-3.68412c-1.07787,-2.80933 -8.42755,-18.38698 -26.77422,-18.38698zM57.33333,57.33333c3.1648,0 5.73333,2.56853 5.73333,5.73333c0,3.1648 -2.56853,5.73333 -5.73333,5.73333c-3.1648,0 -5.73333,-2.56853 -5.73333,-5.73333c0,-3.1648 2.56853,-5.73333 5.73333,-5.73333zM114.66667,57.33333c3.1648,0 5.73333,2.56853 5.73333,5.73333c0,3.1648 -2.56853,5.73333 -5.73333,5.73333c-3.1648,0 -5.73333,-2.56853 -5.73333,-5.73333c0,-3.1648 2.56853,-5.73333 5.73333,-5.73333zM74.53333,68.8h22.93333c0,6.33533 -5.13133,11.46667 -11.46667,11.46667c-6.33533,0 -11.46667,-5.13133 -11.46667,-11.46667zM91.73333,98.68724c4.10993,2.78696 8.99346,4.51276 14.33333,4.51276c0.17643,0 0.33961,-0.04115 0.51511,-0.04479c-4.17361,9.0649 -8.25199,22.19144 -8.99193,40.05495c0,0.00373 0,0.00746 0,0.0112c-0.0086,0.20766 0.05561,0.11198 0,0.11198h-23.21328c-0.06095,0 0.01261,0.09471 0,-0.14558c-0.86066,-16.32627 -5.12012,-30.93296 -9.26067,-41.70104c2.95128,1.05574 6.09648,1.71328 9.41745,1.71328c1.9733,0 3.87436,-0.26623 5.73333,-0.64948v23.01172c-0.02924,2.06765 1.05709,3.99087 2.843,5.03322c1.78592,1.04236 3.99474,1.04236 5.78066,0c1.78592,-1.04236 2.87225,-2.96558 2.843,-5.03322z"></path></g></g></svg>