<svg version="1.1" xmlns="http://www.w3.org/2000/svg" xmlns:xlink="http://www.w3.org/1999/xlink" viewBox="0 0 172 172"><g fill="none" fill-rule="nonzero" stroke="none" stroke-width="1" stroke-linecap="butt" stroke-linejoin="miter" stroke-miterlimit="10" stroke-dasharray="" stroke-dashoffset="0" font-family="none" font-weight="none" font-size="none" text-anchor="none" style="mix-blend-mode: normal"><path d="M0,172v-172h172v172z" fill="none"></path><g fill="#000000"><path d="M34.4,22.93333c-6.33533,0 -11.46667,5.13133 -11.46667,11.46667v103.2c0,6.33533 5.13133,11.46667 11.46667,11.46667h65.87734l-1.81406,-11.46667h-18.19661v-57.33333h9.1487l-1.81406,-11.46667h-7.33464v-34.4h57.33333v14.55729l11.46667,36.30365v-50.86094c0,-6.33533 -5.13133,-11.46667 -11.46667,-11.46667zM34.4,34.4h34.4v34.4h-34.4zM120.16484,45.78828c-1.82125,0.065 -3.50314,0.99188 -4.5308,2.4969c-1.02766,1.50502 -1.27868,3.40893 -0.67623,5.12888l34.4,103.2c0.64776,1.94475 2.28396,3.3961 4.2921,3.8072c2.00814,0.4111 4.08305,-0.28054 5.4429,-1.8143c1.35986,-1.53376 1.79801,-3.67656 1.14937,-5.62102l-34.4,-103.2c-0.77877,-2.45718 -3.10146,-4.09269 -5.67735,-3.99766zM103.30078,51.52161c-1.71862,-0.03393 -3.3618,0.70496 -4.4769,2.01315c-1.1151,1.30818 -1.58448,3.04764 -1.27883,4.7392l17.2,103.2c0.29775,2.05578 1.68405,3.78976 3.62386,4.53271c1.93981,0.74296 4.12975,0.37869 5.72461,-0.95221c1.59486,-1.3309 2.3452,-3.42028 1.96142,-5.46175l-17.2,-103.2c-0.41936,-2.75894 -2.7641,-4.81531 -5.55417,-4.87109zM34.4,80.26667h34.4v22.93333h-34.4zM34.4,114.66667h34.4v22.93333h-34.4z"></path></g></g></svg>