<svg version="1.1" xmlns="http://www.w3.org/2000/svg" xmlns:xlink="http://www.w3.org/1999/xlink" viewBox="0 0 172 172"><g fill="none" fill-rule="nonzero" stroke="none" stroke-width="1" stroke-linecap="butt" stroke-linejoin="miter" stroke-miterlimit="10" stroke-dasharray="" stroke-dashoffset="0" font-family="none" font-weight="none" font-size="none" text-anchor="none" style="mix-blend-mode: normal"><path d="M0,172v-172h172v172z" fill="none"></path><g fill="#ffffff"><path d="M67.4657,9.93115c-8.09273,0.15621 -15.00591,2.50735 -20.64966,7.0022c-7.83138,6.24844 -11.29712,15.18719 -12.81287,21.15881c-5.68406,-2.30319 -11.64561,-4.92102 -17.88867,-7.94177c-1.34106,-0.65038 -2.94533,-0.08373 -3.59033,1.24927c-0.645,1.33569 -0.08642,2.94008 1.24927,3.58508c6.71337,3.24919 13.10593,6.04486 19.19043,8.48242c-0.05644,0.46762 -0.08642,0.79533 -0.09448,0.90283c-0.08062,0.9675 -1.45041,17.79125 8.92334,30.23438c1.96188,2.33813 4.16164,4.32226 6.66101,6.01538h-40.39124c-4.43437,0 -8.0625,3.62812 -8.0625,8.0625c0,3.63887 2.4573,6.70338 5.78442,7.69507l1.75317,8.75012c3.84581,19.23175 17.72289,35.31925 36.21826,41.98694c0.77131,0.2795 1.3605,0.8081 1.65344,1.49072l3.32263,7.75806c1.27119,2.96969 4.17856,4.88684 7.41162,4.88684h62.40039c3.23037,0 6.13774,-1.91984 7.41162,-4.88684l3.86328,-9.00208c0.26875,-0.6235 0.79479,-1.12686 1.48547,-1.42249c17.11937,-7.32612 29.51639,-22.57928 33.16333,-40.80591l1.75317,-8.75012c3.32175,-0.99437 5.77918,-4.05619 5.77918,-7.69507c0,-4.43438 -3.62813,-8.0625 -8.0625,-8.0625h-58.96228c16.31313,-5.93937 30.63645,-14.19231 36.54895,-17.82043c1.47813,-0.91375 2.47187,-2.4156 2.71375,-4.16248c0.215,-1.72 -0.34958,-3.43937 -1.55896,-4.72937c-8.76125,-9.16437 -39.47958,-39.3998 -66.73083,-43.40418c-2.95625,-0.43672 -5.78484,-0.62946 -8.48242,-0.57739zM68.39478,15.31665c2.15,0 4.40624,0.15978 6.77124,0.50916c25.55812,3.7625 55.14729,32.95022 63.61292,41.81897c0.08062,0.08062 0.1371,0.18645 0.11023,0.29395c0,0.13437 -0.08147,0.21857 -0.18897,0.29919c-7.87437,4.81062 -31.17521,18.16246 -53.29333,22.38184h-23.80957c-6.52794,-1.66356 -11.77209,-4.80475 -15.64209,-9.42725c-7.98994,-9.56212 -7.90012,-22.70009 -7.7738,-25.69397c19.39838,7.32344 35.14688,10.76008 46.03394,12.3457c0.13168,0.01881 0.25943,0.02624 0.38843,0.02624c1.3115,0 2.46251,-0.9607 2.65601,-2.29907c0.215,-1.46737 -0.80545,-2.82943 -2.27283,-3.04443c-10.79838,-1.57219 -26.50639,-5.02525 -45.92896,-12.44544c1.23356,-5.15731 4.19174,-13.41516 11.11743,-18.95947c4.86437,-3.87 10.96311,-5.80542 18.21936,-5.80542zM98.84436,53.88647c-1.49694,-0.05913 -2.74104,1.07802 -2.80823,2.56152c-0.06719,1.4835 1.07802,2.74629 2.56152,2.81348c2.05862,0.09406 3.79903,0.12073 5.19653,0.12073c1.35719,0 2.38831,-0.03112 3.06018,-0.04724l0.57214,-0.0105c1.48619,-0.02419 2.6697,-1.24599 2.64551,-2.72949c-0.02687,-1.4835 -1.37499,-2.67776 -2.72949,-2.64551l-0.62988,0.0105c-1.3975,0.03762 -3.99829,0.10926 -7.86829,-0.07349zM8.0625,86h155.875c1.47813,0 2.6875,1.20938 2.6875,2.6875c0,1.47812 -1.20937,2.6875 -2.6875,2.6875h-155.875c-1.47812,0 -2.6875,-1.20938 -2.6875,-2.6875c0,-1.47812 1.20938,-2.6875 2.6875,-2.6875zM11.34314,96.75h149.31372l-1.46448,7.32764c-0.75519,3.77325 -1.94017,7.39142 -3.4801,10.82874c-0.34669,-1.08306 -1.32615,-1.87915 -2.52478,-1.87915c-1.48619,0 -2.6875,1.204 -2.6875,2.6875v5.375c0,0.70413 0.28361,1.32985 0.72436,1.81091c-5.40725,7.87975 -12.98377,14.21801 -22.04065,18.09338c-1.96456,0.84119 -3.49513,2.35165 -4.30945,4.25171l-3.86328,9.00207c-0.42194,0.989 -1.38935,1.6272 -2.46704,1.6272h-62.40039c-1.075,0 -2.04767,-0.6382 -2.47229,-1.6272l-1.6062,-3.7478h41.99744c1.48619,0 2.6875,-1.204 2.6875,-2.6875c0,-1.4835 -1.20131,-2.6875 -2.6875,-2.6875h-44.48022c-0.96213,-1.38675 -2.35757,-2.47149 -4.00501,-3.06543c-10.17756,-3.66844 -18.79558,-10.49893 -24.78064,-19.19568c0.42462,-0.473 0.70337,-1.08617 0.70337,-1.77417v-5.375c0,-1.4835 -1.20131,-2.6875 -2.6875,-2.6875c-1.1825,0 -2.15416,0.77559 -2.51428,1.83716c-1.54531,-3.42925 -2.74079,-7.03499 -3.4906,-10.78674zM32.25,113.02722c-1.48619,0 -2.6875,1.204 -2.6875,2.6875v5.375c0,1.4835 1.20131,2.6875 2.6875,2.6875c1.48619,0 2.6875,-1.204 2.6875,-2.6875v-5.375c0,-1.4835 -1.20131,-2.6875 -2.6875,-2.6875zM45.6875,113.02722c-1.48619,0 -2.6875,1.204 -2.6875,2.6875v5.375c0,1.4835 1.20131,2.6875 2.6875,2.6875c1.48619,0 2.6875,-1.204 2.6875,-2.6875v-5.375c0,-1.4835 -1.20131,-2.6875 -2.6875,-2.6875zM59.125,113.02722c-1.48619,0 -2.6875,1.204 -2.6875,2.6875v5.375c0,1.4835 1.20131,2.6875 2.6875,2.6875c1.48619,0 2.6875,-1.204 2.6875,-2.6875v-5.375c0,-1.4835 -1.20131,-2.6875 -2.6875,-2.6875zM72.5625,113.02722c-1.48619,0 -2.6875,1.204 -2.6875,2.6875v5.375c0,1.4835 1.20131,2.6875 2.6875,2.6875c1.48619,0 2.6875,-1.204 2.6875,-2.6875v-5.375c0,-1.4835 -1.20131,-2.6875 -2.6875,-2.6875zM86,113.02722c-1.48619,0 -2.6875,1.204 -2.6875,2.6875v5.375c0,1.4835 1.20131,2.6875 2.6875,2.6875c1.48619,0 2.6875,-1.204 2.6875,-2.6875v-5.375c0,-1.4835 -1.20131,-2.6875 -2.6875,-2.6875zM99.4375,113.02722c-1.48619,0 -2.6875,1.204 -2.6875,2.6875v5.375c0,1.4835 1.20131,2.6875 2.6875,2.6875c1.48619,0 2.6875,-1.204 2.6875,-2.6875v-5.375c0,-1.4835 -1.20131,-2.6875 -2.6875,-2.6875zM112.875,113.02722c-1.48619,0 -2.6875,1.204 -2.6875,2.6875v5.375c0,1.4835 1.20131,2.6875 2.6875,2.6875c1.48619,0 2.6875,-1.204 2.6875,-2.6875v-5.375c0,-1.4835 -1.20131,-2.6875 -2.6875,-2.6875zM126.3125,113.02722c-1.48619,0 -2.6875,1.204 -2.6875,2.6875v5.375c0,1.4835 1.20131,2.6875 2.6875,2.6875c1.48619,0 2.6875,-1.204 2.6875,-2.6875v-5.375c0,-1.4835 -1.20131,-2.6875 -2.6875,-2.6875zM139.75,113.02722c-1.48619,0 -2.6875,1.204 -2.6875,2.6875v5.375c0,1.4835 1.20131,2.6875 2.6875,2.6875c1.48619,0 2.6875,-1.204 2.6875,-2.6875v-5.375c0,-1.4835 -1.20131,-2.6875 -2.6875,-2.6875zM104.8125,145.125c-1.48619,0 -2.6875,1.204 -2.6875,2.6875c0,1.4835 1.20131,2.6875 2.6875,2.6875h10.75c1.48619,0 2.6875,-1.204 2.6875,-2.6875c0,-1.4835 -1.20131,-2.6875 -2.6875,-2.6875z"></path></g></g></svg>