<svg version="1.1" xmlns="http://www.w3.org/2000/svg" xmlns:xlink="http://www.w3.org/1999/xlink" viewBox="0 0 172 172"><g fill="none" fill-rule="nonzero" stroke="none" stroke-width="1" stroke-linecap="butt" stroke-linejoin="miter" stroke-miterlimit="10" stroke-dasharray="" stroke-dashoffset="0" font-family="none" font-weight="none" font-size="none" text-anchor="none" style="mix-blend-mode: normal"><path d="M0,172v-172h172v172z" fill="none"></path><g fill="#ffffff"><path d="M153.20613,66.0308c-4.9364,-15.19333 -20.04373,-24.21187 -35.33453,-22.0332c-2.65453,-15.21627 -15.8928,-26.7976 -31.8716,-26.7976c-15.9788,0 -29.21707,11.58133 -31.8716,26.7976c-15.2908,-2.17867 -30.39813,6.83987 -35.33453,22.0332c-4.94213,15.21053 1.9952,31.40147 15.68067,38.614c-6.794,13.86893 -2.92973,31.00013 9.9932,40.39133c12.94013,9.39693 30.44973,7.76293 41.538,-3.01573c11.08827,10.77867 28.59787,12.4184 41.538,3.01573c12.92293,-9.3912 16.7872,-26.5224 9.9932,-40.39133c13.674,-7.21253 20.61133,-23.40347 15.6692,-38.614zM115.62413,86.32107c-3.75533,1.3588 -30.2204,2.752 -30.30067,2.75773v0l-0.00573,0.01147c0.0344,0.02293 22.5664,14.21867 25.20373,17.21147c2.6488,2.99853 2.36787,7.57373 -0.63067,10.22827c-2.9928,2.64307 -7.568,2.3564 -10.2168,-0.6364c-2.6488,-2.9928 -14.33333,-26.746 -14.35627,-26.7976c-0.0516,0.12613 -9.89,24.08573 -12.4528,27.14733c-2.56853,3.0616 -7.13227,3.46867 -10.20533,0.90013c-3.0616,-2.56853 -3.46867,-7.13227 -0.90013,-10.20533c2.56853,-3.0616 23.55827,-17.8536 23.55827,-17.8536v0h-0.00573c0,0 -25.22667,-1.48493 -28.97627,-2.86093c-3.7496,-1.38173 -5.676,-5.54987 -4.29427,-9.29947c1.38173,-3.7496 5.54987,-5.676 9.29947,-4.29427c3.7496,1.38173 23.97107,16.45467 23.97107,16.45467l0.00573,-0.00573c-0.01147,-0.04587 -6.6392,-24.6648 -6.6392,-28.66093c0,-3.99613 3.24507,-7.2412 7.2412,-7.2412c3.99613,0 7.2412,3.24507 7.2412,7.2412c0,3.9904 -7.82027,28.5864 -7.8432,28.6552c0.09747,-0.0688 21.60893,-15.00987 25.35853,-16.36867c3.76107,-1.36453 7.91773,0.57907 9.27653,4.34013c1.37027,3.75533 -0.56187,7.912 -4.32867,9.27653z"></path></g></g></svg>