<svg xmlns="http://www.w3.org/2000/svg" version="1.1" xmlns:xlink="http://www.w3.org/1999/xlink" xmlns:svgjs="http://svgjs.dev/svgjs" viewBox="0 0 1920 1080" class="overflow-hidden rounded-md drop-shadow-lg transition duration-300" style="overflow: hidden; height: 85vh;"><rect width="1920" height="1080" fill="#001514"/><g clip-path="url(&quot;#SvgjsClipPath1147&quot;)"><g transform="matrix(1.15,0,0,1.15,-140.55910949707027,-81)"><path d="M0,-1080C4.189410383081953,-996.051394247623,32.17181517719531,-763.3685125356404,25.136462298491722,-576.3083654857377C18.10110941978813,-389.24821843583493,-32.08684919511908,-142.03449210521882,-42.21211727222155,42.36088229941669C-52.337385349324016,226.7562567040522,-38.59671545391884,359.11865703363276,-35.615146164123075,530.0638809420753C-32.63357687432731,701.0091048505179,-33.535855930521876,886.3275550081638,-24.322701533446974,1068.0322257500723C-15.109547136372072,1249.7368964919806,15.609996629418507,1438.297276351871,19.663780218326337,1620.2919053935257C23.717563807234168,1802.2865344351803,3.2772967030543896,2070.048650898921,0,2160L 1920 2160 L 1920 -1080 Z" fill="url(&quot;#SvgjsLinearGradient1139&quot;)"/><path d="M240,-1080C239.9770764628896,-1021.1619961891358,249.298864183181,-855.3311592393766,239.86245877733774,-726.971977134815C230.42605337149448,-598.6127950302534,182.18816345336396,-448.269853181336,183.38156756494047,-309.8449073726306C184.57497167651698,-171.41996156392523,232.3750689326517,-29.95569799611974,247.0228834467968,103.57769771741715C261.67069796094194,237.11109343095404,267.6503658405417,349.85823850993165,271.26845464981125,491.35546690859076C274.88654345908077,632.8526953072499,264.25096709781474,818.6756678844017,268.7314163024139,952.5610681093716C273.21186550701304,1086.4464683343415,311.3588222490226,1162.762413687786,298.1511498774061,1294.6678682584102C284.94347750578964,1426.5733228290344,199.177240385616,1599.7717735761855,189.48538207271497,1743.9937955331172C179.79352375981395,1888.215817490049,231.58089701211915,2090.665632588853,240,2160L 1920 2160 L 1920 -1080 Z" fill="url(&quot;#SvgjsLinearGradient1140&quot;)"/><path d="M480,-1080C471.95857510835896,-986.1199370356596,431.7226542819096,-706.1214951470772,431.75145065015386,-516.7196222139576C431.7802470183981,-327.3177492808379,467.2449504509525,-128.81153007831261,480.1727782094652,56.411237598717975C493.1006059679779,241.63400527574856,519.211409410762,424.45786583055536,509.3184172012299,594.616983848226C499.4254249916978,764.7761018658966,429.06582096218835,908.8403906564278,420.81482495227243,1077.365945704742C412.5638289423565,1245.891500753056,449.9482453004463,1425.3313050889014,459.8124411417342,1605.7703141381112C469.67663698302215,1786.209323187321,476.6354068569557,2067.6283856896853,480,2160L 1920 2160 L 1920 -1080 Z" fill="url(&quot;#SvgjsLinearGradient1141&quot;)"/><path d="M720,-1080C712.843132368152,-997.1781656598289,670.7375616506688,-769.4013435174488,677.0587942089122,-583.0689939589734C683.3800267671556,-396.7366444004979,751.5713510259083,-145.99415968682857,757.9273953494602,37.994097350852826C764.2834396730121,221.98235438853422,723.4088294423319,344.7414012483755,715.195060150224,520.8605482671152C706.981290858116,696.9796952858549,702.0199252358797,913.7005201217619,708.6447795968127,1094.7089794632907C715.2696339577457,1275.7174388048195,753.0516495819577,1429.3628008935032,754.9441863158222,1606.9113043162881C756.8367230496867,1784.459807739073,725.824031052637,2067.818550719381,720,2160L 1920 2160 L 1920 -1080 Z" fill="url(&quot;#SvgjsLinearGradient1142&quot;)"/><path d="M960,-1080C960.3264780588621,-989.6976915694007,953.8382809921201,-726.7016790985369,961.9588683531725,-538.1861494164041C970.079455714225,-349.6706197342712,1015.8757439007591,-119.88411011711503,1008.7235241663149,51.09317809279716C1001.5713044318707,222.07046630270935,933.6884074211695,315.6686302883458,919.045549946507,487.67757984306894C904.4026924718445,659.6865293977921,913.0472847914156,896.4964300080081,920.8663793183399,1083.146875421136C928.6854738452643,1269.797320834264,959.437846994443,1428.1047315586923,965.960117108053,1607.5802523218363C972.4823872216631,1787.0557730849803,960.9933528513421,2067.930042053639,960,2160L 1920 2160 L 1920 -1080 Z" fill="url(&quot;#SvgjsLinearGradient1143&quot;)"/><path d="M1200,-1080C1199.5276532500088,-1004.3320784465168,1189.1766622063399,-779.1248259066074,1197.1659195000534,-625.9924706791004C1205.155176793767,-472.8601154515934,1255.408782766626,-312.98374062376126,1247.9355437622812,-161.2058686349583C1240.4623047579364,-9.42799664615535,1170.2971512776323,123.46463684762361,1152.3264854739846,284.67476125371735C1134.3558196703368,445.88488565981106,1138.8707923727613,647.0630773605105,1140.1115489403944,806.0548778016041C1141.3523055080275,965.0466782426977,1156.366862497261,1085.1025611083896,1159.7710248797835,1238.625563900279C1163.1751872623058,1392.1485666921685,1153.8316940488257,1573.6304885363202,1160.5365232355284,1727.1928945529403C1167.241352422231,1880.7553005695604,1193.4227538725881,2087.86548242549,1200,2160L 1920 2160 L 1920 -1080 Z" fill="url(&quot;#SvgjsLinearGradient1144&quot;)"/><path d="M1440,-1080C1436.444143194025,-1008.3776107336573,1423.4131446210197,-801.4391887628186,1418.6648591641497,-650.2656644019442C1413.9165737072797,-499.0921400410697,1411.6390940821723,-335.2524159126382,1411.5102872587804,-172.95885383475309C1411.3814804353885,-10.665291756868015,1402.5125906124679,166.8264057372633,1417.8920182237982,323.49570806536616C1433.2714458351286,480.16501039346906,1494.8295625041258,608.0778037272996,1503.7868529267625,767.0569601338641C1512.7441433493993,926.0361165404286,1472.725049049776,1129.994178227531,1471.6357607596185,1277.3706465047533C1470.546472469461,1424.7471147819756,1502.523749979087,1504.21087754799,1497.251123185817,1651.3157697971978C1491.9784963925472,1798.4206620464056,1449.5418538643028,2075.2192949661994,1440,2160L 1920 2160 L 1920 -1080 Z" fill="url(&quot;#SvgjsLinearGradient1145&quot;)"/><path d="M1680,-1080C1672.406645136676,-970.6694769419531,1641.739432604289,-638.8831586380677,1634.4398708200554,-424.01686165171895C1627.1403090358217,-209.1505646653702,1637.230481961206,5.016597900688794,1636.2026292945975,209.19778191809246C1635.174776627989,413.3789659354961,1627.6722662991424,590.1632466495014,1628.272754820405,801.070242452703C1628.8732433416676,1011.9772382559047,1631.1843528922407,1248.151463812753,1639.8055604221731,1474.6397567373026C1648.4267679521056,1701.1280496618522,1673.300926737029,2045.7732927895504,1680,2160L 1920 2160 L 1920 -1080 Z" fill="url(&quot;#SvgjsLinearGradient1146&quot;)"/></g></g><defs><linearGradient x1="0.1" y1="0" x2="0" y2="1" id="SvgjsLinearGradient1139"><stop stop-color="#001514" offset="0"/><stop stop-color="#001510" offset="0"/></linearGradient><linearGradient x1="0.1" y1="0" x2="0" y2="1" id="SvgjsLinearGradient1140"><stop stop-color="#001111" offset="0"/><stop stop-color="#00110e" offset="0.125"/></linearGradient><linearGradient x1="0.1" y1="0" x2="0" y2="1" id="SvgjsLinearGradient1141"><stop stop-color="#000e0d" offset="0"/><stop stop-color="#000e0b" offset="0.25"/></linearGradient><linearGradient x1="0.1" y1="0" x2="0" y2="1" id="SvgjsLinearGradient1142"><stop stop-color="#000a0a" offset="0"/><stop stop-color="#000a08" offset="0.375"/></linearGradient><linearGradient x1="0.1" y1="0" x2="0" y2="1" id="SvgjsLinearGradient1143"><stop stop-color="#000606" offset="0"/><stop stop-color="#000605" offset="0.5"/></linearGradient><linearGradient x1="0.1" y1="0" x2="0" y2="1" id="SvgjsLinearGradient1144"><stop stop-color="#000303" offset="0"/><stop stop-color="#000302" offset="0.625"/></linearGradient><linearGradient x1="0.1" y1="0" x2="0" y2="1" id="SvgjsLinearGradient1145"><stop stop-color="#000000" offset="0"/><stop stop-color="#000000" offset="0.75"/></linearGradient><linearGradient x1="0.1" y1="0" x2="0" y2="1" id="SvgjsLinearGradient1146"><stop stop-color="#000000" offset="0"/><stop stop-color="#000000" offset="0.875"/></linearGradient><clipPath id="SvgjsClipPath1147"><rect width="1920" height="1080"/></clipPath></defs></svg>