<svg xmlns="http://www.w3.org/2000/svg" xmlns:xlink="http://www.w3.org/1999/xlink" viewBox="0 0 2732 2048" fill-rule="evenodd" stroke-linecap="round" stroke-linejoin="round" stroke-miterlimit="2.28659" xmlns:v="https://vecta.io/nano"><style><![CDATA[.B{fill:#668ddb}.C{fill:none}.D{fill:#a52929}.E{stroke-width:6}.F{fill:#fddb81}.G{stroke:#668ddb}.H{fill:#e0755e}]]></style><path d="M1087.39 324.426s259.98-173.482 481.83-19.773m-447.834 128.075c68.27-36.889 253.23-117.749 424.02-22.785" stroke="#ffd274" stroke-width="7" class="C"/><path d="M1564.28 294.949a4.92 4.92 0 0 1 5.9-3.682l9.582 2.218c2.642.611 4.294 3.255 3.682 5.9l-63.358 273.749c-.612 2.644-3.258 4.293-5.9 3.682l-9.582-2.218c-2.65-.613-4.294-3.255-3.682-5.9l63.358-273.749zm-468.799 19.205a4.92 4.92 0 0 0-5.99-3.534l-9.524 2.455c-2.626.677-4.212 3.361-3.535 5.989l70.138 272.091c.678 2.628 3.364 4.211 5.99 3.534l9.524-2.455a4.92 4.92 0 0 0 3.535-5.989l-70.138-272.091z" class="D"/><use xlink:href="#B" fill="#69bac9"/><use xlink:href="#C" fill="#fff"/><use xlink:href="#D"/><use xlink:href="#E"/><g transform="matrix(-1 0 0 1 2672.39 179.726)"><use xlink:href="#B" fill="#69bac9"/><use xlink:href="#C" fill="#fff"/><use xlink:href="#D"/><use xlink:href="#E"/></g><path d="M644.427 1350.646l.575-76.29h6l-.575 77.79c0 .98-.479 1.9-1.285 2.46 0 0-18.64 12.84-23.237 30.76 40.843-19.5 68.183-26.68 105.777-28.14 25.24-.99 50.286 5.28 77.1 15.7l-2.442-98.39 5.998-.18 2.575 102.94c.03 1.01-.452 1.97-1.282 2.55a2.99 2.99 0 0 1-2.834.32c-27.572-11.06-53.112-17.96-78.88-16.95-38.336 1.5-65.759 9.11-108.606 30.07a3 3 0 0 1-4.308-2.94c1.589-19.97 20.306-35.74 25.424-39.7zm755.343 398.684c-3.02-6.63-12.76-20.77-42.08-26.3a2.99 2.99 0 0 1-2.36-2.28l-23.67-103.62 5.79-1.73 23.29 102.12c42.04 8.66 46.19 34.28 46.19 34.28a3.02 3.02 0 0 1-.66 2.45c-.57.68-1.41 1.08-2.3 1.08h-206.31c-1.37 0-2.56-.93-2.91-2.25l-23.23-88.11 5.49-1.65 22.97 86.01h199.79z" fill="#ff7867"/><path d="M644.916 1274.36h167.422V973.547l226.412 149.823 132.77 541.6 165.93-49.57-114.33-622.004-242.249-158.41L780.34 731.658a96.7 96.7 0 0 0-95.129 3.703c-28.864 17.839-46.265 49.503-45.851 83.432l5.556 455.567z" class="B"/><path d="M1080.93 900.419l5.03 3.284-25.42 40.525 13.52 10.783 27-41.43 5.02 3.284-28.8 44.188c-.46.709-1.2 1.189-2.04 1.324a3.02 3.02 0 0 1-2.35-.617l-18.19-14.512c-1.19-.951-1.48-2.647-.67-3.939l26.87-42.842.03-.048zM687.778 738.07a3 3 0 0 0-3.162.261c-34.578 25.726-37.175 55.134-37.175 55.134a3 3 0 0 0 4.38 2.939c.708-.371 1.746-.372 2.975-.3 1.724.1 3.735.472 5.879 1.002 10.687 2.641 24.446 9.175 24.446 9.175a3 3 0 0 0 2.309.109c.754-.273 1.366-.837 1.701-1.565 9.412-20.437 29.849-35.925 29.849-35.925a3 3 0 0 0 .528-4.264c-13.97-17.449-31.73-26.566-31.73-26.566zm-1.117 6.237c-23.423 18.028-30.467 37.588-32.483 45.774 2.25.026 4.991.472 7.936 1.2 8.22 2.031 18.181 6.254 22.878 8.348 8.227-16.025 22.3-28.812 27.93-33.538-10.258-11.963-22.024-19.341-26.261-21.784zm-42.075 503.003l-.073-6h167.825v6h-42.811v27.05h-6v-27.05h-7.468v27.05h-6v-27.05h-69.273v27.05h-6v-27.05h-30.2zm687.904 341.1l1.09 5.93-55.07 15.61 8.31 20.29-5.79 1.69-8.33-20.33-4.59 1.3 7.15 20.71-5.76 1.69-7.17-20.76-57.39 16.27 6.85 21.34-5.76 1.68-6.87-21.38-33.3 9.44-1.43-5.83 168.06-47.65zm-115.38-249.93c-.78.15-1.47.61-1.92 1.27-.44.66-.61 1.47-.46 2.25l9.59 49.16a2.95 2.95 0 0 0 1.28 1.92c.67.45 1.49.61 2.27.45l47.2-9.75c.78-.16 1.47-.62 1.9-1.29.44-.67.59-1.48.43-2.26l-10.22-48.38a3 3 0 0 0-3.5-2.32l-46.57 8.95zm4.09 5.33l8.43 43.23 41.27-8.52-8.98-42.54-40.72 7.83z" fill="#3768be"/><path d="M1197.95 962.951c5.84 33.343 32.9 136.589 118.17 123.469 29.21-4.5 80.85-30.04 77.23-134.716-3.86-112.101-6.08-190.357-17.77-276.628-1.8-13.355-6.5-25.897-12.17-33.336-5.32-6.97-11.7-5.591-9.23 4.341-11.65-13.908-24.49-13.246-20.6-2.85 0 0-15.96-6.532-10.11 9.065 0 0-13.64-3.644-8.73 8.79 4.32 10.927 1.67 49.846-.4 51.941-2.8 2.819-4.15-10.77-14.48-18.868-3.24-2.533-8.86-4.186-8.73 9.498 0 0-8.86 144.41-26.89 237.549l-66.29 21.745z" class="H"/><g class="D"><path d="M1331.92 734.003c-1.5-3.102-3.5-6.059-5.37-8.522-2.81-3.704-6.18-6.783-9.86-9.603-.27-.211-3.84-2.681-3.84-2.681 1.24.708 2.16-1.173 2.29-2.623.44.299 3.55 2.222 3.78 2.401 3.93 3.02 7.53 6.328 10.54 10.294 1.67 2.197 3.41 4.759 4.87 7.475 4.62-5.384 11.35-9.253 18.25-9.958a1.83 1.83 0 0 1 2.01 1.634c.1 1.005-.63 1.903-1.63 2.006-6.54.667-12.89 4.622-16.88 9.972.84 2.028 1.46 4.087 1.73 6.096.17 1.29-.1 4.643-1.22 6.492-.59.958-1.38 1.583-2.29 1.814-.88.224-1.97.125-3.22-.759-1.72-1.213-2.38-3.147-2.29-5.309.1-2.542 1.29-5.408 2.14-7.018a29.19 29.19 0 0 1 .99-1.711zm1.73 4.461c-.56 1.255-1.14 2.906-1.21 4.419-.03.857.06 1.687.74 2.168.06.041.14.082.2.116.1-.155.25-.417.33-.614.46-1.228.57-2.87.47-3.573a17.66 17.66 0 0 0-.53-2.516z"/><path d="M1323.47 652.296l-1.21-4.576s10.6 15.625 13.8 47.868c.14 1.373-.84 2.608-2.21 2.758s-2.65-.836-2.76-2.211c-2.18-26.839-11.02-44.936-11.56-44.322l3.94.483zm10.26-15.382c-1.17 1.592-.92 3.837-.15 6.317l-2.19-.71s13.2 25.927 13.77 51.748c.03 1.38 1.17 2.475 2.55 2.444s2.48-1.175 2.45-2.554c-.68-30.788-16.43-57.245-16.43-57.245zm20.03 3.696c-.2 1.01-.01 2.93.42 5.471-1.57-2.424-3.54-4.254-5.76-5.708 0 0 11.33 35.347 12.34 53.922.08 1.378 1.26 2.435 2.63 2.36 1.38-.075 2.44-1.255 2.36-2.632-.98-17.96-11.99-53.413-11.99-53.413z" fill-opacity=".86"/><path d="M1251.97 945.231l1.26 39.597c.07 2.068 1.74 3.722 3.81 3.766a3.9 3.9 0 0 0 3.96-3.602l3.24-43.786-12.27 4.025z"/></g><path d="M1114.62 703.932l9.39-14.22-1.19-1.578c-9.61-12.766-9.97-30.25-.89-43.397 12.85-18.626 33.66-40.182 58.08-32.836 0 0 38.75 15.051 26.2 52.337l-1.59 6.887s14.3 6.96 1.59 18.587c0 0-10.03 9.007-18.12 3.656l-4.53 46.242s-51.71 10.993-68.94-35.678z" class="H"/><g class="D"><path d="M1124.2 689.586l-2.96 4.641s4.14 3.453 6.87 5.119c7.59 4.646 18.85 8.623 35.03 8.147 1.65-.049 2.96-1.433 2.91-3.088a3.01 3.01 0 0 0-3.09-2.91c-14.64.432-24.85-3.064-31.72-7.268-2.58-1.575-7.04-4.641-7.04-4.641zm80.42-18.324l1.45-6.075s-2.48-.683-3.98-.723c-3.58-.097-8.44 1.165-15.69 6.095-1.37.931-1.72 2.799-.79 4.168s2.8 1.724 4.17.793c5.66-3.855 9.35-5.134 12.15-5.059 1.4.038 2.69.801 2.69.801zm-22.83 25.078l5.57 4.258 1.04-7.172-2.57-1.518c-1.22-1.116-3.12-1.029-4.24.194a3 3 0 0 0 .2 4.238zm-32.484-31.237c-3.046 1.962-5.196 6.046-2.625 9.219 1.633 2.011 4.117 2.802 6.864 2.75 3.423-.064 7.268-1.461 9.612-2.542 1.001-.463 1.431-1.651.974-2.653a2 2 0 0 0-2.651-.977c-1.957.903-5.153 2.122-8.014 2.175-1.448.027-2.818-.213-3.678-1.273-.36-.438-.307-.935-.105-1.386.342-.785 1.053-1.479 1.782-1.954a1.99 1.99 0 0 0 .597-2.763c-.597-.927-1.835-1.194-2.756-.596z"/><path d="M1163.157 674.53c5.802-2.681 5.109-8.167 2.783-10.307-1.615-1.481-4.117-2.112-6.847-2.016-3.599.128-7.584 1.47-9.787 2.896-.93.598-1.194 1.836-.597 2.763s1.835 1.194 2.756.596c1.756-1.129 4.916-2.159 7.768-2.259 1.58-.056 3.072.111 4.003.964.895.825.483 2.697-1.756 3.733a2 2 0 0 0-.983 2.653c.465 1.002 1.65 1.44 2.66.977z"/></g><path d="M1020.15 686.647s33.25-5.466 94.16 20.55l1.95.906-1.56-4.208 1-1.574s-.89-.31-1.39-.523c-63.25-27.037-95.45-21.011-95.45-21.011-1.62.355-2.64 1.957-2.29 3.574a3.01 3.01 0 0 0 3.58 2.286zm163.97 46.889l-.58 6.028 1.07.443c14.53 6.132 55.67 27.667 92.76 86.495l1.93 3.107 1.05-9.777s-.59-.717-1.05-1.417c-38.23-58.246-79.91-78.929-93.71-84.498-.35-.14-1.47-.381-1.47-.381zM987 834.918l18.64-10.589a3 3 0 0 0 .48-4.215c-1.03-1.296-2.72-2.793-4.02-1.762l-19.724 11.304 4.624 5.262z"/><path d="M992.658 770.106l15.892 82.993 7.06 4.533-17.071-88.714c-.328-1.623-1.912-2.675-3.535-2.347a3 3 0 0 0-2.346 3.535zm184.402 118.3l13.17 83.483 10.9 7.117-18.17-91.684a3 3 0 0 0-3.49-2.409c-1.63.3-2.71 1.865-2.41 3.493z"/><path d="M1174.92 961.863l2.57-74.809c10.25 27.825 14.93 59.484 20.17 89.682l-22.74-14.873z"/><path d="M1111.16 452.887c-131.886 86.304-191.605 130.441-297.5 249.339-26.776 29.999-32.834 73.177-15.347 109.385 3.683 7.536 8.27 15.373 14.025 23.375 30.245 42.047 87.82 53.609 131.95 26.499l43.136-26.499-56.277-63.437 210.823-209.571s16.68-10.375 18.02 3.895c0 0 13.82-.492 11.53-21.825 0 0 14.16-10.042 5.91-25.028 0 0 8.43-17.831-5.91-30.08 0 0 .91-17.047-16.95-22.247 0 0-19.74-6.593-39.26 0l-4.15-13.806z" class="H"/><path d="M930.263 770.524l3.979 4.491-33.964 30.778c-1.227 1.112-3.126 1.019-4.238-.208s-1.018-3.126.209-4.238l34.014-30.823zm241.257-225.729c-3.66-6.437-10.68-8.695-17.81-9.253-12.45-.975-25.49 3.32-25.49 3.32-1.58.517-3.27-.341-3.79-1.914a3 3 0 0 1 1.91-3.786s14.25-4.666 27.84-3.602c8.42.659 16.51 3.514 21.39 10.434-1.56 1.757-4.05 4.054-4.05 4.054v.747zm5.49-25.448c-23.49-17.308-54.61-4.076-54.61-4.076a3 3 0 0 1-3.93-1.6 3.01 3.01 0 0 1 1.6-3.929s33.24-13.876 59.1 3.786c-.37 1.703-1.11 4.456-2.16 5.819zm-5.49-30.188c-29.73-12.295-58.83 3.267-58.83 3.267-1.46.78-3.28.227-4.06-1.233a3 3 0 0 1 1.23-4.06s29.57-15.758 60.75-4.74c.34 1.45 1.13 5.027.91 6.766zm-57.85-27.881l1.69 5.782-13.57 5.332a3 3 0 0 1-3.89-1.695c-.61-1.542.15-3.284 1.69-3.889l14.08-5.53zm389.95 98.728c-.36 3.432-1.92 6.629-4.4 9.029-1.9 1.859-4.19 3.035-6.22 1.273-1.39-1.204-3.46-9.266-4.21-12.482 0 0-2.4-7.878 3.19-16.028 0 0-11.08-7.948-.77-19.995 0 0-6.52-13.357 4.83-21.107 0 0-7.73-12.892 11.72-25.47 5.75-3.718 22.92-18.945 54.67 2.128l87.32 58.214-56.4 88.376s-74.96-72.208-81.32-73.372c0 0-7.11-3.894-8.41 9.434z" class="D"/><path d="M1488.51 537.395c4.43-4.643 12.24-11.556 22.5-11.688 6.66-.086 13.7 2.031 21.39 10.259 1.32 1.411 1.73 3.002.32 4.321s-3.63 1.244-4.95-.167c-5.91-6.324-11.56-8.648-16.68-8.583-8.52.11-15.73 6.645-19.06 10.384-2.79-1.914-2.97-2.959-3.52-4.526zm1.14-21.806c.12 2.942.44 3.545 1.67 6.056 0 0 6.52-7.078 12.52-9.475 7.08-2.826 16.72-3.205 29.23 2.855 1.74.842 3.84.113 4.68-1.625s-.13-2.918-1.87-3.759c-14.92-7.224-25.7-5.583-34.14-2.214-4.98 1.99-12.09 8.162-12.09 8.162zm5.03-20.085c.13 3.011.4 2.176 1.24 5.126 0 0 .74-.438 1-.646 7.54-6.001 23.76-15.152 43.49-5.395 1.73.856 3.34.542 4.2-1.189s-.25-2.643-1.98-3.499c-20.77-10.269-37.09-1.94-46.82 4.808-.3.203-1.13.795-1.13.795z"/><path d="M1286.31 811.256s-2.09-128.281 18.64-140.654c0 0 7.17-1.511 8.79 11.797 0 0 25.65-40.854 41.93-47.066 2.55-.974 10.19-2.227 8.29 6.814 0 0 9.77-3.324 11 9.083 0 0 11.14.096 9.43 11.955 0 0 10.8 3.481 4.78 15.677 0 0-25.29 42.862-8.02 136.552l-94.84-4.158z" class="D"/><path d="M1384.43 663.127c.59.093 2.75.805 4.19 3.039-4 3.221-15.73 14.143-32.09 41.501-.71 1.184-2.25 1.571-3.43.862-1.19-.708-1.57-2.244-.86-3.428 15.21-25.428 26.9-37.396 32.19-41.974zm-72.23 12.769c.7 1.709 1.26 4.579 1.57 6.511-4.72 7.641-6.91 16.18-6.91 16.18a2.51 2.51 0 0 1-3.05 1.797 2.51 2.51 0 0 1-1.8-3.044s3.01-11.641 9.5-20.54c.11-.155.55-.784.69-.904zm62.49-24.726c.67-.056 3.38.098 5.5 1.582-5.19 5.091-25.31 25.371-37.26 45.288a2.5 2.5 0 0 1-3.43.858c-1.18-.709-1.57-2.246-.86-3.429 10.99-18.325 28.74-36.958 36.05-44.299zm-10.69-9.253c.88-.232 5.06-.962 6.76.989-7.21 5.417-25.43 21.559-39.5 48.114-.65 1.219-2.16 1.685-3.38 1.039a2.5 2.5 0 0 1-1.04-3.38c12.5-23.594 28.2-39.233 37.16-46.762z"/><path d="M1607.36 664.647s-39.64 137.479-213.39 174.854c0 0 12.89-53.428 86.14-95.132l-1.66-44.547s-23.14 7.219-23.46-14.153c-.1-6.002 6.08-8.521 10.56-10.551 0 0 10.32 20.48 29.33 12.102 7.57-3.339 21.63-22.551 24.32-54.006 0 0 11.31 4.358 12.55-4.726l12.68 31.589a22.75 22.75 0 0 1-6.13 25.614l4.57 14.727s35.25-41.216 64.49-35.771z" class="D"/><path d="M1521.92 668.951c-1.74.78-3.5 1.969-4.6 3.376-1.41 1.805-1.88 3.935-.65 6.205 1.04 1.904 2.86 2.959 4.96 3.306 2.72.451 5.9-.363 7.82-1.65.92-.614 1.17-1.857.55-2.774-.61-.918-1.85-1.165-2.77-.551-1.02.683-2.61 1.132-4.1 1.104-1.19-.023-2.38-.309-2.94-1.345-.37-.674-.13-1.296.29-1.832.72-.933 1.92-1.672 3.07-2.189a2 2 0 0 0 1.01-2.643 2 2 0 0 0-2.64-1.007z"/><path d="M1529.45 680.188c.98-.652 2.4-1.693 3.38-2.984 1.28-1.694 1.86-3.754.7-6.029-.75-1.461-2.18-2.499-4.02-2.983-2.25-.592-5.15-.337-7.59.759-1.01.452-1.46 1.636-1.01 2.644a2 2 0 0 0 2.64 1.006c1.59-.714 3.48-.926 4.94-.54.64.168 1.22.424 1.48.933.35.685.06 1.287-.33 1.797-.69.911-1.72 1.612-2.41 2.072-.92.614-1.17 1.857-.55 2.774.61.918 1.85 1.165 2.77.551zm8.9 5.656l1.31 4.243c-5.96 5.541-16.49 13.105-29.95 13.669-1.1.046-2.04-.811-2.08-1.914-.05-1.103.81-2.036 1.91-2.082 13.47-.565 23.72-8.813 28.81-13.916zm6.95 22.648l-2.43-8.074 3.08-3.165 3.16 10.038c.33 1.053-.25 2.177-1.31 2.508-1.05.332-2.17-.254-2.5-1.307zm-86.26-54.197c-8.56 3.493-18.37 4.449-27.48 3.347-19.71-2.386-37.3-14.503-50.35-28.936-9.46-10.461-16.73-22.877-29.04-30.37-16.84-10.246-35.02-2.963-52.97-.199-30.74 4.733-65.78-1.774-82.33-31.099-4.44-7.85-6.87-16.677-7.26-25.679-.47-10.749 2.36-21.616 7.06-31.228 14.68-30.042 50.65-50.327 83.64-39.346 15.72 5.231 28.73 16.745 38.76 29.637 8.96 11.519 14.75 24.768 21.43 37.635 3.18 6.119 6.72 14.453 13.16 17.838 7.38 3.877 14.47-2.69 19.49-7.445 9.27-8.777 19.83-18.775 33.15-20.214 15.05-1.626 25.35 10.319 32.21 22.115 12.42 21.363 17.15 43.444 18.53 67.246 3.38-2.265 7.36-4.32 12.02-6.087 0 0 33.9-9.15 42.69 16.978 0 0-.63 10.674-12.55 4.726 0 0 1.62 48.086-29.29 55.613-5.19 1.262-15.56 2.216-25.93-12.999 0 0-4.4-9.49-4.94-21.533z"/><path d="M1824.97 1292.87v67.35s164.03-7.45 196.67 20.63c0 0 10.02-15.34-26.43-34v-102.54" class="C E G"/><path d="M1316.88 1738.53l16.7-71.28 5.83 1.39-17.15 73.18c-.28 1.19-1.25 2.09-2.46 2.27 0 0-14.91 2.31-29.42 9.97-8.1 4.27-16.11 10.2-21.17 18.43h206.56l13.47-64.81 5.69 1.18-13.79 67.24a3.01 3.01 0 0 1-2.94 2.39h-213.96c-1.01 0-1.96-.51-2.51-1.37-.56-.85-.64-1.92-.23-2.85 5.23-11.73 15.53-19.96 26.08-25.52 12.15-6.4 24.55-9.28 29.3-10.22z" class="B"/><path d="M1992.21 1242.05V878.447c0-40.643-20.5-78.544-54.52-100.789-34.01-22.245-76.95-25.832-114.18-9.54l-163.27 74.077c-1.51.663-3.29-.029-3.95-1.546s.03-3.287 1.55-3.951l163.26-74.077c39.09-17.104 84.17-13.337 119.88 10.016s57.23 63.142 57.23 105.81v365.863a158.4 158.4 0 0 0 .04 2.32l-2.22.56-170.24 48.57c-.89.25-3.73.97-3.73.97l-.09-3.74-12.16-303.009-148.47 79.139-165.62 637.2c-.2.77-.79 2.54-.79 2.54s-2.1-.19-2.87-.39l-155.37-40.6-3.11-.62c-4.4-4.04 63.88-362.78 87.69-549.77 25.77-202.422 107.73-213.609 108.57-212.566 1.65-.161 3.12 1.046 3.28 2.693s-1.05 3.117-2.7 3.278c0 0-24.24 9.599-44.01 34.278-20.6 25.717-44.24 75.487-56.91 171.527-24.93 189.09-66.27 379.35-88.72 546.04l149.89 39.17 165.19-635.56c.21-.82.76-1.5 1.5-1.9l153.84-82.002c.91-.485 2.01-.469 2.9.045a2.99 2.99 0 0 1 1.51 2.482l12.2 303.975 164.4-46.89z" fill="#f76"/><path d="M1480.37 1697.63l-2.26-3.12c-8.09-12.19-13.55-31.8-13.55-53.96 0-22.17 5.46-41.78 13.55-53.97 6.54-9.84 14.96-15.1 23.68-15.1 8.73 0 17.15 5.26 23.69 15.1l.3.47-5.48 21.18c-1.75-5.36-3.94-10.07-6.48-13.9-3.48-5.23-7.39-8.85-12.03-8.85-4.63 0-8.54 3.62-12.02 8.85-6.92 10.42-11.21 27.27-11.21 46.22 0 18.94 4.29 35.8 11.21 46.21 2.47 3.71 5.15 6.62 8.16 7.99l-1.69 6.56-15.87-3.68zm-127.33-116.39c18.55-9.09 37.07-12.82 50.8-11.39 11.76 1.22 20.33 6.23 24.38 13.96 4.05 7.72 3.3 17.63-2.38 27.99-7.03 12.82-21.87 26.77-41.5 37.06-15.69 8.23-31.55 12.61-44.72 13.26l2.35-14.17c10.75-1.02 23.35-4.92 35.87-11.49 16.78-8.8 29.71-20.43 35.72-31.39 3.02-5.51 4.42-10.66 2.26-14.76-2.15-4.11-7.18-5.89-13.42-6.53-12.44-1.3-29.36 2.73-46.14 11.52-2.1 1.11-4.15 2.26-6.12 3.44l2.9-17.5zm23.67-142.63c2.31-.34 4.75-.49 7.33-.44 14.62.27 33.86 6.93 52.09 19.54 18.23 12.6 31.26 28.25 36.68 41.84 4.34 10.88 3.93 20.74-.93 27.9l-.11.17c-4.96 7.17-14.08 11.1-25.9 10.89-14.62-.28-33.86-6.94-52.09-19.55-10.76-7.43-19.71-15.93-26.35-24.44l3.45-20.77c5.05 11.16 16.08 23.48 30.86 33.7 15.59 10.77 31.89 16.83 44.39 17.06 6.28.11 11.49-1.04 14.12-4.85 2.64-3.82 1.88-9.09-.44-14.93-4.64-11.61-16.06-24.73-31.64-35.5-15.58-10.78-31.89-16.83-44.39-17.06-3.64-.07-6.92.29-9.54 1.34l2.47-14.9zm143.52 52.97c-8.57-1.13-16.21-7.37-21.46-17.85-6.55-13.08-9.58-33.21-6.89-55.21 2.7-22 10.51-40.81 20.02-51.91 7.69-8.98 16.69-13.18 25.35-12.12 8.65 1.06 16.37 7.32 21.67 17.88 6.55 13.08 9.58 33.21 6.88 55.21s-10.5 40.8-20.02 51.91c-7.68 8.97-16.69 13.18-25.34 12.12l-.21-.03zm15.31-123.19c-4.6-.57-8.92 2.55-13.01 7.32-8.13 9.5-14.44 25.71-16.75 44.51-2.31 18.81-.09 36.06 5.51 47.24 2.79 5.57 6.2 9.62 10.74 10.24l.11.01c4.6.56 8.92-2.56 13.01-7.33 8.14-9.49 14.45-25.7 16.75-44.5 2.31-18.81.1-36.06-5.5-47.24-2.81-5.62-6.26-9.69-10.86-10.25zm-138.84-50.22l3.95 1.25c21.03 6.99 37.93 18.36 46.93 29.88 7.28 9.31 9.62 18.96 6.87 27.24s-10.4 14.61-21.81 17.71c-12.48 3.39-29.84 3-48.24-1.98l2.3-13.88c16.12 4.59 31.36 5.32 42.27 2.35 6.06-1.65 10.73-4.22 12.2-8.62 1.46-4.39-.75-9.25-4.62-14.2-7.7-9.85-22.34-19.24-40.31-25.21-.62-.21-1.24-.41-1.86-.6l2.32-13.94zm48.96-6.46c-7.57-4.33-12.26-13.09-13.05-24.88-.97-14.59 4.03-34.33 15.04-53.56 11-19.24 25.48-33.56 38.56-40.11 10.56-5.29 20.49-5.68 28.06-1.35s12.26 13.08 13.05 24.87c.98 14.6-4.03 34.33-15.04 53.57-11 19.24-25.48 33.55-38.56 40.11-10.56 5.29-20.49 5.68-28.06 1.35zm154.04-10.55c-2.58-1.56-5.14-3.53-7.65-5.91-10.97-10.4-21.34-29.03-27.13-51.6s-5.67-43.89-1.07-58.29c3.75-11.73 10.62-19.2 19.07-21.37 8.46-2.17 18.07 1.08 27 9.55 5.96 5.65 11.73 13.72 16.7 23.52l-5.8 22.44c-5.14-15.48-12.54-28.22-20.53-35.8-4.74-4.49-9.41-7.3-13.89-6.15s-7.22 5.86-9.21 12.07c-4 12.5-3.73 30.98 1.29 50.55s13.69 35.9 23.2 44.93c.59.55 1.18 1.09 1.76 1.59l-3.74 14.47zm-92.38-97.2c-4.03-2.3-9.22-1.1-14.84 1.72-11.17 5.6-23.27 18.1-32.68 34.54s-14.05 33.2-13.22 45.68c.42 6.27 2.01 11.36 6.03 13.66 4.03 2.3 9.22 1.1 14.84-1.72 11.17-5.6 23.27-18.1 32.68-34.54s14.05-33.21 13.22-45.68c-.42-6.27-2.01-11.36-6.03-13.66zm316.58 41.19c7.83-3.97 15.4-6.54 22.16-7.59 11.67-1.81 21.24.86 27.13 7.3 5.88 6.43 7.67 16.2 4.82 27.67-.75 3.01-1.82 6.15-3.21 9.37l-18.79 5.59c4.11-6.36 6.99-12.62 8.41-18.34 1.52-6.1 1.56-11.43-1.57-14.85-3.12-3.42-8.44-3.87-14.65-2.9-7.15 1.11-15.3 4.32-23.62 9.32l-.68-15.57zm170.39-98.72l.08 14.78c-9.78 3.84-20.44 10.62-30.41 19.73-13.99 12.78-23.53 27.33-26.55 39.46-1.52 6.09-1.56 11.42 1.57 14.85 3.13 3.42 8.44 3.86 14.64 2.9 12.17-1.89 27.24-9.88 41.06-22.33l.1 18.02c-13.49 10.09-27.44 16.34-39.01 18.14-11.67 1.81-21.24-.85-27.13-7.29-5.88-6.44-7.67-16.21-4.82-27.68 3.54-14.19 14.33-31.45 30.7-46.4 13.04-11.92 27.23-20.19 39.77-24.18zm-178.02-76.76c1.25-1.19 2.61-2.22 4.09-3.08 7.54-4.38 17.47-4.06 28.07 1.16 13.12 6.46 27.7 20.68 38.84 39.84s16.28 38.86 15.4 53.46c-.7 11.8-5.34 20.58-12.88 24.97-7.54 4.38-17.47 4.06-28.07-1.16-13.12-6.47-27.69-20.68-38.83-39.84-1.29-2.22-2.5-4.45-3.63-6.67l-2.99-68.68zm58.67 44.57c-9.49-16.19-21.57-28.45-32.7-33.93-5.63-2.78-10.84-3.94-14.84-1.62-4.01 2.33-5.57 7.43-5.94 13.7-.75 12.48 4.01 29.21 13.53 45.59s21.71 28.79 32.92 34.32c5.64 2.78 10.84 3.94 14.85 1.61 4-2.33 5.56-7.42 5.94-13.69.74-12.48-4.01-29.22-13.54-45.59l-.22-.39zm-436.54-47.4c7.74 4.14 15.65 9.56 23.22 16.18 16.68 14.59 27.85 31.61 31.69 45.73 3.1 11.4 1.53 21.21-4.22 27.77-5.74 6.57-15.25 9.44-26.96 7.88-11.01-1.46-24.25-6.89-37.29-15.81l2.56-15.44c12.63 9.79 25.79 15.94 36.58 17.37 6.22.83 11.52.27 14.58-3.21 3.05-3.49 2.89-8.82 1.24-14.88-3.28-12.07-13.14-26.4-27.4-38.87-5.38-4.7-10.93-8.75-16.43-12.05l2.43-14.67zm101.99 56.62c-20.35-9.6-36.04-23.01-43.78-35.59-6.27-10.19-7.5-20.11-3.78-28s12.16-13.25 24.01-14.9c14.51-2.02 34.64 1.48 54.83 10.91l.48.22c20.35 9.59 36.03 23.01 43.78 35.59 6.26 10.19 7.5 20.11 3.78 28s-12.16 13.25-24.01 14.9c-14.63 2.03-34.96-1.54-55.31-11.13zm453.72-10.08c-.76.81-1.53 1.6-2.3 2.33-8.54 8.17-17.91 11.47-26.42 9.56s-15.57-8.9-19.8-19.93c-5.22-13.66-6.26-33.99-1.4-55.62 4.85-21.63 14.47-39.57 25.04-49.68 7.8-7.466 16.29-10.861 24.18-9.939l.09 14.299a9.65 9.65 0 0 0-.92-.26c-4.52-1.02-9.13 1.67-13.67 6.01-9.03 8.65-16.91 24.15-21.06 42.64-4.15 18.48-3.65 35.87.82 47.54 2.24 5.87 5.26 10.26 9.79 11.28 4.52 1.01 9.13-1.67 13.67-6.01 4.3-4.12 8.34-9.79 11.84-16.6l.14 24.38zm-427.93-44.62c-17.48-8.24-34.86-11.67-47.42-9.92-6.29.87-11.29 2.81-13.27 7-1.97 4.19-.29 9.28 3.04 14.69 6.6 10.72 20.14 21.85 37.42 30.07l.41.2c17.47 8.24 34.85 11.67 47.41 9.92 6.3-.87 11.3-2.81 13.27-7 1.98-4.19.29-9.28-3.04-14.69-6.64-10.8-20.35-22.03-37.82-30.27zm141.18-27.31c-7.44-19.62-9.41-38.71-6.6-52.414 2.37-11.575 8.21-19.615 16.3-22.883 8.08-3.268 17.86-1.54 27.61 5.135 10.05 6.875 20.32 19.201 28.28 34.982l-12.34 6.62c-6.72-13.517-15.27-24.183-23.84-30.05-5.19-3.548-10.17-5.444-14.47-3.707s-6.56 6.563-7.83 12.716c-2.31 11.281-.51 26.811 5.34 42.921l-12.45 6.68zm-200.07-123.335c5.35 3.627 10.69 7.879 15.84 12.712 16.16 15.168 26.73 32.571 30.07 46.811 2.7 11.503.78 21.249-5.19 27.612s-15.57 8.89-27.22 6.92c-14.43-2.43-32.46-11.87-48.63-27.043-3.26-3.067-6.3-6.225-9.1-9.43 2.23-4.896 4.51-9.44 6.82-13.663 3.45 4.378 7.43 8.72 11.87 12.885 13.81 12.966 29.04 21.368 41.37 23.451 6.19 1.046 11.51.675 14.68-2.705s3.21-8.712 1.77-14.826c-2.86-12.172-12.21-26.839-26.02-39.804-5.76-5.4-11.75-10.009-17.69-13.698 3.97-3.736 7.81-6.765 11.43-9.222zm378.32 10.204c14.67-16.329 31.64-27.193 45.68-30.871 11.43-2.995 21.22-1.321 27.73 4.483s9.29 15.341 7.62 27.038c-2.06 14.481-11.04 32.753-25.79 49.297s-31.88 27.554-46.03 31.254c-11.43 3-21.22 1.33-27.73-4.48-6.51-5.803-9.29-15.34-7.62-27.038 2.06-14.48 11.04-32.753 25.79-49.296l.35-.387zm-297.4 8.537c2.72-21.997 10.55-40.79 20.09-51.886 7.69-8.964 16.7-13.155 25.36-12.083 8.65 1.072 16.36 7.335 21.64 17.906 6.54 13.087 9.54 33.222 6.82 55.219-2.73 21.997-10.56 40.79-20.09 51.886-7.7 8.962-16.7 13.152-25.36 12.082-8.65-1.07-16.36-7.33-21.64-17.905-6.54-13.087-9.54-33.223-6.82-55.219zm342.19 32.093c12.61-14.141 20.62-29.581 22.38-41.958.89-6.217.38-11.526-3.08-14.611s-8.79-2.981-14.86-1.389c-12.1 3.168-26.52 12.891-39.13 27.032s-20.62 29.58-22.38 41.958c-.89 6.217-.39 11.525 3.07 14.61 3.47 3.085 8.8 2.982 14.87 1.39 12.1-3.169 26.52-12.891 39.13-27.032zm-282.12-25.099c2.24-18.629.04-35.704-5.5-46.802-2.81-5.619-6.24-9.697-10.85-10.267-4.6-.57-8.92 2.547-13.02 7.311-8.14 9.484-14.48 25.684-16.81 44.485-2.32 18.802-.13 36.057 5.45 47.243 2.81 5.619 6.24 9.697 10.84 10.267s8.93-2.547 13.02-7.311c8.15-9.484 14.48-25.684 16.81-44.485l.06-.441zm104.33-10.994c-17.02-13.858-28.7-30.278-33.06-44.122-3.55-11.27-2.36-21.132 3.12-27.917s14.87-10.028 26.64-8.931c14.56 1.358 33.25 9.435 50.49 23.361 17.25 13.926 29.08 30.496 33.47 44.448 3.55 11.271 2.35 21.133-3.13 27.918s-14.87 10.028-26.63 8.931c-14.57-1.358-33.25-9.435-50.5-23.361l-.4-.327zm38.4-46.718c-14.74-11.903-30.55-19.152-43-20.312-6.25-.584-11.53.181-14.44 3.787-2.92 3.607-2.55 8.927-.67 14.917 3.73 11.833 14.01 25.641 28.56 37.482l.35.279c14.74 11.904 30.55 19.152 43 20.313 6.25.583 11.53-.181 14.44-3.787s2.55-8.927.66-14.917c-3.75-11.926-14.16-25.858-28.9-37.762zm148.51-110.35c17.39 11.034 29.39 25.292 37.52 38.398-1.24 2.757-2.91 5.533-5 8.287-8.84 11.652-25.57 23.261-46.5 30.554s-41.24 8.593-55.41 4.959c-11.45-2.936-19.2-9.157-22.06-17.392-2.87-8.236-.67-17.923 6.47-27.336 8.84-11.653 25.57-23.261 46.5-30.555 13.59-4.736 26.92-6.944 38.48-6.915zm-78.23 60.199c-1.53-4.378.61-9.263 4.4-14.266 7.56-9.96 22.06-19.563 39.95-25.797s35.23-7.724 47.34-4.618c6.08 1.561 10.79 4.061 12.31 8.438 1.53 4.377-.61 9.263-4.4 14.266-7.56 9.96-22.06 19.563-39.95 25.797s-35.22 7.724-47.34 4.618c-6.08-1.561-10.79-4.061-12.31-8.438zm-62.03-60.063c2.97 2.01 5.62 4.119 7.92 6.289 8.57 8.127 12.32 17.327 10.83 25.92s-8.13 15.989-18.94 20.746c-13.39 5.889-33.65 7.91-55.49 4.115-15.07-2.618-28.5-7.59-38.86-13.727l16.16-7.407c7.36 3.198 15.89 5.741 25.1 7.341 18.66 3.243 36.01 1.896 47.45-3.137 5.75-2.529 9.99-5.761 10.78-10.328.8-4.567-2.1-9.041-6.66-13.36-3.6-3.405-8.26-6.578-13.73-9.37l15.44-7.082z" fill="#ff7b6b"/><path d="M1285.73 810.058l102.3 5.255 4.97 20.996s143.5-13.362 214.24-172.457l30.17 6.402-44.18-47.476 55.93-88.264s201.51 149.287 205.56 234.282l.12 2.603c.6 24.737-11.3 48.112-31.67 62.16a73.32 73.32 0 0 1-69.36 7.514l-86.65-35.407s9.25 20.944 7.48 30.909l-149.48 79.747s-31.85-5.122-51.21-34.112c0 0 24.87 100.867-39.16 175.66a69.23 69.23 0 0 1-74.68 20.63c-21.64-7.32-43.26-27.51-52.71-75.78 0 0-25.51-108.251-21.67-192.662z" fill="#ffd274"/><path d="M1413.73 984.377l-.34-3.643c-2.34-20.664-20.32-144.364-20.32-144.364l6.94-.912 20.33 144.49c.27 2.312.4 3.872.41 4.542.01.657-.09 1.09-.15 1.303a3.32 3.32 0 0 1-2.06 2.318 3.38 3.38 0 0 1-2.67.003c-1.51-.62-2.36-2.185-2.14-3.737zm2.55-2.879a3.48 3.48 0 0 1 2.24.137 3.33 3.33 0 0 0-2.24-.137zm221.49-311.294l-11.8-2.169 129.84 134.921c1.34 1.392 3.55 1.434 4.95.095 1.39-1.34 1.43-3.557.09-4.949l-123.08-127.898zm28.49 135.215c-7.49-18.403-17.63-35.232-17.63-35.232-1-1.656-.46-3.808 1.2-4.803a3.5 3.5 0 0 1 4.8 1.195s12.68 21.126 20.46 42.297l-8.83-3.457z" fill="#de735a"/><path d="M902.013 1537.36s22.253-51.52 63.148-60.67c0 0 4.769 31.27-7.364 75.87 0 0 30.956-20.75 48.013-15.2 0 0-.53 30.01-21.4 56.66 0 0-20.344-48.78-80.38-24.38 0 0-.755-28.8-2.017-32.28zm-407.114 136.11s-45.954-28.83-60.966-111.2c0 0 7.601-1.52 23.686 6.03 0 0-21.254-39-11.624-80.46 0 0 34.696 9.82 64.423 52.06 0 0-28.726 70.17-15.519 133.57z" class="B"/><g class="C E"><path d="M494.899 1673.47h510.911s-7.857-146.91-101.78-103.83c-.927-47.21-10.581-102.16-39.743-144.52-12.313-17.88-29.292-32.42-49.371-44.27-47.96-28.33-124.994-29.05-195.856 14.03-63.27 38.46-137.997 145.67-124.161 278.59z" stroke="#0d2e3a"/><path d="M1086.81 1740.9l-94.336.23s5.685-35.19 37.266-37.76c12.09-.98 40.56 9.22 57.07 37.53z" stroke="#0f303c"/><path d="M674.126 1476.69s31.799 80.22 57.276 220.41" class="G"/></g><g class="B"><path d="M691.808 1529.62s-9.137-31.79 10.956-41.78c0 0 11.886 19.17-10.956 41.78z"/><use xlink:href="#F"/><use xlink:href="#F" x="20.742" y="65.303"/><path d="M711.07 1594.93s16.335-20.398 6.65-43.042c-2.136-1.96-20.706 21.743-6.65 43.042z"/></g><path d="M661.987 1439.807l5.336 15.55c.217.634.909.967 1.546.749s.979-.907.761-1.54l-5.317-15.493c2.572-.724 5.335-1.217 8.293-1.429l4.882 14.226c.217.634.91.967 1.547.748s.978-.906.76-1.54l-4.645-13.535c2.338-.03 4.789.111 7.362.455a37.81 37.81 0 0 1 3.469 7.416c5.174 15.077.184 30.48-11.138 34.366s-24.718-5.209-29.892-20.286c-.737-2.147-1.269-4.301-1.602-6.418 1.634-1.956 3.489-3.883 5.584-5.669l4.379 12.76c.217.634.909.967 1.546.749s.979-.907.761-1.54l-4.668-13.601c1.339-1.009 2.76-1.973 4.273-2.851l3.369 9.818c.221.643.913.976 1.55.758s.978-.906.757-1.55l-3.499-10.196c1.45-.73 2.978-1.381 4.585-1.944z" class="F"/><g class="B"><path d="M513.896 1463.87s64.507 88.82 114.808 221.06a3 3 0 0 0 3.87 1.74c1.548-.59 2.326-2.33 1.738-3.87-50.621-133.08-115.561-222.46-115.561-222.46-.973-1.34-2.851-1.64-4.19-.66a3 3 0 0 0-.665 4.19z"/><path d="M574.984 1556.42c.036-1.82-1.487-4.71-1.889-6.55-.987-4.55-1.631-9.25-1.535-13.9.147-7.18 2.383-13.84 6.211-19.89.281-.44 3.248-5.41 4.087-4.93 2.499 1.42 2.93 9.31 3.184 11.6 1.271 11.49-.92 24.19-9.197 32.78"/><use xlink:href="#G"/><path d="M603.192 1617.37c-.106.37-2.561.05-2.887.03-3.134-.26-6.22-.95-9.257-1.74-8.15-2.12-16.81-5.27-23.035-11.17-2.358-2.24-4.384-4.9-6.001-7.71-.184-.32-1.402-2.02-1.052-2.45.764-.95 4.871.44 5.714.64 1.213.3 2.42.64 3.613 1.01 2.215.68 4.405 1.46 6.55 2.34 3.621 1.49 7.149 3.28 10.549 5.22 4.888 2.79 9.785 6.11 13.737 10.15m1.373-1.79c.18-1.44-.501-3.63-.514-5.17-.036-4.15.381-8.3 1.21-12.37.719-3.52 1.716-7 3.093-10.32 1.49-3.6 3.405-7.01 5.76-10.11.252-.33 1.873-2.76 2.513-2.42 1.063.56 1.436 3.8 1.635 4.76a32.78 32.78 0 0 1 .506 3.47c.194 2.05.259 4.1.182 6.16-.321 8.61-2.706 17.49-7.17 24.9-1.217 2.02-3.234 5.67-5.629 6.64"/></g><use xlink:href="#H" class="F"/><g transform="matrix(-1 0 0 1 1457.03 -36.4245)"><g class="B"><path d="M513.896 1463.87s18.044 26.01 42.487 69.03c.511.9 1.745 3.64 1.745 3.64l2.193-9.05-1.27-2.49-40.3-64.66c-.973-1.34-2.851-1.64-4.19-.66a3 3 0 0 0-.665 4.19z"/><path d="M536.885 1495.526c.032-1.672-1.306-4.326-1.659-6.016-.867-4.179-1.432-8.496-1.348-12.767.129-6.595 2.093-12.712 5.454-18.269.247-.404 2.852-4.969 3.589-4.528 2.194 1.304 2.573 8.551 2.796 10.655 1.116 10.554-.808 22.219-8.076 30.108"/><use xlink:href="#G" x="-34.073" y="-59.252"/><path d="M555.018 1524.114c-.091.322-2.205.044-2.485.026-2.698-.226-5.355-.827-7.97-1.514-7.017-1.845-14.472-4.587-19.831-9.721-2.03-1.949-3.774-4.264-5.166-6.71-.158-.278-1.207-1.758-.906-2.132.658-.827 4.194.383 4.919.557a55.26 55.26 0 0 1 3.111.879 65.09 65.09 0 0 1 5.639 2.037c3.117 1.297 6.155 2.855 9.082 4.543 4.208 2.428 8.424 5.318 11.827 8.834m-4.745-9.336c.193-1.213-.537-3.058-.551-4.356-.039-3.496.408-6.993 1.296-10.421.77-2.966 1.838-5.897 3.313-8.694 1.596-3.033 3.647-5.906 6.17-8.517.27-.278 2.006-2.325 2.692-2.039 1.139.472 1.538 3.201 1.751 4.01a22.14 22.14 0 0 1 .542 2.923 31.01 31.01 0 0 1 .195 5.19 37.68 37.68 0 0 1-7.681 20.978c-1.304 1.702-3.464 4.777-6.03 5.594"/></g><use xlink:href="#H" class="F"/></g><path d="M1749.19 1565.99s-26.93-46.71-24.17-78.31c0 0 17.12 4.76 29.94 23.41 0 0-15.23-63.41-5.77-89.33 0 0 27.76 12.76 41.06 43.07 0 0-18.37 54.85-20.17 107.81l-20.89-6.65z" class="B"/><path d="M2181.782 1683.861l-519.622 3s13.997-157.3 107.92-114.22c.927-47.21 10.581-102.16 39.743-144.52 12.313-17.88 28.103-33.51 48.182-45.37 47.96-28.33 126.183-27.95 197.045 15.13 63.27 38.46 140.568 153.06 126.732 285.98z" stroke="#0d2e3a" class="C E"/><path d="M2098.45 1698.439s51.44-87.72 114.41-83.45c0 0 .21 20.58-21.06 48.36 0 0 14.95-10.45 41.22-9.31 0 0-2.79 19.1-28.62 46.96l-105.95-2.56zm42.145-132.593c.328-1.64 2.203-3.945 2.911-5.52 1.743-3.896 3.221-7.991 4.055-12.181 1.289-6.469.683-12.865-1.408-19.014-.154-.448-1.72-5.465-2.534-5.193-2.423.803-4.347 7.8-5.016 9.807-3.354 10.068-3.977 21.875 1.429 31.14" class="B"/><path d="M2187.77 1522.1s-92.48 64.55-129.19 178.9" transform="matrix(1.000001 0 0 1.000001 -.001254 -.001079)" class="C E G"/><path d="M2201.92 1490.366a39.25 39.25 0 0 0-8.628-2.52c-1.731 1.135-3.413 2.424-5.027 3.882-12.869 11.579-16.296 28.784-7.646 38.394 8.649 9.619 26.121 8.02 38.992-3.569a41.36 41.36 0 0 0 5.373-5.844c-.675-2.718-1.577-5.619-2.783-8.536l-8.171 7.399c-.873.791-2.223.72-3.014-.15a2.14 2.14 0 0 1 .15-3.018l9.156-8.289c-.947-1.836-2.03-3.64-3.268-5.376l-12.293 11.132a2.14 2.14 0 0 1-3.015-.15 2.14 2.14 0 0 1 .151-3.018l12.495-11.313c-2.337-2.633-5.109-5.013-8.395-6.953l-9.106 8.249c-.873.791-2.223.72-3.014-.15a2.14 2.14 0 0 1 .15-3.018l7.894-7.153z" class="F"/><g class="B"><path d="M2144.135 1564.01c.293.484 1.966.698 2.564.809 2.474.492 5.018.682 7.533.835 7.973.471 16.308.285 23.772-2.867a38.83 38.83 0 0 0 4.533-2.26c.948-.56 5.096-2.741 5.228-4.135.088-.933-2.542-1.449-3.056-1.593-3.525-.948-7.25-1.101-10.882-.998-3.434.106-6.848.574-10.216 1.227-5.279 1.021-10.46 2.955-15.03 5.801m-46.288 53.711c.02.334 2.144.515 2.422.559 2.684.358 5.408.341 8.109.231 7.249-.297 15.119-1.375 21.455-5.241 2.401-1.469 4.601-3.356 6.486-5.446.214-.238 1.556-1.458 1.342-1.888-.465-.949-4.178-.526-4.924-.511-1.076.031-2.154.097-3.227.191a65.09 65.09 0 0 0-5.945.779c-3.323.598-6.624 1.468-9.845 2.489-4.631 1.469-9.369 3.387-13.446 6.091"/><path d="M2106.494 1604.575c.072-1.226 1.18-2.872 1.472-4.136.788-3.407 1.101-6.917.97-10.457-.116-3.062-.53-6.154-1.371-9.203-.908-3.305-2.296-6.551-4.199-9.643-.204-.329-1.461-2.702-2.192-2.569-1.213.217-2.189 2.797-2.571 3.541-.454.892-.832 1.81-1.157 2.739a31.01 31.01 0 0 0-1.304 5.027 37.68 37.68 0 0 0 3.002 22.137c.908 1.942 2.359 5.409 4.689 6.757m-411.555-65.479s-16.158-28.862 1.122-43.178c0 0 15.951 15.948-1.122 43.178zm.512 3.182s-25.609 5.203-41.321-13.762c-.767-2.796 28.804-8.476 41.321 13.762z"/><use xlink:href="#F" x="1036.873" y="83.668"/><path d="M1731.824 1616.812s16.335-20.398 6.65-43.042c-2.136-1.96-20.706 21.743-6.65 43.042z"/></g><path d="M1651.46 1496.87s82.6 72.43 103.5 204.3" class="C E G"/><path d="M1627.606 1475.817l11.854 11.391c.483.464 1.251.445 1.717-.041s.456-1.254-.027-1.718l-11.811-11.35c1.957-1.82 4.188-3.521 6.723-5.062l10.844 10.421c.483.464 1.251.444 1.718-.041s.455-1.253-.028-1.717l-10.318-9.915c2.065-1.096 4.311-2.09 6.756-2.961a37.81 37.81 0 0 1 6.475 5.01c11.493 11.045 14.096 27.026 5.802 35.657s-24.366 6.665-35.859-4.379c-1.637-1.573-3.094-3.246-4.358-4.976.559-2.487 1.328-5.048 2.375-7.595l9.727 9.347c.483.464 1.251.445 1.717-.041s.456-1.254-.027-1.718l-10.368-9.964c.73-1.51 1.553-3.016 2.497-4.489l7.484 7.192c.49.471 1.259.451 1.725-.034s.455-1.253-.035-1.724l-7.773-7.469c.956-1.313 2.017-2.59 3.19-3.825z" class="F"/><path d="M913.354 476.19l14.056-15.752 23.521 34.93-14.572 11.741-23.005-30.919zm36.712-48.828l23.425 32.038 14.152-10.414-22.978-37.295-14.599 15.671zm750.784-41.315l39.25-33.27 9.09 18.459-39.21 28.448-9.13-13.637zm-45.31-25.142l22.09-41.841 15.49 13.822-22.51 32.85-15.07-4.831z" fill="#fd4c3d"/><defs ><path id="B" d="M806.579 361.364s10.419-20.349 26.081-10.917l9.687-6.882c.25-.178.586-.176.835.005s.354.5.262.793l-3.279 10.458s14.02 35.384-7.468 61.216c-6.205 7.46-43.563 45.116-78.967 6.336-1.842-2.021-2.68-4.761-2.285-7.466.752-5.247 2.908-14.012 8.924-19.127l11.644 6.751c-4.441-4.885-8.652-9.949-11.644-15.953 0 0-8.479-34.352 15.68-58.623.443-.44 1.068-.644 1.685-.548a1.96 1.96 0 0 1 1.44 1.033c3.79 7.334 16.08 29.525 27.405 32.924z"/><path id="C" d="M759.554 362.497c2.846 5.974 9.493 18.32 18.74 25.436a2 2 0 0 1 .365 2.805c-.673.874-1.93 1.038-2.805.365-7.316-5.631-13.178-14.509-16.895-21.153.076-2.647.306-5.057.595-7.453zm4.119-15.984c1.378 3.642 8.59 21.654 19.849 31.336a2 2 0 0 1 .213 2.82c-.72.837-1.984.932-2.821.213-9.324-8.018-16.05-21.434-19.216-28.675.589-2.038 1.252-3.934 1.975-5.694zm7.698-13.18a2 2 0 0 1 .112.273s6.889 21.157 19.613 32.433a2 2 0 1 1-2.653 2.994c-10.699-9.482-17.531-25.559-19.864-31.699a62.72 62.72 0 0 1 2.792-4.001z"/><path id="D" d="M806.579 361.364l2.178-3.466s4.207 2.557 7.777 3.072a2 2 0 1 1-.571 3.959c-3.897-.562-9.384-3.565-9.384-3.565z"/><path id="E" d="M761.548 396.464s10.356 15.425 26.384 18.682c1.082.219 2.188.122 2.695-.858s.198-2.375-.858-2.696c-12.656-3.845-17.886-9.204-17.886-9.204l-10.335-5.924z"/><path id="F" d="M689.735 1529.62s-25.748-4.468-33.486-27.849c.302-2.883 29.914 2.581 33.486 27.849z"/><path id="G" d="M573.172 1554.5c-.39.41-2.07.26-2.678.24-2.522-.05-5.048-.41-7.537-.8-7.889-1.25-15.989-3.22-22.604-7.9-1.38-.98-2.703-2.03-3.943-3.18-.806-.75-4.389-3.77-4.219-5.16.114-.93 2.794-.87 3.327-.9 3.646-.17 7.317.48 10.843 1.36 3.331.84 6.565 2.03 9.715 3.39 4.937 2.13 9.583 5.13 13.436 8.89"/><path id="H" d="M504.563 1421.36a39.25 39.25 0 0 1 8.968-.61c1.447 1.48 2.814 3.1 4.077 4.87 10.086 14.07 9.742 31.61-.768 39.14-10.511 7.54-27.233 2.23-37.319-11.85a41.36 41.36 0 0 1-3.994-6.86c1.242-2.51 2.746-5.15 4.549-7.74l6.394 8.98c.683.96 2.017 1.18 2.976.5a2.14 2.14 0 0 0 .501-2.98l-7.165-10.06c1.319-1.59 2.764-3.12 4.345-4.55l9.619 13.51a2.14 2.14 0 0 0 2.977.5 2.14 2.14 0 0 0 .5-2.98l-9.777-13.73c2.847-2.07 6.065-3.8 9.691-4.99l7.125 10.01c.683.96 2.017 1.18 2.976.5a2.14 2.14 0 0 0 .501-2.98l-6.176-8.68z"/></defs></svg>