<svg xmlns="http://www.w3.org/2000/svg" xmlns:xlink="http://www.w3.org/1999/xlink" viewBox="0 0 2732 2048" fill-rule="evenodd" stroke-linejoin="round" stroke-miterlimit="2" xmlns:v="https://vecta.io/nano"><path d="M649.238 1696.9l583.682-2.78s-6.42-36.66-67.58-30.67c-19.81 1.94-30.63-14.58-50.48-38.32-17.93-21.43-68.38-80.33-152.478-27.72-14.541 9.09-48.924 19.11-75.055 1.79-18.863-12.51-81.34-72.48-129.019 1.5-9.402 14.59-24.503 40.44-51.888 48.48-24.09 7.08-62.502 12.88-57.182 47.72zm1112.422-19.71l472.6-.65s-24.88-64.79-85.03-50.2c-19.54 4.75-38.27 18.04-66.13-28.21-9.41-15.61-68.61-60.6-123.1-25.25-27.67 17.95-57.62 68.79-101.94 57.45-42.61-10.89-90.73 11.79-96.4 46.86z" fill="#a8c1f2"/><path d="M1230.57 402.99l7.7-10.949 20.84 17.708-5.33 9.109-23.21-15.868zm23.21-26.665l16.95 19.396 8.71-5.299-15.81-26.376-9.85 12.279zm25.66-19.458l12.28 25.7h10.4l-7.72-32.197-14.96 6.497zm242.7 19.816l8.83 5.884 18.98-25.449-10.89-8.487-16.92 28.052zm21.33 14.552l6.48 9.843 29.65-16.344-9.66-15.89-26.47 22.391zm12.99 29.601l-1.76-9.698 30.52-5.391v15.089h-28.76z" fill="#69bac9"/><path d="M1034.77 502.099l10.1-16.967a3 3 0 0 1 4.11-1.043 3 3 0 0 1 1.04 4.112l-12.62 21.205c-.54.9-1.5 1.456-2.55 1.466a3.01 3.01 0 0 1-2.58-1.417l-13.17-21.205a2.99 2.99 0 0 1 .96-4.131 3 3 0 0 1 4.13.965l10.58 17.015zm73.064 37.994l10.25-16.175c.89-1.399 2.74-1.814 4.14-.928s1.81 2.742.93 4.14l-12.76 20.13a3.01 3.01 0 0 1-5.06.024l-13.03-20.129a3 3 0 0 1 .88-4.149c1.39-.9 3.25-.503 4.15.887l10.5 16.2zm688.9 28.391l9.95-16.74c.84-1.424 2.68-1.893 4.11-1.047a3 3 0 0 1 1.04 4.111l-12.43 20.926c-.53.895-1.49 1.451-2.53 1.467a3.01 3.01 0 0 1-2.58-1.384l-13.36-20.926a2.99 2.99 0 0 1 .91-4.143 3 3 0 0 1 4.14.913l10.75 16.823zm211.815 261.918l8.073-12.588c.895-1.394 2.751-1.8 4.139-.907a3 3 0 0 1 .912 4.145l-10.595 16.528a3 3 0 0 1-2.53 1.381c-1.018 0-1.971-.521-2.521-1.381l-10.595-16.528c-.895-1.394-.485-3.251.903-4.145 1.396-.894 3.252-.487 4.147.907l8.065 12.588z" fill="#a8c1f2"/><path d="M1521.321 1776.293l7.935-89 8.043.52-10.271 91.77c-.153 1.54-1.447 2.71-2.983 2.71h-169.276c-.818 0-1.6-.34-2.166-.92-.566-.6-.863-1.39-.827-2.21 0 0 .341-9.29 7.333-17.33 4.206-4.84 10.829-9.29 21.352-10.81l-.908-64.43s3.99-2.63 5.643-2.59c1.662.04 2.966 1.42 2.93 3.08l-1.734 66.69a3.01 3.01 0 0 1-2.732 2.91c-10.038.92-16.238 4.74-20.022 9.09-3.253 3.73-4.709 7.8-5.356 10.52h163.04zm335.251-31.657c10.523 1.52 17.146 5.97 21.352 10.81 6.991 8.04 7.333 17.33 7.333 17.33.036.82-.261 1.61-.827 2.21-.566.58-1.348.92-2.166.92h-169.276c-1.537 0-2.831-1.17-2.983-2.71l-14.522-85.58 5.868-.07 14.36 82.36h163.04c-.647-2.72-2.103-6.79-5.356-10.52-3.783-4.35-9.984-8.17-20.022-9.09a3.01 3.01 0 0 1-2.732-2.91l-1.734-66.69c-.036-1.66 1.267-3.04 2.93-3.08a3 3 0 0 1 3.073 2.92l1.662 64.1z" fill="#69bac9"/><g fill="#ffd274"><path d="M1503.803 813.809c1.05-29.532 11.38-44.312 23.23-51.506 18.76-11.391 42.03-3.737 42.03-3.737 1.57.521 2.43 2.22 1.91 3.791s-2.22 2.425-3.8 1.904c0 0-20.51-6.862-37.03 3.171-11.16 6.779-20.2 21.277-20.42 50.314-.01.961-.48 1.861-1.26 2.419-.79.558-1.79.708-2.7.403-13.71-4.595-31.48-.205-47.95 10.746-39.5 26.27-71.13 90.516-24.05 166.644a3 3 0 0 1-5.1 3.16c-49.4-79.895-15.62-147.231 25.83-174.8 16.72-11.117 34.73-15.743 49.31-12.509zm450.033 341.903l147.107-34.457 39.376 179.528-146.126 40.64-40.357-185.712z"/><path d="M2023.171 1219.53l-199.283 44.942 6.481 28.738 199.283-44.942z"/></g><g transform="matrix(-.730426 .379838 -.379838 -.730426 3086.25 1830.66)" fill="#fff"><use xlink:href="#B"/><use xlink:href="#C"/><use xlink:href="#D"/><use xlink:href="#E"/></g><g transform="matrix(-1 0 0 1 2817.09 7.22012)"><path d="M944.96 1244.92s-17.59 9.19-24.75 8.96c0 0 12.61 22.79 3.24 27.84 0 0-17.93-4.94-22.4-19.69 0 0-1.35-21.54 4.62-34.75l39.29 17.64z" fill="#fff"/><g fill="#ef7b58"><path d="M909.091 1276.357c-.654 1.218-1.397 2.728-.223 4.324 1.059 1.439 3.085 1.749 4.522.692 1.338-.984 3.212-.694 4.193.64s.7 3.209-.637 4.193a9.24 9.24 0 0 1-12.908-1.971c-2.908-3.953-1.857-7.697-.225-10.726.783-1.456 2.598-1.998 4.059-1.216s2.001 2.607 1.219 4.064zm16.943-5.033c1.517-1.116 2.508-3.062 1.506-4.65-.71-1.115-1.307-1.683-1.915-1.456-1.551.582-3.279-.206-3.864-1.754-.576-1.554.212-3.286 1.763-3.867 2.506-.939 6.194-.722 9.096 3.881 2.665 4.243 1.01 9.706-3.03 12.678-1.338.984-3.212.694-4.193-.64s-.7-3.209.637-4.193z"/><path d="M922.854 1283.756c-.449 1.026-.358 2.26.354 3.228 1.059 1.439 3.085 1.749 4.522.692l13.584-9.994c1.437-1.057 1.744-3.084.686-4.523s-3.085-1.749-4.522-.692l-6.186 4.551c-1.338.984-3.221.701-4.202-.633s-.691-3.216.646-4.2l6.186-4.551a9.24 9.24 0 0 1 12.908 1.971 9.24 9.24 0 0 1-1.96 12.91l-13.584 9.994a9.24 9.24 0 0 1-12.908-1.971c-2.029-2.758-2.303-6.271-1.012-9.201.66-1.51 2.435-2.202 3.95-1.534a3 3 0 0 1 1.538 3.953z"/><path d="M956.34 1279.462c-1.059-1.439-3.085-1.749-4.522-.692l-13.584 9.994c-1.437 1.057-1.744 3.084-.686 4.523.981 1.334.691 3.216-.637 4.193-1.338.984-3.212.694-4.193-.64a9.24 9.24 0 0 1 1.96-12.91l13.584-9.994a9.24 9.24 0 0 1 12.908 1.971c.981 1.334.7 3.209-.637 4.193-1.329.978-3.212.694-4.193-.64z"/><path d="M937.548 1293.286c1.059 1.439 3.085 1.749 4.522.692l13.584-9.994a3.24 3.24 0 0 0 .686-4.523c-.981-1.334-.691-3.216.637-4.193 1.338-.984 3.212-.694 4.193.64a9.24 9.24 0 0 1-1.96 12.91l-13.584 9.994a9.24 9.24 0 0 1-12.908-1.971c-.981-1.334-.7-3.209.637-4.193 1.329-.978 3.212-.694 4.193.64zm32.758-5.707l-.008.007-14.334 10.545c-1.058.779-2.558.553-3.34-.509-.981-1.333-2.862-1.619-4.191-.641-1.338.984-1.626 2.865-.645 4.199a8.4 8.4 0 0 0 11.731 1.783l14.334-10.545c1.758-1.293 2.495-2.527 2.749-3.61.366-1.573-.177-3.428-2.296-5.796a2.99 2.99 0 0 0-4.232-.238c-1.236 1.105-1.337 3.001-.238 4.238l.47.565z"/><path d="M961.712 1287.404c.889-.641 2.542-1.253 4.253-1.42 1.395-.137 2.913-.053 3.872 1.03a3.01 3.01 0 0 0 4.241.231 3 3 0 0 0 .229-4.232c-1.856-2.083-4.441-2.995-7.138-3.071-3.549-.097-7.236 1.322-9.047 2.654l-.103.079-8.51 6.827c-3.671 2.76-4.446 7.973-1.72 11.678.981 1.333 2.862 1.619 4.2.634 1.329-.978 1.617-2.859.636-4.192-.781-1.062-.55-2.561.508-3.34.035-.026.069-.052.103-.079l8.476-6.8zm-11.805-43.734c2.213-2.66 3.603-5.8 3.691-9.43.069-2.84-1.317-5.49-3.437-7.22-2.172-1.77-5.064-2.54-7.798-1.77-2.212.62-4.437 2.26-5.955 5.57-1.318 2.87-1.155 6.06.625 9.25.737 1.32 1.787 2.67 3.149 3.98-.582.34-1.179.66-1.784.98-8.26 4.22-18.49 5.52-18.49 5.52a3 3 0 0 0-2.598 3.35c.209 1.64 1.712 2.81 3.355 2.6 0 0 11.322-1.45 20.468-6.13 1.443-.74 2.826-1.56 4.111-2.47 1.736 1.06 3.71 2.07 5.921 3 1.527.64 3.286-.09 3.925-1.61.639-1.53-.082-3.29-1.61-3.93-1.286-.54-2.478-1.1-3.573-1.69zm-4.947-3.34c-.7-.62-1.306-1.25-1.813-1.89-1.405-1.77-2.019-3.52-1.287-5.12.585-1.27 1.285-2.06 2.137-2.3.84-.24 1.703.1 2.37.65.721.59 1.257 1.46 1.233 2.42-.06 2.45-1.073 4.5-2.64 6.24z"/><path d="M1065.084 951.061l-92.938 330c-.447 1.574-2.106 2.498-3.699 2.054a2.99 2.99 0 0 1-2.075-3.696l92.72-330.103 5.993 1.745zM924.807 1273.9c-.14 3.55-1.012 5.21-2.223 5.82-.633.31-1.373.31-2.014 0-5.678-2.73-9.944-6.25-13.099-9.63-4.939-5.33-6.837-12.81-5.041-19.85l82.539-320.496-5.814-1.482-82.539 320.488c-2.298 9.02.13 18.59 6.461 25.43 3.596 3.85 8.443 7.85 14.888 10.94 2.293 1.11 4.968 1.11 7.278-.02 2.44-1.22 5.331-4.02 5.566-11.15.003-.08.003-.16-.001-.24 0 0-.291-8.69-9.812-24.54-.853-1.42-2.698-1.88-4.117-1.03-1.419.86-1.879 2.7-1.026 4.12 7.933 13.21 8.867 20.74 8.954 21.64z"/></g></g><path d="M1661.89 710.287l-76.54-64.115-74.34 86.691 69.85 49.693s-17.41 47.065 26.09 96.948l90.63 55.017s36.6-11.895 40.06-23.198l6.99 48.88 93.51-24.746-28.59-105.757c-6.01-22.219-19.1-41.873-37.29-55.981l-37.5-29.088s-34.36 34.69-63.7 16.079c-8.36-5.3-29.04-27.361-9.17-50.423z" fill="#6d92dd"/><g fill="#426fc0"><path d="M1622.542 773.738c15.237 0 27.61 12.372 27.61 27.61s-12.373 27.61-27.61 27.61a7 7 0 0 0-6.993 7c0 3.862 3.134 7 6.993 7 22.971 0 41.611-18.645 41.611-41.611s-18.64-41.611-41.611-41.611c-3.86 0-6.993 3.138-6.993 7a7 7 0 0 0 6.993 7z"/><path d="M1622.542 828.959c-15.237 0-27.61-12.372-27.61-27.61s12.373-27.61 27.61-27.61c3.86 0 7.007-3.136 7.007-7s-3.147-7-7.007-7c-22.957 0-41.611 18.645-41.611 41.611s18.653 41.611 41.611 41.611c3.86 0 7.007-3.138 7.007-7s-3.147-7-7.007-7zm23.308 66.153c1.79-21.319 19.68-38.089 41.46-38.089 22.97 0 41.61 18.644 41.61 41.61 0 10.803-4.12 20.649-10.88 28.051-4.01 2.068-8.21 3.733-12.59 5.006l-11.01-6.377c11.79-3.144 20.48-13.904 20.48-26.68 0-15.239-12.37-27.61-27.61-27.61-15.23 0-27.61 12.371-27.61 27.61a27.39 27.39 0 0 0 .75 6.38c-7.24-4.498-12.92-8.249-14.6-9.901zm166.04-56.618l3.78 14.173c-.99-.108-1.15-1.002-2.16-1.002-15.24 0-27.62 12.371-27.62 27.61s12.38 27.61 27.62 27.61c6.5 0 10.29-1.731 15.01-5.498l4.38 14.31c-6.23 3.724-11.61 5.188-19.39 5.188-22.97 0-41.62-18.645-41.62-41.61 0-22.6 17.54-40.201 40-40.781zm-75.47-92.706c5.07 3.57 10.46 7.749 16.07 12.349a27.7 27.7 0 0 0-3.64-.24c-15.24 0-27.61 12.372-27.61 27.61s12.37 27.611 27.61 27.611 27.61-12.372 27.61-27.611c0-2.618-.37-5.151-1.05-7.551l14.65 13.306c-2.8 20.246-20.2 35.856-41.21 35.856-22.97 0-41.61-18.645-41.61-41.611 0-10.515 3.91-20.125 10.35-27.456 6.22-3.872 11.35-7.915 14.34-10.567 1.46-.648 2.95-1.216 4.49-1.696zm-187.75-56.127c6.02 7.219 9.65 16.503 9.65 26.626 0 14.953-10.11 27.275-21.96 34.61l-12.36-8.793c10.79-3.757 20.32-13.756 20.32-25.817 0-5.906-1.86-11.382-5.03-15.872l9.38-10.754zm49.77-32.522l10.95 9.172c-6.93 5.018-11.44 13.173-11.44 22.372 0 15.239 12.38 27.61 27.62 27.61 10.93 0 20.39-6.372 24.86-15.603l10.95 9.173v.001c-.83 1.15-1.58 2.289-2.26 3.421-7.58 10.312-19.79 17.008-33.55 17.008-22.97 0-41.62-18.645-41.62-41.61 0-12.606 5.62-23.909 14.49-31.544zm-17.47 125.159c3.22-7.487 6.98-14.608 12.57-22.996a2.99 2.99 0 0 0-.19-3.559 3 3 0 0 0-3.46-.854l-30.36 12.653 21.44 14.756z"/><path d="M1599.445 870.135l95.78 54.889s52.98 14.549 100.05 229.479c24.59 112.24 47.56 279.11 60.54 527.09l-160.59 6.38-91.11-500.55-66.94 500.55-157.79-1.43s-93.94-840.507 220.06-816.408z"/></g><path d="M1572.58 1089.97c-.23-1.79.96-3.44 2.73-3.78s3.49.76 3.93 2.5l24.88 98.73-10.43 63.99-21.11-161.44z"/><g fill="#ef7b58"><path d="M1674.54 627.391l-14.13 41.306a21.09 21.09 0 0 0 4.91 21.575c.69.702 1.43 1.364 2.23 1.968 8.73 6.609 23.26 8.969 35.59 6.374 1.24-.261 2.04-1.482 1.77-2.724-.26-1.243-1.48-2.039-2.72-1.777-11.03 2.321-24.05.371-31.86-5.541-.62-.467-1.19-.98-1.73-1.523-4.36-4.444-5.85-10.97-3.83-16.864l14.12-41.305c.41-1.201-.23-2.51-1.43-2.921a2.3 2.3 0 0 0-2.92 1.432z"/><path d="M1671.35 692.244l-7.59 19.755c-.46 1.185.13 2.517 1.32 2.973a2.3 2.3 0 0 0 2.97-1.322l7.59-19.756c.46-1.185-.13-2.516-1.32-2.972-1.18-.455-2.51.137-2.97 1.322zm59.63-16.745l-14.55 56.005a2.3 2.3 0 0 0 1.65 2.805 2.3 2.3 0 0 0 2.8-1.648l14.55-56.005c.32-1.229-.41-2.485-1.64-2.805s-2.49.419-2.81 1.648z"/><path d="M1729.91 677.746s4.95.278 9.54-1.112c3.1-.94 5.99-2.656 7.51-5.426 1.04-1.91 1.49-4.343.82-7.458-.59-2.697-3.66-7.236-8.7-7.912-3.1-.414-7.06.562-11.6 4.832-.93.869-.97 2.326-.1 3.251a2.3 2.3 0 0 0 3.25.1c3.12-2.934 5.71-3.908 7.84-3.623 2.77.372 4.49 2.841 4.81 4.326.39 1.781.24 3.183-.36 4.275-.95 1.732-2.87 2.645-4.81 3.233-3.82 1.157-7.94.921-7.94.921-1.27-.071-2.36.899-2.43 2.167s.9 2.354 2.17 2.426zm-13.05 56.196l14.32 13.994 3.58-3.283-14.6-14.191c-.96-.912-2.07-.963-2.99-.003-.91.96-1.27 2.571-.31 3.483z"/></g><g fill="#ffd274"><path d="M1708.2 637.465c-18.57 4.975-33.1-7.927-33.1-7.927-.95-.843-1.04-2.298-.19-3.247.84-.949 2.29-1.035 3.24-.192 0 0 14.17 12.59 31.67 6.02.75-.281 1.59-.153 2.22.34s.96 1.279.87 2.074c0 0-1.2 3.96.35 8.28 4.6 12.829 18.37 14.76 18.37 14.76-2.59 1.597-4.41 3.108-4.71 4.451 0 0-5.91-.068-10.72-4.216-4.48-3.87-6.64-9.345-7.47-14.223a37.6 37.6 0 0 1-.53-6.12z"/><path d="M1673.89 626.582a25.15 25.15 0 0 1 30.03-13.748c14.93 4.389 33.64 14.01 40.68 34.476 8.11.482 36.39 3.733 51.77 25.611 7.33 10.426 11.82 25.089 9.66 45.767 14.92.262 73.12 4.893 97.74 60.05 5.48 12.289 15.11 49.823-12.13 93.041 10.58 6.412 47.43 31.592 52.63 74.109 2.6 21.246-2.63 46.877-23.19 76.652-10.85 15.72-28.15 26.4-48.41 31.85-1.6.44-3.25-.51-3.68-2.11s.52-3.25 2.12-3.68c18.82-5.06 34.96-14.87 45.03-29.47 19.47-28.192 24.64-52.396 22.18-72.514-5.73-46.782-52.31-71.161-52.31-71.161a3 3 0 0 1-1.1-4.313c27.62-41.692 18.64-78.164 13.38-89.959-26.73-59.874-95.49-56.482-95.49-56.482-.89.043-1.76-.312-2.36-.969s-.88-1.547-.76-2.431c2.78-20.526-1.16-34.898-8.22-44.93-16.4-23.336-49.07-23.147-49.07-23.147a2.99 2.99 0 0 1-2.88-2.15c-5.8-19.616-23.46-28.421-37.28-32.485-9.17-2.709-18.93 1.758-22.87 10.467l-5.47-2.474zm0 0zm103.32 420.178l-13.57-7.73 2.89 7.65 12.36 6.52-1.68-6.44z"/></g><g fill="#fc5344"><path d="M1587.94 869.634l3.07-12.611 127.03 69.661-12.57 5.006-117.53-62.056z"/><ellipse cx="1639.91" cy="918.229" rx="17.245" ry="15.014" transform="matrix(1.08882 .037451 -.041349 1.20215 -105.01 -271.032)"/></g><g fill="#ef7b58"><path d="M1525.35 716.623l-52.48-56.211c-12.61-13.489-18.89-31.697-17.28-50.088l17.57-201.113a2.7 2.7 0 0 0-2.45-2.92 2.7 2.7 0 0 0-2.92 2.451l-17.57 201.113a70.45 70.45 0 0 0 18.71 54.237l52.48 56.211 3.94-3.68zm-15.71-282.401c-1.22-1.076-1.97-2.044-2.43-2.855-.06-.097-.11-.198-.15-.301-1.12-2.687-.17-5.788 2.31-7.416 5.58-3.537 12.66-3.915 18.63-3.268a14.81 14.81 0 0 1 13.11 14.882l-1.93 169.385 46.13 41.697-3.61 3.999-47.04-42.511c-.57-.518-.9-1.258-.89-2.031l1.95-170.601a9.41 9.41 0 0 0-8.32-9.464c-4.83-.523-10.61-.407-15.11 2.439-.24.156-.35.438-.29.707 1.27 2.007 4.98 4.664 14.61 7.892 1.34.449 2.1 1.858 1.75 3.227a2.69 2.69 0 0 1-3.09 1.98l-13.9-2.533c-2.26 1.365-8.78 5.548-13.87 11.236l-.92 1.062c2.35 3.065 3.66 6.435 3.88 9.007.59 6.581-1.57 9.848-3.81 11.169-1.72 1.019-3.72 1.114-5.55.469-2.51-.884-4.65-3.205-5.07-6.029-.74-4.981.85-9.828 3.59-14.184a14.42 14.42 0 0 0-7.95-3.071 2.7 2.7 0 0 1-2.5-2.88c.11-1.484 1.4-2.603 2.88-2.497 4.32.309 7.91 1.933 10.74 4.157l.69-.796c6.85-7.658 16.07-12.826 16.07-12.826l.09-.045zm-16.29 22.167c-1.59 2.873-2.47 5.967-1.99 9.178.1.69.59 1.252 1.17 1.578.43.244.94.395 1.38.139.39-.231.65-.697.87-1.341.38-1.138.49-2.684.32-4.713-.13-1.41-.72-3.137-1.75-4.841z"/><path d="M1477.176 400.488c-4.835-.251-9.267 4.035-9.57 9.865l-.885 17.043c-.303 5.832 3.662 10.554 8.496 10.805a2.69 2.69 0 1 0 .28-5.383c-2.167-.113-3.525-2.529-3.389-5.142l.885-17.043c.136-2.612 1.737-4.875 3.904-4.762a2.69 2.69 0 1 0 .28-5.383z"/><path d="M1475.217 438.202c4.835.251 9.257-4.035 9.56-9.867l.885-17.043c.303-5.83-3.652-10.552-8.486-10.803a2.69 2.69 0 1 0-.28 5.383c2.167.113 3.525 2.529 3.389 5.141l-.885 17.043c-.136 2.613-1.737 4.876-3.904 4.763a2.69 2.69 0 1 0-.28 5.383z"/><path d="M1490.31 400.058c-4.947-.257-9.445 4.07-9.75 9.931l-.894 17.211c-.305 5.862 3.721 10.632 8.668 10.889a2.69 2.69 0 1 0 .28-5.383c-2.249-.117-3.7-2.562-3.562-5.227l.894-17.211c.138-2.663 1.835-4.945 4.084-4.828a2.69 2.69 0 1 0 .28-5.383z"/><path d="M1488.334 438.09c4.947.257 9.434-4.071 9.739-9.933l.894-17.211c.305-5.861-3.71-10.63-8.657-10.887a2.69 2.69 0 1 0-.28 5.383c2.249.117 3.7 2.562 3.562 5.226l-.894 17.211c-.138 2.665-1.835 4.947-4.084 4.83a2.69 2.69 0 1 0-.28 5.383z"/><path d="M1503.812 399.55c-5.029-.261-9.631 4.208-9.946 10.272l-.935 17.99c-.315 6.065 3.799 10.986 8.828 11.248a2.7 2.7 0 0 0 2.836-2.551 2.7 2.7 0 0 0-2.556-2.831c-2.366-.123-3.874-2.739-3.726-5.586l.935-17.99c.148-2.846 1.919-5.291 4.285-5.169a2.7 2.7 0 0 0 2.836-2.551 2.7 2.7 0 0 0-2.556-2.832z"/><path d="M1501.76 439.06c5.029.261 9.631-4.207 9.946-10.272l.935-17.99c.315-6.064-3.799-10.986-8.828-11.248a2.7 2.7 0 0 0-2.836 2.552 2.7 2.7 0 0 0 2.556 2.831c2.355.122 3.863 2.738 3.715 5.584l-.935 17.99c-.148 2.848-1.919 5.293-4.274 5.17a2.7 2.7 0 0 0-2.836 2.551 2.7 2.7 0 0 0 2.556 2.831zm24.314-16.564l.606-11.666c.334-6.436-3.887-11.616-8.977-11.88a2.7 2.7 0 0 0-2.832 2.552 2.7 2.7 0 0 0 2.552 2.83c2.499.13 4.037 3.052 3.873 6.218l-.606 11.666a2.7 2.7 0 0 0 2.552 2.832 2.7 2.7 0 0 0 2.832-2.552z"/><path d="M1517.703 398.95c-5.089-.264-9.825 4.45-10.16 10.886l-.813 15.645c-.077 1.485 1.059 2.754 2.552 2.832a2.7 2.7 0 0 0 2.832-2.552l.813-15.645c.165-3.166 1.986-5.914 4.496-5.784a2.7 2.7 0 0 0 2.832-2.55 2.7 2.7 0 0 0-2.552-2.832z"/></g><path d="M1697.294 651.157c1.604.367 2.885 1.489 3.791 3.01 1.622 2.699 2.12 6.591 1.198 10.614s-3.064 7.31-5.699 9.032c-1.478.975-3.12 1.426-4.724 1.059-1.235-.283-2.473.492-2.756 1.729s.494 2.473 1.729 2.756c2.796.641 5.676 0 8.275-1.693 3.48-2.279 6.443-6.54 7.66-11.856s.406-10.443-1.735-14.008c-1.602-2.656-3.916-4.486-6.712-5.126-1.235-.283-2.472.49-2.756 1.728s.494 2.473 1.729 2.756z"/><path d="M1691.861 674.872c-1.604-.367-2.871-1.486-3.791-3.01-1.622-2.698-2.12-6.591-1.198-10.613s3.064-7.31 5.699-9.033c1.492-.971 3.12-1.426 4.724-1.059 1.235.283 2.472-.49 2.756-1.728s-.494-2.473-1.729-2.756c-2.782-.637-5.676-.001-8.275 1.693-3.479 2.278-6.442 6.539-7.66 11.856s-.406 10.442 1.735 14.008c1.602 2.655 3.931 4.489 6.712 5.126 1.235.283 2.473-.492 2.756-1.728s-.494-2.474-1.728-2.757zm-22.279-34.749c1.41.323 2.499 1.389 3.284 2.821 1.461 2.679 1.848 6.572.919 10.622s-2.971 7.387-5.452 9.161c-1.331.949-2.775 1.433-4.185 1.11-1.24-.284-2.463.494-2.747 1.731a2.29 2.29 0 0 0 1.719 2.753c2.638.604 5.391-.077 7.887-1.854 3.238-2.317 6.045-6.589 7.256-11.876s.545-10.356-1.361-13.852c-1.474-2.685-3.656-4.497-6.293-5.101a2.3 2.3 0 1 0-1.027 4.483z"/><path d="M1664.148 663.838c-1.41-.323-2.486-1.385-3.271-2.818-1.462-2.678-1.848-6.572-.92-10.621s2.971-7.387 5.452-9.162c1.33-.948 2.761-1.436 4.172-1.113 1.24.284 2.476-.49 2.759-1.727s-.492-2.472-1.732-2.756c-2.638-.604-5.391.077-7.874 1.856-3.238 2.317-6.045 6.589-7.256 11.877s-.545 10.354 1.362 13.851c1.46 2.683 3.643 4.495 6.28 5.1 1.24.284 2.476-.491 2.759-1.727s-.492-2.473-1.732-2.757zm11.058-6.78l7.874 2.949c1.182.446 2.509-.157 2.955-1.346s-.156-2.515-1.338-2.961l-7.874-2.949c-1.193-.446-2.509.157-2.955 1.346s.156 2.515 1.338 2.961z"/><path d="M1079.61 634.506s-48.62-37.749-102.794-24.371c-23.208 5.731-47.496 20.785-69.364 52.314-5.809 8.375-29.607 55.937-12.56 102.946 11.292 31.14 40.45 62.246 105.107 81.195 1.591.466 3.261-.446 3.721-2.035.47-1.589-.45-3.257-2.03-3.723-62.033-18.179-90.324-47.608-101.158-77.482-16.141-44.512 6.35-89.551 11.85-97.481 20.802-29.992 43.796-44.458 65.872-49.909 51.486-12.715 97.666 23.282 97.666 23.282 1.31 1.016 3.2.781 4.21-.526 1.02-1.307.78-3.193-.52-4.21z" fill="#ff7667"/><path d="M1045.94 772.911l-4.42.031-3 3.424c-12.83 15.887-60.82 73.275-119.782 381.594l76.445 24.87 78.637-269.218s12.62 20.231 45.96 17.418l93.31-57.548s39.45-59.363 19.41-97.086l108.34-106.425a78.77 78.77 0 0 0 23.56-58.304l-3.25-122.572-84.6.66-.32 113.9-111.69 95.648s9.53 74.619-118.6 73.608z" fill="#ffd47b"/><path d="M1074.04 914.878l4.3-26.176a4.14 4.14 0 0 1 3.59-3.44c1.83-.22 3.58.794 4.3 2.488 5.92 12.568 14.26 32.165 13.74 42.512 0 0-16.32-3.7-25.93-15.384zm158.5-138.512l-11.6-16.964c-1.15-1.673-1.04-3.904.26-5.458a4.53 4.53 0 0 1 5.33-1.219c6.23 2.715 13.52 6.359 19.36 10.724l-13.35 12.917z"/><path d="M835.103 1254.31l-17.038 81.31-146.127-40.64 43.641-182.95 143.044 30.03-17.478 83.41 147.225 33.2-6.481 28.74-146.786-33.1z" fill="#628ddf"/><g transform="matrix(.822964 .023028 -.023028 .822964 152.047 196.51)" fill="#a8c1f2"><use xlink:href="#C"/><use xlink:href="#B"/><use xlink:href="#D"/><use xlink:href="#E"/></g><path d="M921.183 1157.63h-2.169s-24.795 94.99-18.186 106.52c-2.233 4.88 19.373 19.68 22.098 19.04 5.592-1.3 1.23-30.91-3.912-30.7 0 0 23.507-1.54 22.268-4.14l31.617 6.92 18.385-73.81" fill="#fff"/><path d="M904.302 1273.779c-1.538 2.856-2.561 6.394.185 10.126 2.837 3.857 8.275 4.683 12.127 1.85a2.44 2.44 0 0 0 .521-3.411 2.44 2.44 0 0 0-3.412-.518c-1.688 1.242-4.07.881-5.312-.807-1.336-1.816-.557-3.541.192-4.931a2.45 2.45 0 0 0-.992-3.304 2.45 2.45 0 0 0-3.309.995zm24.955 1.926c3.798-2.794 5.399-7.935 2.88-11.923-2.69-4.278-6.089-4.533-8.42-3.658a2.44 2.44 0 0 0-1.427 3.139 2.44 2.44 0 0 0 3.14 1.428c.781-.293 1.678.249 2.582 1.686 1.157 1.836.104 4.111-1.646 5.399a2.44 2.44 0 0 0-.521 3.411 2.44 2.44 0 0 0 3.412.518z"/><path d="M917.878 1281.564c-1.214 2.751-.958 6.053.948 8.643a2.44 2.44 0 0 0 3.412.518 2.43 2.43 0 0 0 .512-3.405c-.835-1.135-.936-2.589-.409-3.791a2.44 2.44 0 0 0-1.247-3.218c-1.239-.536-2.681.024-3.216 1.252z"/><use xlink:href="#F"/><path d="M946.381 1269.935c-2.838-3.858-8.275-4.683-12.127-1.85l-6.186 4.551a2.44 2.44 0 0 0-.521 3.411 2.44 2.44 0 0 0 3.412.518l6.186-4.551c1.688-1.242 4.061-.875 5.303.814a2.441 2.441 0 1 0 3.933-2.893zm14.34 6.303c-2.838-3.858-8.275-4.683-12.127-1.85l-13.584 9.994c-3.852 2.834-4.682 8.27-1.844 12.127a2.44 2.44 0 0 0 3.412.518 2.43 2.43 0 0 0 .512-3.405c-1.242-1.688-.877-4.07.811-5.312l13.584-9.994c1.688-1.242 4.061-.875 5.303.814a2.441 2.441 0 1 0 3.933-2.893z"/><use xlink:href="#F" x="14.34" y="6.303"/><path d="M961.371 1286.959l-8.494 6.813c-1.042.837-2.58.67-3.421-.381-.85-1.045-.676-2.586.376-3.429l8.544-6.854.078-.059c1.74-1.28 5.285-2.636 8.697-2.543 2.545.07 4.989.918 6.742 2.88a2.44 2.44 0 0 1-.19 3.443c-1.008.901-2.544.811-3.443-.191-1.092-1.21-2.773-1.37-4.344-1.215-1.833.183-3.595.848-4.544 1.537z"/><path d="M971.073 1287.669l-.813-1.032c-.899-1.002-.819-2.542.19-3.443.999-.895 2.544-.811 3.443.191 1.947 2.17 2.499 3.854 2.16 5.299-.23.989-.922 2.1-2.531 3.283l-14.334 10.545c-3.481 2.561-8.384 1.813-10.944-1.666s-1.814-8.383 1.667-10.944c1.084-.798 2.615-.567 3.413.517s.562 2.614-.522 3.412c-1.312.965-1.595 2.815-.631 4.126s2.815 1.591 4.127.626l14.334-10.545a5.42 5.42 0 0 0 .443-.37zm-45.704-13.779c-.076-.84-.964-8.48-9.036-21.92-.693-1.15-.319-2.65.835-3.34 1.154-.7 2.654-.32 3.347.83 9.423 15.68 9.732 24.28 9.732 24.28l.002.19c-.225 6.8-2.929 9.5-5.275 10.67a7.71 7.71 0 0 1-6.759.02c-6.638-3.19-11.558-7.34-15.174-11.29-5.863-6.51-8.191-15.46-6.238-23.99l22.143-92.46 3.866 1.27-21.254 92.27c-1.598 6.99.307 14.32 5.094 19.63a44.7 44.7 0 0 0 13.681 10.18c.789.38 1.71.38 2.479 0 1.347-.67 2.408-2.45 2.557-6.34z"/><path d="M941.102 1244.15c-1.577-1.43-2.771-2.9-3.579-4.35-1.683-3.02-1.851-6.04-.605-8.75 1.43-3.11 3.513-4.67 5.598-5.26 2.557-.72 5.259.01 7.291 1.67 1.988 1.62 3.295 4.1 3.231 6.76-.091 3.74-1.615 6.93-4.003 9.61a40.52 40.52 0 0 0 4.229 2.05 2.44 2.44 0 0 1 1.309 3.19c-.52 1.24-1.95 1.83-3.192 1.31-2.316-.97-4.369-2.03-6.157-3.15a34.62 34.62 0 0 1-4.347 2.64c-9.063 4.64-20.283 6.07-20.283 6.07-1.335.17-2.557-.78-2.727-2.11a2.44 2.44 0 0 1 2.111-2.73s10.333-1.3 18.676-5.58a30.35 30.35 0 0 0 2.448-1.37zm3.895-3.05c1.867-1.92 3.096-4.22 3.164-7 .028-1.13-.588-2.17-1.439-2.86-.808-.66-1.861-1.05-2.878-.76-.978.28-1.822 1.15-2.494 2.61-.813 1.77-.202 3.74 1.357 5.7.622.78 1.387 1.55 2.29 2.31zm45.843-59.82l-23.948 98.36a2.44 2.44 0 0 0 1.77 2.96c1.305.33 2.632-.46 2.961-1.77l23.56-98-4.343-1.55zm356.76-774.085c-.148-.743.061-1.544.619-2.132.806-.835 1.681-.886 2.488-.62a2.24 2.24 0 0 1 1.555 1.617c.049.145.156 1.129.213 2.802.421 13.134 1.181 80.179 1.181 80.179l-4.794.055-1.183-80.081-.08-1.819zm1.2 1.632c.427.245.866.32 1.291.292-.442.026-.898-.072-1.291-.292zm1.36.287l-.026.002.009-.001.017-.001zm.286-.041l-.043.007.026-.003.017-.004zm.078-.02a2.23 2.23 0 0 0 1.157-.668c-.328.341-.722.564-1.157.668zm-73.504 80.467l4.8-.055-1.64-56.603c-.01-4.958 3.49-9.229 8.35-10.201 4.25-.837 9.05-1.47 12.46-.768 1.41.29 2.59.707 2.88 1.886.27 1.117-.02 2.313-1.27 3.666-1.82 1.98-5.25 4.072-11.1 6.425-1.23.494-1.83 1.893-1.33 3.122.49 1.229 1.89 1.826 3.12 1.331 6.81-2.738 10.72-5.319 12.84-7.624 2.71-2.933 2.99-5.633 2.4-8.056-.71-2.925-3.08-4.732-6.57-5.451-3.93-.809-9.47-.205-14.36.761-7.12 1.422-12.23 7.667-12.22 14.915.02 15.963 1.64 56.628 1.64 56.628v.024z"/><path d="M1320.76 450.907c-1.2-1.547-2.57-2.999-4.01-4.348-7.58-7.095-17.29-11.359-17.29-11.359a2.4 2.4 0 0 1-1.24-3.162 2.41 2.41 0 0 1 3.17-1.233s10.47 4.6 18.64 12.25c1.94 1.821 3.74 3.814 5.27 5.955 2.49-.795 5.08-1.359 7.27-2.276a2.4 2.4 0 0 1 3.14 1.285c.51 1.221-.06 2.629-1.28 3.142-2 .838-4.32 1.399-6.62 2.089 1.48 3.088 2.29 6.41 2.1 9.909-.19 3.562-1.75 5.834-3.71 7.091-3.01 1.94-7.2 1.468-9.94-1.041-2.76-2.534-4.3-7.255-.56-13.522 1.28-2.144 3.04-3.653 5.06-4.78zm2.58 4.047c-1.4.741-2.64 1.727-3.52 3.195-2.08 3.486-1.85 6.113-.31 7.523 1.13 1.037 2.85 1.344 4.1.542.89-.572 1.42-1.69 1.51-3.31.15-2.824-.55-5.481-1.78-7.95z"/><path d="M1290.07 438.089c1.761 2.113 3.624 4.356 7.584 3.83 5.093-.674 8.302-4.799 8.302-11.835 0-1.324-1.077-2.4-2.401-2.4s-2.401 1.076-2.401 2.4c0 3.988-1.245 6.696-4.129 7.078-1.817.241-2.457-1.171-3.265-2.143a2.41 2.41 0 0 0-3.388-.309c-1.01.846-1.156 2.362-.303 3.38zm1.324-28.823l.381 10.698a2.41 2.41 0 0 1-2.311 2.482c-1.324.047-2.446-.99-2.491-2.314l-.381-10.747v-.085c0-7.007 4.566-12.38 9.682-12.38s9.682 5.373 9.682 12.361l.079 9.679c0 1.324-1.066 2.408-2.39 2.418s-2.401-1.057-2.412-2.382l-.079-9.697c0-2.199-.617-4.199-1.672-5.641-.83-1.145-1.93-1.939-3.209-1.939-1.268 0-2.378.794-3.209 1.939-1.043 1.434-1.66 3.422-1.672 5.607z"/><path d="M1311.972 441.793c5.172 0 9.525-4.749 9.525-11.827v-20.782c0-7.007-4.566-12.38-9.682-12.38s-9.682 5.373-9.682 12.38c0-.033-.157 11.389-.157 11.389-.011 1.324 1.043 2.415 2.367 2.433s2.412-1.043 2.435-2.367l.157-11.422v-.033c0-2.199.617-4.199 1.672-5.641.83-1.145 1.941-1.939 3.209-1.939 1.279 0 2.378.794 3.209 1.939 1.055 1.442 1.672 3.442 1.672 5.641v20.782c0 3.946-1.84 7.027-4.723 7.027-1.324 0-2.401 1.075-2.401 2.399s1.077 2.4 2.401 2.4z"/><path d="M1337.038 409.067c0-7.007-4.566-12.38-9.682-12.38s-9.682 5.373-9.682 12.38v20.782c0 7.007 4.566 12.38 9.682 12.38s9.682-5.373 9.682-12.38v-20.782zm-4.802 0v20.782c0 2.198-.617 4.199-1.672 5.641-.83 1.143-1.93 1.938-3.209 1.938-1.268 0-2.378-.794-3.209-1.938-1.055-1.442-1.672-3.443-1.672-5.641v-20.782c0-2.199.617-4.199 1.672-5.641.83-1.145 1.941-1.939 3.209-1.939 1.279 0 2.378.794 3.209 1.939 1.055 1.442 1.672 3.442 1.672 5.641z"/><path d="M1352.579 408.95c0-7.007-4.566-12.38-9.682-12.38s-9.682 5.373-9.682 12.38v20.782c0 7.007 4.566 12.38 9.682 12.38s9.682-5.373 9.682-12.38V408.95zm-4.802 0v20.782c0 2.198-.617 4.199-1.672 5.641-.83 1.143-1.93 1.938-3.209 1.938-1.268 0-2.378-.794-3.209-1.938-1.055-1.442-1.672-3.443-1.672-5.641V408.95c0-2.199.617-4.199 1.672-5.641.83-1.145 1.941-1.939 3.209-1.939 1.279 0 2.378.794 3.209 1.939 1.055 1.442 1.672 3.442 1.672 5.641zM1041.52 772.942l6.21-.022s29.32-30.306 50.56-42.337c1.17-.664 1.58-2.153.92-3.325s-2.15-1.583-3.33-.919c-23.94 13.564-37.5 28.274-50.66 42.47l-3.7 4.133z"/><path d="M1079.87 674.273l14.86 54.826c.36 1.299 1.7 2.068 3 1.716a2.44 2.44 0 0 0 1.71-2.993l-14.87-54.826c-.35-1.299-1.69-2.067-2.99-1.715a2.43 2.43 0 0 0-1.71 2.992zm84.916 24.92l-14.12 8.343a2.44 2.44 0 0 0-.87 3.337c.68 1.162 2.17 1.553 3.33.873l11.67-6.367-.01-6.186z"/><path d="M1156.35 715.94l-14.48-27.045c-.63-1.187-2.11-1.635-3.3-1s-1.64 2.115-1 3.302l14.48 27.045c.63 1.187 2.11 1.634 3.3.999s1.64-2.115 1-3.301z"/><path d="M1107.45 695.51c10.99 1.868 20.37.041 30.96-3.897a20.04 20.04 0 0 0 12.76-22.579c-2.91-14.384-7.2-28.153-12.35-41.566a2.44 2.44 0 0 0-3.15-1.404c-1.25.482-1.88 1.894-1.4 3.151 5.05 13.161 9.26 26.671 12.11 40.762 1.4 7.267-2.69 14.499-9.66 17.06-9.74 3.623-18.35 5.381-28.45 3.664a2.45 2.45 0 0 0-2.82 1.996c-.22 1.327.67 2.587 2 2.813zm9.067-27.295c-.27 1.98.518 5.181 3.582 7.026 1.727 1.042 4.258 1.69 7.9 1.121 1.254-.198 2.11-1.375 1.915-2.629a2.3 2.3 0 0 0-2.628-1.915c-4.814.755-6.413-1.501-6.211-2.978a2.3 2.3 0 0 0-1.968-2.59c-1.254-.171-2.418.71-2.591 1.967z"/><path d="M1127.999 676.361c3.965-.622 5.505-3.836 5.407-6.854-.06-2.059-.969-3.938-2.14-4.871-1.292-1.026-5.647-2.423-9.147-1.826-2.869.49-5.144 2.104-5.602 5.405-.173 1.258.713 2.419 1.968 2.59a2.3 2.3 0 0 0 2.591-1.967c.195-1.412 1.6-1.571 2.891-1.582 1.84-.017 3.792.47 4.438.982.323.257.391.841.406 1.409.03.918-.323 1.981-1.524 2.17-1.254.197-2.118 1.375-1.915 2.628a2.3 2.3 0 0 0 2.628 1.916zm-40.839-20.928s-5.44-1.676-9.98-.685c-3.57.781-6.68 2.979-7.08 8.142a10.85 10.85 0 0 0 3.65 8.951c2.6 2.33 6.87 4.038 13.49 3.655 1.26-.073 2.23-1.162 2.16-2.429a2.3 2.3 0 0 0-2.43-2.163c-9.37.542-12.57-3.894-12.28-7.658.1-1.267.47-2.192 1.1-2.827 1.02-1.038 2.55-1.316 4.03-1.383 3.02-.139 5.96.785 5.96.785 1.21.381 2.51-.294 2.88-1.505a2.29 2.29 0 0 0-1.5-2.883z"/><path d="M1119.12 928.73l96.21-56.41s204.84-19.066 203.96 379.81l19.06 458.14-164.59-13.67-61.51-497.81-125.56 463.48-137.42 30.8s38.945-692.61 169.85-764.34z" fill="#ff7667"/><g fill="#69bac9"><path d="M1238.52 874.016c14.08 2.057 25.71 6.126 33.31 9.617l28.14 46.539.05.089c.28.472.5.979.66 1.512l.08.282c.14.539.21 1.088.22 1.635v.104c0 1.249-.33 2.423-.9 3.438-.58 1.018-1.41 1.906-2.48 2.552l-.09.053a6.92 6.92 0 0 1-1.51.66l-.28.079a6.98 6.98 0 0 1-1.64.217l-.1.001h-83.43c-2.52 0-4.85-1.361-6.09-3.562a7.02 7.02 0 0 1 .1-7.06l33.96-56.156zm43.05 52.778l-29.3-48.453-29.3 48.453h58.6zm13.471 92.829l-80.494 21.923c-3.725 1.014-5.933 4.861-4.915 8.599 1.015 3.726 4.869 5.922 8.594 4.907l80.494-21.923c3.725-1.014 5.933-4.861 4.919-8.587-1.018-3.738-4.873-5.933-8.597-4.919z"/><path d="M1242.055 983.836l-18.937 66.387c-1.063 3.711-4.942 5.866-8.659 4.808a7.01 7.01 0 0 1-4.803-8.654l22.114-77.514a7 7 0 0 1 11.557-3.148l58.38 55.591a7 7 0 0 1 .237 9.898c-2.667 2.797-7.104 2.907-9.889.244l-49.999-47.611zm-48.348-16.608l-71.903 42.306a7.01 7.01 0 0 0-2.483 9.589c1.958 3.329 6.254 4.434 9.581 2.476l71.903-42.306c3.327-1.958 4.447-6.25 2.489-9.578a7.01 7.01 0 0 0-9.588-2.487z"/><path d="M1132.77 940.794l-.417 74.859c-.05 3.86-3.227 6.959-7.092 6.915a7.01 7.01 0 0 1-6.908-7.088l.409-82.232c.028-2.052 2.08-5.139 3.659-6.451s4.042-2.31 7.426-1.971c5.267.53 9.876 3.989 9.876 3.989.898.16 3.658 2.172 4.437 2.66l56.828 35.864a7 7 0 0 1 2.184 9.656 6.99 6.99 0 0 1-9.65 2.187l-55.663-35.123-5.09-3.264zm63.5-57.075l-16.59 37.273-.04.095a7.26 7.26 0 0 1-.86 1.406l-.19.225c-.36.422-.77.794-1.22 1.113l-.08.06c-1.03.714-2.18 1.115-3.34 1.224a7 7 0 0 1-3.51-.573l-.09-.043a6.97 6.97 0 0 1-1.41-.863l-.22-.186c-.42-.364-.8-.774-1.12-1.218l-.06-.085-10.77-15.467 12.15-7.06 3.02 4.34 3.66-8.224 20.67-12.017zm-162.46 207.321l55.75 51.81.08.07c.39.37.74.8 1.05 1.27l.15.25a7.21 7.21 0 0 1 .66 1.51l.03.1c.34 1.2.35 2.42.07 3.56-.27 1.13-.83 2.21-1.68 3.13l-.07.07a6.76 6.76 0 0 1-1.27 1.05l-.25.16c-.48.28-.99.5-1.51.65l-.1.03-73.55 21.01 3.59-15.59 54.18-15.47-41.32-38.46c1.55-6.17 3.17-11.21 4.19-15.15zm112.951 46.666l-2.93-80.564c-.132-3.852-3.383-6.872-7.246-6.734a7 7 0 0 0-6.746 7.247l2.932 80.56a7 7 0 0 0 7.244 6.738 7 7 0 0 0 6.745-7.246z"/><path d="M1133.433 1063.515l72.908 40.549c3.374 1.876 7.641.667 9.525-2.719 1.877-3.375.653-7.639-2.721-9.515l-72.908-40.549c-3.374-1.876-7.641-.667-9.519 2.708-1.883 3.386-.659 7.649 2.715 9.526z"/><path d="M1206.271 1091.869l-69.978 40.014a7.01 7.01 0 0 0-2.609 9.546c1.92 3.355 6.202 4.523 9.557 2.606l69.976-40.01a7.01 7.01 0 0 0 2.61-9.548c-1.921-3.354-6.202-4.523-9.555-2.61zm176.289-80.999l-35 33.91a6.67 6.67 0 0 1-1.36 1.05l-.1.06c-.56.32-1.16.55-1.77.7a6.87 6.87 0 0 1-3.49-.03c-1.11-.29-2.16-.87-3.04-1.71a6.96 6.96 0 0 1-1.19-1.5l-.05-.09c-.29-.51-.51-1.04-.66-1.59l-22.07-77.48-.03-.1a7.41 7.41 0 0 1-.24-1.633v-.292c.01-.557.08-1.106.22-1.635l.03-.1a6.98 6.98 0 0 1 1.77-3.08 6.97 6.97 0 0 1 3.06-1.81l.1-.028c.53-.142 1.08-.224 1.64-.239l.19-.002.1.001c.56.008 1.1.084 1.63.22l.1.027 38.7 10.743c2.75 4.597 6.21 10.547 9.2 16.837l-39.61-10.806 15.48 54.317 30.52-29.484c2.43 4.814 4.42 9.914 5.87 13.744zm-40.63 106.325l-62.061-34.51c-3.374-1.876-4.598-6.139-2.715-9.525 1.877-3.375 6.145-4.585 9.518-2.709l72.911 40.544c2.208 1.228 3.585 3.555 3.606 6.076a7.03 7.03 0 0 1-3.535 6.12l-69.972 40.016c-3.355 1.916-7.637.75-9.557-2.606a7.01 7.01 0 0 1 2.609-9.547l59.196-33.858z"/><path d="M1293.203 1156.875l-2.936-80.564c-.133-3.852-3.384-6.872-7.246-6.734a7 7 0 0 0-6.745 7.248l2.938 80.56c.142 3.861 3.381 6.876 7.245 6.737a7 7 0 0 0 6.744-7.247zm-77.793 68.625l9.12-43.91.13-.52.17-.51.17-.4.24-.49.31-.51.3-.43.31-.38c.04-.03.07-.07.1-.1.83-.9 1.85-1.53 2.93-1.88l.14-.05a7.03 7.03 0 0 1 3.48-.16l.52.13.51.16.41.17.48.24.52.31.42.3.38.32c.03.03.07.06.1.09l61.12 56.79.38.37.35.41.26.35.29.46.28.53.21.48.16.47c.01.04.02.09.04.13.33 1.18.35 2.37.09 3.49l-.03.14a6.95 6.95 0 0 1-1.67 3.06l-.37.37-.41.35-.35.27-.46.29-.53.28-.48.2-.46.17c-.05.01-.09.02-.14.04l-73.68 21.05-5.34-42.08zm8.79 26.53l54.45-15.56-42.93-39.88-11.52 55.44zm194.19-46.86l-46.81 42.27c-1.83 1.63-4.38 2.18-6.72 1.46-2.35-.73-4.14-2.62-4.73-5l-19.45-78.23-.03-.1c-.12-.53-.18-1.08-.18-1.64l.01-.29a6.87 6.87 0 0 1 .28-1.63l.03-.1a6.88 6.88 0 0 1 1.87-3.02c.85-.8 1.91-1.4 3.12-1.7l.1-.03a7.56 7.56 0 0 1 1.64-.18l.3.01c.55.03 1.1.12 1.62.27l.1.03 67.3 20.5 1.55 27.38zm-47.47 24.12l42.32-37.63-55.98-17.32 13.66 54.95zm28.41-166.7c1.03 4.06 2.1 8.77 3.15 13.69l-9.92 3.16 12.82 11.2 4.02 22.12-35.4-30.95-.08-.07c-.4-.36-.77-.78-1.09-1.24l-.16-.24c-.29-.48-.53-.98-.7-1.5l-.03-.1a7.02 7.02 0 0 1-.19-3.54c.24-1.15.77-2.25 1.59-3.19l.07-.07c.36-.41.78-.78 1.24-1.09l.24-.16c.47-.3.98-.53 1.49-.71l.1-.03 22.85-7.28zm-170.4 271.15l12.59-16.45.07-.08c.34-.43.73-.82 1.17-1.17l.23-.17c.45-.33.94-.59 1.44-.8l.06-.02.04-.02a6.95 6.95 0 0 1 3.53-.41 6.96 6.96 0 0 1 3.28 1.37l.08.07c.43.33.82.72 1.17 1.16l.17.24c.33.45.59.93.8 1.44l.04.1 29.37 75a6.68 6.68 0 0 1 .43 1.59l.03.2a7.15 7.15 0 0 1-.03 1.85 7 7 0 0 1-1.35 3.21l-.03.03c-.7.91-1.63 1.66-2.74 2.14-.56.25-1.16.42-1.78.52l-.2.02c-.56.07-1.11.07-1.65 0l-38.62-4.26-1.76-14.28 30.47 3.36-20.65-52.72-13.71 17.9-2.45-19.82zm124.922 131.746l30.479-61.012a7 7 0 0 1 12.523 6.256l-36.023 72.117a7 7 0 0 1-5.919 3.862c-2.518.12-4.912-1.113-6.262-3.249l-44.568-70.523c-2.062-3.263-1.094-7.592 2.171-9.655 3.275-2.07 7.6-1.086 9.663 2.177l37.936 60.029z"/><path d="M1310.135 1416.195l80.595-1.596a7.01 7.01 0 0 0 6.864-7.129c-.078-3.865-3.277-6.941-7.14-6.866l-80.591 1.593a7.01 7.01 0 0 0-6.865 7.13c.079 3.864 3.277 6.941 7.136 6.868zm112.665-79.575l.7 16.8-14.85 10.79 15.58 6.56.64 15.47-33.09-13.94-.1-.04c-.5-.22-.98-.5-1.42-.84l-.23-.18a7.12 7.12 0 0 1-1.14-1.19l-.06-.09a6.87 6.87 0 0 1-1.29-3.31c-.14-1.16.02-2.37.5-3.52l.04-.09c.22-.51.5-.98.84-1.43l.18-.23a6.68 6.68 0 0 1 1.19-1.13l.09-.07 32.42-23.56zm9.35 224.76l-57.61 12.28-.11.03a6.86 6.86 0 0 1-1.64.12l-.29-.01a7.28 7.28 0 0 1-1.62-.33l-.1-.04c-1.18-.41-2.18-1.1-2.95-1.98a6.97 6.97 0 0 1-1.6-3.17l-.02-.1c-.11-.54-.15-1.09-.13-1.65l.02-.29a7.28 7.28 0 0 1 .33-1.62l.03-.09 26.4-76.11a6.53 6.53 0 0 1 .7-1.49l.11-.17a6.81 6.81 0 0 1 1.23-1.39c.92-.8 1.99-1.31 3.11-1.55l.04-.01a6.88 6.88 0 0 1 3.48.15c.58.18 1.15.43 1.68.77l.17.11a6.79 6.79 0 0 1 1.25 1.07l25.51 27.17.9 21.4-28.73-30.59-18.55 53.49 47.8-10.19.59 14.19zm-174.34 6.11l52.42-26.6a6.79 6.79 0 0 1 1.54-.58l.2-.04c.61-.14 1.23-.19 1.85-.15 1.21.06 2.34.43 3.32 1.03l.03.03c.97.6 1.81 1.46 2.4 2.52a7.09 7.09 0 0 1 .68 1.72l.04.2a7.07 7.07 0 0 1 .16 1.64l-1.08 80.55c-.04 2.52-1.43 4.83-3.65 6.04-2.21 1.22-4.91 1.14-7.06-.2l-46.23-28.81-2.21-17.88 45.32 28.24.76-56.61-46.66 23.68-1.83-14.78zm-14.84-120.41l62.64 41.83a7.87 7.87 0 0 1 1.26 1.06l.13.15a6.84 6.84 0 0 1 1.04 1.54 6.96 6.96 0 0 1 .72 3.4v.04c-.06 1.15-.39 2.29-1.03 3.33-.32.52-.71 1.01-1.17 1.44l-.15.14c-.41.37-.87.68-1.35.93l-51.64 28.14-1.9-14.91 36.73-20.01-42.94-28.68-2.34-18.4zm25.13 203.7a6.68 6.68 0 0 1 .91.2l.1.03 77.01 23.63a7.17 7.17 0 0 1 1.51.65l.18.11a7.03 7.03 0 0 1 1.43 1.17c.83.89 1.39 1.95 1.67 3.06l.01.03c.28 1.12.28 2.31-.03 3.49a6.52 6.52 0 0 1-.71 1.71l-.1.17a6.82 6.82 0 0 1-1.02 1.29l-15.14 15.28-18.21-1.52 15.3-15.43-54.14-16.61 7.4 29.43-10.51-.87-5.66-45.82zm167.75-.64l-47.17 40.36c-.41.35-.86.66-1.36.92l-.18.09c-.56.28-1.15.47-1.76.58a6.88 6.88 0 0 1-3.47-.22l-.04-.02c-1.09-.36-2.1-.99-2.92-1.88a6.82 6.82 0 0 1-1.07-1.52l-.09-.18c-.24-.5-.42-1.02-.54-1.55l-17.94-78.53-.03-.1c-.11-.54-.16-1.09-.15-1.65l.01-.29c.04-.55.15-1.1.31-1.62l.03-.1c.4-1.18 1.08-2.2 1.94-2.98.86-.79 1.93-1.37 3.15-1.65l.1-.02c.54-.11 1.09-.16 1.65-.15l.29.01c.55.04 1.1.15 1.62.31l.1.03 66.34 21.93 1.18 28.23zm-60.13-32.97l12.61 55.2 43.03-36.81-55.64-18.39zm-3.025-297.961l-43.315-53.755c-2.419-3.008-1.943-7.42 1.066-9.847a7.01 7.01 0 0 1 9.84 1.067l50.574 62.767a7 7 0 0 1-4.093 11.257l-79.082 15.636a7 7 0 1 1-2.719-13.735l67.73-13.391z"/><path d="M1312.902 1341.859l28.508-78.403c1.319-3.628-.55-7.651-4.191-8.975-3.63-1.32-7.646.563-8.965 4.191l-28.508 78.403c-1.319 3.628.55 7.651 4.179 8.971 3.641 1.324 7.657-.559 8.976-4.187zM1200.93 1240.6l-60.5 2.25a7.6 7.6 0 0 1-1.64-.12l-.2-.04a7.56 7.56 0 0 1-1.74-.64c-1.07-.57-1.95-1.38-2.58-2.34l-.02-.03c-.63-.96-1.02-2.08-1.12-3.3-.04-.61-.01-1.23.11-1.85l.04-.2c.12-.54.3-1.06.54-1.55l34.74-72.68.05-.09c.24-.49.54-.95.9-1.38l.19-.22c.38-.41.8-.78 1.25-1.08l.09-.06a6.91 6.91 0 0 1 3.37-1.13c1.16-.08 2.36.13 3.49.67l.09.04c.49.24.96.55 1.38.9l.22.19c.42.38.78.8 1.08 1.25l.06.09 29.89 45.52-4.89 18.06-29.89-45.52-24.42 51.09 53.34-1.99-3.83 14.16zm-160.459 17.23l51.128-62.331c2.45-2.975 2.013-7.391-.974-9.844a7 7 0 0 0-9.854.968l-51.123 62.329c-2.449 2.988-2.017 7.392.971 9.845a7 7 0 0 0 9.852-.967z"/><path d="M1103.26 1260.343l-23.674-66.948c-1.287-3.639.617-7.646 4.27-8.937 3.641-1.288 7.641.631 8.928 4.27l27.813 78.653c.842 2.382.334 5.037-1.319 6.941a7.03 7.03 0 0 1-6.7 2.247l-78.937-16.323c-3.783-.784-6.22-4.493-5.439-8.279a7.01 7.01 0 0 1 8.275-5.429l66.783 13.806zm-106.494 2.547l46.264 60.83c1.52 2.02 1.84 4.7.83 7.02a7.01 7.01 0 0 1-5.7 4.16l-53.777 6.52 2.483-15.75 37.514-3.42-30.568-41.54 2.954-17.82zm70.97 122.998a7 7 0 0 0 9.763 6.941l73.96-32.052a7.03 7.03 0 0 0 4.188-5.692c.257-2.508-.855-4.973-2.914-6.437l-67.994-48.34c-2.059-1.464-4.742-1.697-7.026-.63a7 7 0 0 0-4.011 5.819l-5.966 80.392zm14.819-10.507l51.949-22.518-47.757-33.953-4.192 56.471zm55.895 95.819l-22.1 34.52a7.41 7.41 0 0 1-1.03 1.28l-.15.14c-.46.43-.97.78-1.52 1.07a6.94 6.94 0 0 1-3.39.78h-.04a6.91 6.91 0 0 1-3.34-.96 6.93 6.93 0 0 1-1.46-1.14l-.14-.15c-.38-.4-.7-.85-.97-1.33l-39.9-69.98c-1.25-2.19-1.22-4.89.08-7.06a6.99 6.99 0 0 1 6.18-3.4l79.75 2.05-11.97 44.18zm-27.68 17.27l30.53-47.68-58.58-1.51 28.05 49.19zm-74.333 2.252l45.876 66.292c2.187 3.173 6.553 3.967 9.733 1.769a7 7 0 0 0 1.778-9.74l-45.875-66.287c-2.2-3.176-6.553-3.972-9.733-1.773a7 7 0 0 0-1.778 9.739z"/><path d="M1016.761 1550.402l70.877-4.36c3.853-.237 7.181 2.695 7.419 6.562.237 3.855-2.707 7.173-6.56 7.41l-83.268 5.122c-2.522.155-4.935-1.064-6.311-3.176a7.03 7.03 0 0 1-.319-7.06l37.393-71.409a7.01 7.01 0 0 1 9.455-2.953 7.01 7.01 0 0 1 2.945 9.448l-31.631 60.415zM1103 1602.05l-3.87 14.3-43.4 3 27.67 43.66-15.2 3.29-30.43-49.42c-.3-.46-.53-.95-.71-1.48l-.06-.19c-.18-.6-.28-1.22-.3-1.83-.04-1.22.24-2.38.76-3.4l.02-.04c.52-1.01 1.31-1.91 2.32-2.59a6.94 6.94 0 0 1 1.66-.82l.19-.06c.53-.17 1.08-.26 1.62-.29l59.73-4.13zm-143.032-21.072l44.285 70.701a7.01 7.01 0 0 0 9.654 2.216c3.273-2.05 4.259-6.375 2.209-9.646l-44.285-70.701c-2.049-3.271-6.371-4.272-9.644-2.222-3.283 2.057-4.269 6.381-2.22 9.653z"/><path d="M952.586 1641.87l57.484-.91c3.87-.06 7.05 3.03 7.11 6.89s-3.02 7.05-6.89 7.11l-58.706.92 1.002-14.01zm5.351-64.37l1.712-3.39c1.741-3.45 5.954-4.84 9.403-3.1s4.837 5.96 3.096 9.4l-17.427 34.54 3.216-37.45zm18.16-170.92l40.333-10.97.1-.03c.53-.14 1.08-.21 1.64-.22h.14.15c.56.02 1.11.1 1.63.24l.1.03a6.96 6.96 0 0 1 3.06 1.81c.82.83 1.45 1.88 1.77 3.09l.03.09c.14.53.21 1.08.22 1.64v.29c-.02.56-.1 1.11-.24 1.63l-.03.11-22.92 80.21c-.69 2.43-2.641 4.29-5.098 4.88s-5.04-.19-6.759-2.04l-21.005-22.61 2.158-18.24 20.655 22.23 16.099-56.35-33.807 9.2 1.774-14.99zm103.353-433.819l16.4 80.239.02.1c.1.54.14 1.09.12 1.65l-.03.29a6.79 6.79 0 0 1-.34 1.61l-.03.1a7.03 7.03 0 0 1-2.01 2.94c-.88.76-1.96 1.32-3.19 1.57l-.1.02c-.53.1-1.09.14-1.64.11l-.29-.02a6.77 6.77 0 0 1-1.62-.34l-.1-.03-39.2-13.97 4.78-13.16 27.43 9.77-10.4-50.843c4.09-8.756 7.55-15.329 10.2-20.036z"/></g><path d="M1212.4 1201.54l28.91-92.44c1.04-3.31 4.45-5.27 7.83-4.49s5.59 4.03 5.07 7.46l-29.01 191.54-12.8-102.07z" fill="#8d1b1c"/><g fill="#426fc0"><path d="M1060.41 1771.09l21.75-107.87 4.73-1.23-21.09 112.88a2.99 2.99 0 0 1-3.21 2.43l-11.82-1.02c-1.46-.13-2.61-1.28-2.73-2.74l-3.18-38.06-123.457 39.45a3.01 3.01 0 0 1-2.915-.62c-.792-.71-1.149-1.79-.939-2.83 3.782-18.71 22.276-29.09 28.069-31.91l3.556-46.61 5.729-1.21-3.421 50c-.078 1.14-.8 2.14-1.859 2.57 0 0-18.293 7.35-24.64 23.17l121.637-38.87a3.02 3.02 0 0 1 2.58.36c.76.51 1.25 1.34 1.32 2.25l3.29 39.29 6.6.57zm252.32-46.102l-4.03 50.23a3.02 3.02 0 0 1-1.18 2.14c-.67.52-1.54.72-2.38.56l-18.3-3.51c-1.26-.24-2.23-1.26-2.41-2.53l-10.81-75.59 6.21.74 10.25 71.89 12.9 2.48 4.1-51.08a3.02 3.02 0 0 1 1.45-2.33c.83-.5 1.85-.56 2.74-.18l147.38 64.24c-.64-5.97-3.81-17.23-17.91-26.31-.75-.49-1.25-1.29-1.35-2.18l-6.97-43.82 6.03.55 6.74 41.2c22.56 15.3 19.47 35.58 19.47 35.58-.13.93-.69 1.74-1.5 2.2a2.99 2.99 0 0 1-2.67.13l-147.76-64.41zM1073.31 634.926c-.92 8.19.51 14.498 3.06 19.909 2.31-.597 4.49-.771 6.51-.436-1.56-9.916-1.08-18.628 2.52-25.514-5.02.961-8.91 3.12-12.09 6.041z"/><path d="M1073.51 635.024s-18.69-34.86-3.22-40.317c0 0 13.89-2.327 9.39 30.497 0 0 7.84-32.758 19.48-27.729 1.97.85 5.89 5.965-.42 16.084-2.61 4.181-6.4 10.019-13.69 15.495l-11.54 5.97z"/></g><g fill="#ff7667"><path d="M1117.61 621.357s.91 20.684-29.41 31.867a3 3 0 0 0-1.78 3.853 3 3 0 0 0 3.85 1.777c35.27-13.009 33.33-37.87 33.33-37.87-.1-1.652-1.52-2.911-3.18-2.808a3.01 3.01 0 0 0-2.81 3.181z"/><path d="M1131.87 623.769c-4.25-7.371-13.12-11.062-21.53-8.53-8.22 2.492-24.3 12.835-24.3 12.835l11.95-13.443s1.26-2.3 10.62-5.135c12.52-3.771 25.8 2.887 30.28 15.174l.48 1.322a2.98 2.98 0 0 1-.27 2.599c-.48.781-1.29 1.299-2.2 1.407-9.27 1.096-18.26-6.564-18.26-6.564-1.25-1.086-1.38-2.983-.29-4.232 1.08-1.25 2.98-1.382 4.23-.295 0 0 4.14 3.697 9.29 4.862z"/></g><g opacity=".21"><g fill="#a8c1f2"><path d="M753.788 651.911l228.081 1.509a3 3 0 0 0 3.02-2.98c.011-1.656-1.325-3.009-2.98-3.02l-228.081-1.509a3 3 0 0 0-3.02 2.98c-.011 1.656 1.325 3.009 2.98 3.02z"/><path d="M825.701 613.531c1.405-3.437 4.214-10.179 5.453-12.267 6.236-10.512 14.58-19.864 25.51-25.61 13.046-6.859 29.105-10.013 43.621-6.75 10.293 2.314 20.892 10.947 26.192 20.957 21.739-6.17 42.954 12.29 52.887 32.747 2.062 4.245 5.104 10.614 6.403 16.79.974 4.632.943 9.165-.776 12.848a3 3 0 0 1-3.987 1.45c-1.5-.7-2.15-2.487-1.45-3.987 1.213-2.599 1.029-5.808.341-9.076-1.193-5.673-4.034-11.505-5.928-15.405-8.569-17.646-26.499-34.404-45.126-29.725 1.541 4.976 1.672 10.054-.064 14.717-1.564 4.202-4.641 8.114-9.719 11.294-4.032 2.526-8.923 2.65-12.082.53-2.281-1.531-3.909-4.193-3.714-8.259.283-5.893 3.491-11.23 7.805-15.085 3.22-2.878 6.486-5.076 9.761-6.67-4.602-8.248-13.324-15.353-21.859-17.272-13.154-2.956-27.692-.008-39.513 6.207-9.943 5.227-17.469 13.798-23.142 23.36-1.509 2.543-4.092 10.205-5.77 13.419-.932 1.785-2.094 2.655-2.7 2.876-.475.172-1.32.35-2.4-.077-1.19-.472-5.091-3.552-5.558-3.83-4.164-2.475-9.01-3.57-13.824-3.687-11.229-.271-26.682 4.893-37.412 13.875-6.855 5.738-11.802 13.057-12.074 21.639-.053 1.655-1.439 2.956-3.094 2.904a3 3 0 0 1-2.903-3.094c.326-10.278 6.01-19.177 14.22-26.05 11.867-9.935 28.987-15.572 41.408-15.272 5.836.141 11.696 1.527 16.745 4.528.216.128 1.555 1.101 2.749 1.975zm97.508-15.948c-2.727 1.341-5.45 3.184-8.144 5.59-3.136 2.804-5.604 6.614-5.81 10.9-.068 1.424.265 2.452 1.064 2.988 1.46.98 3.691.536 5.554-.632 3.764-2.357 6.122-5.189 7.281-8.303 1.247-3.349 1.117-6.969.055-10.543z"/></g><g opacity=".95" fill="#a8c1f2"><path d="M1832.11 693.609c.91-1.971 1.89-3.755 2.77-5.205 11.65-19.147 33.1-36.247 55.36-40.424 28.35-5.321 57.28 9.073 71.84 33.663 3.77 6.368 6.58 13.624 8.07 20.88a52.53 52.53 0 0 1 .66 3.854c2.75-2.244 5.82-4.038 9.13-5.343 11.74-4.63 25.66-3.778 36.81 2.143 16.54 8.788 24.5 24.392 25.58 42.224a3 3 0 0 1-2.81 3.176c-1.65.101-3.08-1.159-3.18-2.812-.95-15.714-7.83-29.545-22.41-37.289-9.62-5.115-21.65-5.859-31.79-1.86a28.16 28.16 0 0 0-8.45 5.19l-3.31 3.789c-1.38 1.514-3 1.007-3.09.983-.35-.095-2.06-.611-2.24-2.744-.04-.532.07-3.429.07-3.603-.08-2.211-.4-4.329-.84-6.5-1.36-6.614-3.93-13.227-7.36-19.031-13.3-22.456-39.69-35.683-65.58-30.823-20.66 3.879-40.52 19.862-51.33 37.644a53.26 53.26 0 0 0-1.74 3.098c7.31 2.153 13.39 8.538 13.43 16.501.06 9.941-11.6 12.042-18.16 7.061-4-3.038-5.32-7.534-4.97-12.429.15-2.025.6-4.121 1.22-6.169-4.37.143-8.64 1.483-12.67 3.541-9.36 4.776-17.48 13.384-23.01 20.934-3.45 4.71-6.36 9.901-8.33 15.407-.09.256-.61 2.094-.86 2.988.27.5.41 1.083.35 1.693-.14 1.649-1.6 2.872-3.25 2.729-1.64-.143-2.83-1.09-3.16-3.023-.12-.668-.09-1.625.13-2.654.32-1.553 1-3.377 1.14-3.755 2.16-6.048 5.35-11.757 9.14-16.93 6.02-8.223 14.93-17.531 25.12-22.733 5.61-2.86 11.59-4.492 17.72-4.171zm-49.43 47.303c-.05-.006-.09-.011-.14-.015l.14.015zm53.19-40.726c-.67 1.976-1.17 4.025-1.31 5.999-.2 2.807.32 5.475 2.61 7.217 1.66 1.259 3.99 1.716 5.9 1.218 1.49-.387 2.64-1.515 2.63-3.469-.03-5.541-4.67-9.741-9.83-10.965z"/><path d="M2039.36 742.583l-257.06-1.697c-1.65-.011-3 1.324-3.02 2.98-.01 1.656 1.33 3.009 2.98 3.02l257.06 1.697c1.65.011 3.01-1.325 3.02-2.98s-1.33-3.009-2.98-3.02z"/></g></g><defs ><path id="B" d="M727.785 1219.562c0-13.09 10.628-23.72 23.719-23.72s23.719 10.63 23.719 23.72a8.9 8.9 0 0 0 8.888 8.89 8.9 8.9 0 0 0 8.888-8.89c0-22.91-18.593-41.5-41.495-41.5s-41.495 18.59-41.495 41.5a8.9 8.9 0 0 0 8.888 8.89 8.9 8.9 0 0 0 8.888-8.89z"/><path id="C" d="M775.223 1219.562c0 13.09-10.628 23.72-23.719 23.72s-23.719-10.63-23.719-23.72c0-4.91-3.983-8.89-8.888-8.89s-8.888 3.98-8.888 8.89c0 22.9 18.594 41.49 41.495 41.49s41.495-18.59 41.495-41.49c0-4.91-3.983-8.89-8.888-8.89s-8.888 3.98-8.888 8.89z"/><path id="D" d="M784.767 1236.83l48.372 10.57c4.792 1.04 9.532-2 10.579-6.79s-1.994-9.53-6.786-10.58l-48.372-10.56a8.89 8.89 0 0 0-10.579 6.78c-1.047 4.8 1.994 9.54 6.786 10.58z"/><path id="E" d="M814.092 1252.89l7.6-32.92c1.103-4.78-1.881-9.56-6.661-10.66a8.89 8.89 0 0 0-10.659 6.66l-7.6 32.92c-1.103 4.78 1.882 9.56 6.661 10.66s9.556-1.88 10.659-6.66z"/><path id="F" d="M918.827 1290.207c2.837 3.857 8.275 4.683 12.127 1.85l13.584-9.994c3.852-2.834 4.681-8.271 1.844-12.127a2.44 2.44 0 1 0-3.933 2.893c1.242 1.688.886 4.063-.802 5.305l-13.584 9.994c-1.688 1.242-4.07.881-5.312-.807a2.43 2.43 0 0 0-3.403-.525 2.44 2.44 0 0 0-.521 3.411z"/></defs></svg>