<svg xmlns="http://www.w3.org/2000/svg" viewBox="0 0 2732 2048" fill-rule="evenodd" stroke-linecap="round" stroke-linejoin="round" stroke-miterlimit="2.28659" xmlns:v="https://vecta.io/nano"><g fill="#f61d37"><path d="M1379.138 1645.345c-4.502-4.738-12.002-4.92-16.739-.418s-4.92 12.002-.418 16.739l18.427 19.391c18.916 19.902 45.157 31.186 72.617 31.233l235.75.398c25.14.042 50.213-7.615 69.281-23.993l-3.902-4.547c-17.986 15.44-41.658 22.58-65.368 22.54l-235.75-.398a94.43 94.43 0 0 1-68.281-29.365l-18.427-19.391c-2.226-2.344-2.13-6.044.204-8.26 2.344-2.226 6.044-2.13 8.26.204l4.347-4.133z"/><path d="M1758.055 1688.694c4.106-3.523 7.149-11.048 2.148-16.816-2.316-2.654-4.793-4.018-7.563-4.303-2.57-.264-5.491.441-8.924 2.325-9.939 5.483-30.152 18.899-54.932 19.107-58.241.492-175.34-.296-235.72-.398-20.98-.035-41.035-8.659-55.49-23.874l-18.437-19.391-4.347 4.133 18.437 19.391a82.7 82.7 0 0 0 59.827 25.741l235.78.398c26.03-.226 47.344-14.1 57.774-19.853 2.442-1.336 4.373-1.983 6.113-1.48 1.069.312 2.008 1.063 2.946 2.145 2.505 2.874.529 6.561-1.514 8.327l3.902 4.547z"/><circle cx="1374.57" cy="1748.9" r="22.77" transform="matrix(1.09707 0 0 1.09707 -25.515 -175.085)"/><circle cx="1374.57" cy="1748.9" r="22.77" transform="matrix(1.09707 0 0 1.09707 150.2768 -176.971)"/></g><path d="M1811.464 1712.097c5.061-11.351 96.587-126.535 86.013-53.515 0 0 89.73-68.435 121.719-32.263 4.203 4.746 3.664 19.309-6.531 27.663 0 0 32.994 9.461 33.85 27.651.701 15.034-17.764 34.336-49.922 34.28l-185.13-3.815zm-465.444-1.459H688.399c-42.829-1.01-114.927-24.98-81.724-99.2 6.671-14.91 38.414-68.66 112.511-53.73 0 0 1.079-55.02 70.318-51.66 24.934 1.2 81.281 33.63 130.309 77.19 0 0 39.913-63.33 127.985 0 25.491 18.34 174.922 108.01 298.222 127.4zm11.57-43.84s-86.43-113.56-95.55-40.73c0 0-28.67-4.83-29.71 19.89-.39 9.43 10.19 28.94 125.26 20.84z" fill="#ffd274"/><path d="M1735.08 371.986l13.3 46.479 12.56-2.372-8.53-48.776-17.33 4.669zm87.969-1.12l-13.87 45.069 16.03 4.478 18.88-43.472-21.04-6.075zm32.761 67.328l9.45 14.493 41.61-20.954-14.75-19.79-36.31 26.251z" fill="#f61d37"/><path d="M824.842 1137.248l12.935 247.29-56.192 1.04s-9.333 32.51-31.166 38.53v-285.49l74.423-1.37zm-32.018 261.6c-.554-1.44.086-3.09 1.503-3.77 1.493-.72 3.287-.09 4.003 1.41.2.41.399 1.07.491 1.95.114 1.11.102 2.86.024 5.05-.233 6.54-1.025 17.44.544 25.9.47 2.53 1.145 4.83 2.174 6.65.799 1.41 1.797 2.51 3.177 3.02 1.24.45 2.731.41 4.524-.08a3 3 0 0 1 3.689 2.1c.439 1.59-.5 3.25-2.097 3.69-4.398 1.21-7.797.54-10.439-1.23-3.588-2.39-5.836-7.18-6.927-13.06-1.649-8.88-.886-20.33-.641-27.2.071-2.02-.015-4.17-.025-4.43z"/><path d="M801.875 1407.998c-2.781-2.52-5.631-5.11-7.974-8.02-.051-.06-.689-.94-.954-1.44-.305-.58-.393-1.09-.414-1.37-.065-.88.223-1.53.547-1.99a2.92 2.92 0 0 1 1.767-1.19c.934-.23 2.388-.05 3.905 1.07 2.496 1.86 6.393 7.14 7.085 8.08a34.88 34.88 0 0 1 .635.93l.476.43c2.968 2.69 6.361 5.89 10.084 8.45 3.369 2.32 7.002 4.16 10.859 4.37a3 3 0 0 1 2.833 3.16 3 3 0 0 1-3.158 2.83c-5-.27-9.773-2.61-14.133-5.64 2.198 5.3 4.006 11.04 4.215 15.68.262 5.8-1.815 10.05-6.792 11.42a3 3 0 1 1-1.592-5.79c1.235-.34 1.874-1.23 2.166-2.41.472-1.89.233-4.3-.326-6.91-1.696-7.92-6.556-17.43-9.229-21.66z"/><path d="M827.566 1423.308c3.915.21 6.117-1.13 7.307-2.79 1.207-1.69 1.497-4.06.853-6.63-.961-3.83-4.026-8.21-6.434-10.07-8.375-6.5-20.424-7.81-30.627-8.95a3 3 0 0 0-3.316 2.64c-.185 1.65 1.001 3.13 2.647 3.32 9.17 1.03 20.09 1.88 27.617 7.73 1.619 1.25 3.647 4.21 4.293 6.79.162.65.388 1.25.084 1.68-.087.12-.263.14-.462.19-.448.11-.991.13-1.637.1a3 3 0 0 0-3.158 2.83c-.09 1.65 1.179 3.07 2.833 3.16zm632.15 188.431l186.91 21.23-5.14 25.78s46.55 2.01 42.93 25.29h-243.1l18.4-72.3zm200.834 42.799c.37 1.31-.2 2.74-1.44 3.43-1.45.8-3.27.27-4.07-1.18-.43-.77-.67-2.07-.35-3.65.37-1.83 1.47-4.41 2.22-6.02 2.86-6.12 6.11-12.2 11.07-16.9 1.23-1.17 3.89-3.53 6.3-4.3 1.75-.56 3.42-.45 4.84.4a3 3 0 0 1 1.04 4.11 3.01 3.01 0 0 1-3.87 1.17c-.22.08-.86.32-1.23.55-1.21.76-2.32 1.82-2.95 2.42-4.41 4.18-7.22 9.64-9.77 15.09-.58 1.24-1.61 4.34-1.79 4.88z"/><path d="M1675.75 1631.268c-1.19-.92-1.53-2.6-.74-3.92.85-1.42 2.69-1.88 4.11-1.03 1.89 1.13 2.73 3.1 2.65 5.43-.08 2.15-1.04 4.64-1.65 5.94-3.12 6.66-8.88 11.26-14.62 15.55l1.07-.12c3.77-.28 8.6-.77 12.74-2.33 2.29-.86 4.37-2.05 5.78-3.83h-.05c-1.65-.15-2.87-1.61-2.72-3.26.14-1.64 1.6-2.87 3.25-2.72 2.54.22 4.34 1.45 5.21 2.95.96 1.65 1.13 3.91-.7 6.38-2.07 2.8-5.15 4.77-8.65 6.09-4.7 1.78-10.16 2.39-14.43 2.7-.86.06-6.43.79-8.9.35-1.97-.34-2.99-1.48-3.35-2.42-.33-.86-.39-2.39.95-3.89 1.31-1.48 5.14-3.91 5.66-4.29 5.14-3.84 10.53-7.74 13.32-13.7.33-.7.85-1.91 1.04-3.1.03-.23.03-.59.03-.78z"/><path d="M1685.57 1640.978c-4.18-.37-8.57.94-12.34 2.64-3.27 1.49-6.38 3.37-9.46 5.22-1.42.85-1.87 2.7-1.02 4.12s2.7 1.87 4.12 1.02c2.87-1.73 5.77-3.5 8.84-4.89 2.85-1.29 6.16-2.41 9.33-2.13 1.65.14 3.11-1.08 3.25-2.73.15-1.65-1.07-3.1-2.72-3.25z"/><g fill="#678dda"><path d="M1545.39 1218.808c-308.43-228.945-216.44-421.2-216.44-421.2.95-1.995 3.34-2.846 5.33-1.9 2 .947 2.85 3.334 1.9 5.329 0 0-88.41 188.014 216.05 412.881 1.27.94 1.87 2.54 1.53 4.08l-86.33 394.62-7.93-.88 85.89-392.93zm-55.42-399.956l231.23 244.466c51.87 54.83 68.95 133.95 44.33 205.3l-126.07 363.54 7.17.82 126.46-361.75c25.6-74.17 7.84-156.41-46.07-213.41l-231.24-244.463c-1.51-1.604-4.05-1.674-5.65-.157s-1.67 4.05-.16 5.654z"/><path d="M1189.86 1119.818l135.6-314.099c.88-2.026 3.23-2.962 5.26-2.087s2.96 3.231 2.09 5.258l-136.59 316.388a4.01 4.01 0 0 1-3.48 2.41l-367.496 17.89-.611-8.56 365.227-17.2zm-352.127 264.64l415.757-13.7a146.87 146.87 0 0 0 124.96-78.6l79.57-151.87c1.02-1.95.27-4.37-1.69-5.39-1.95-1.03-4.37-.27-5.4 1.68l-79.57 151.86a138.84 138.84 0 0 1-118.15 74.32l-415.873 13.36.396 8.34z"/></g><path d="M1544.79 1242.418l5.06 2.59s31.04 12.09 50.69 8.7c2.11-.37 3.77-2.02 4.15-4.13s-.6-4.23-2.44-5.32l-52.4-30.85s-3.18 30.24-5.06 29.01z" fill="#6a8fdb"/><path d="M1657.91 1596.668l-4.9 15.47-3.3.89c-14.24 3.93-21.22 8.77-27.17 17.21l-14.67-1.67c6.99-12.25 16.51-23.08 38.12-29.04 3.57-.98 7.57-2.01 11.92-2.86zm-164.07-21.25c7.14 0 12.93 5.89 12.93 13.14s-5.79 13.13-12.93 13.13-12.93-5.88-12.93-13.13 5.79-13.14 12.93-13.14zm117.82-14.23s-24.51 22.7-55.57 11.97c-14.79-5.12-38.07-14.21-48.48-42.22-1.35-3.62-5.38-5.47-9-4.13-3.62 1.35-5.47 5.38-4.13 9 12.34 33.22 39.5 44.52 57.04 50.58 38.91 13.45 69.64-14.92 69.64-14.92 2.84-2.62 3.01-7.06.39-9.89-2.62-2.84-7.06-3.01-9.89-.39zm24.65-174.4s26.23 20.69 20.43 53.04c-2.76 15.4-8.14 39.81-34.2 54.43-3.37 1.89-4.57 6.16-2.69 9.53a7.01 7.01 0 0 0 9.53 2.68c30.91-17.33 37.86-45.91 41.14-64.17 7.27-40.53-25.52-66.5-25.52-66.5-3.03-2.39-7.44-1.88-9.83 1.15a7.01 7.01 0 0 0 1.14 9.84zm-127.15 8.41c10.52 4.07 21.55 11.17 30.24 23.42 10.72 15.14 26.23 40.14 16.92 74.33a7 7 0 0 1-8.59 4.91c-3.73-1.01-5.93-4.86-4.92-8.59 7.85-28.84-5.79-49.78-14.84-62.56-6.33-8.93-14.23-14.42-21.95-17.77l3.14-13.74zm93.57 34.04c7.13 0 12.93 5.89 12.93 13.13 0 7.25-5.8 13.14-12.93 13.14-7.14 0-12.94-5.89-12.94-13.14 0-7.24 5.8-13.13 12.94-13.13zm111.42-6.56c-5.46-1.54-9.47-6.63-9.47-12.66 0-7.25 5.79-13.13 12.93-13.13 1.72 0 3.37.34 4.88.96l-8.34 24.83zm-131.16-29.08s-15.74-29.47 2.53-56.78c8.7-13.01 23.41-33.23 53.15-36.18 3.84-.39 6.65-3.82 6.27-7.66-.38-3.85-3.81-6.66-7.66-6.28-35.26 3.51-53.08 26.91-63.4 42.33-22.89 34.23-3.24 71.15-3.24 71.15 1.81 3.41 6.06 4.7 9.47 2.89a7 7 0 0 0 2.88-9.47zm-671.005-14.95c-10.668-8.65-20.843-21.54-29.463-40.37a7.01 7.01 0 0 1 3.451-9.28c3.513-1.6 7.671-.06 9.279 3.45 10.992 24.02 24.546 37.07 38.434 43.32 1.635.73 3.271 1.37 4.905 1.93l-14.682.52-11.924.43zm70.57-2.53c9.431-3.35 15.476-7.32 15.476-7.32a7.01 7.01 0 0 1 9.683 2.06 6.97 6.97 0 0 1 1.11 4.31l-17.627.64-8.642.31zm204.565-7.61c-1.03-1.18-2.04-2.4-3.01-3.68-10.79-14.18-18.04-35.02-15.94-65.84.26-3.86 3.61-6.77 7.46-6.51 3.86.26 6.77 3.61 6.51 7.46-1.8 26.35 3.88 44.29 13.11 56.4 3.49 4.59 7.46 8.33 11.66 11.38l-19.79.79zm537.43-12.61s-20.05-26.72-6.16-56.5c6.61-14.19 18.05-36.41 46.99-43.87 3.74-.97 6-4.79 5.03-8.53-.96-3.74-4.78-5.99-8.52-5.03-34.32 8.85-48.35 34.69-56.19 51.51-17.4 37.32 7.65 70.81 7.65 70.81 2.32 3.09 6.71 3.72 9.8 1.41 3.09-2.32 3.72-6.71 1.4-9.8zm-612.69-91.26s9.72 37.61-14.091 63.17c-10.379 11.15-27.098 19.78-53.369 22.47-3.844.4-6.644 3.84-6.251 7.68s3.833 6.65 7.677 6.25c30.731-3.14 50.047-13.82 62.184-26.85 28.74-30.86 17.42-76.16 17.42-76.16a7 7 0 0 0-8.51-5.06c-3.74.95-6.01 4.76-5.06 8.5h0zm182.11 23.64c7.08 0 12.82 5.74 12.82 12.81 0 7.08-5.74 12.82-12.82 12.82-7.07 0-12.81-5.74-12.81-12.82a12.82 12.82 0 0 1 12.81-12.81zm-462.503-15.98l.398.44c22.023 24.39 54.443 16.33 54.443 16.33 3.75-.93 7.548 1.36 8.478 5.11s-1.361 7.54-5.111 8.47c0 0-30.896 7.64-57.103-10.7l-1.105-19.65zm127.706 4.09c7.138 0 12.932 5.89 12.932 13.14s-5.794 13.13-12.932 13.13-12.932-5.88-12.932-13.13 5.795-13.14 12.932-13.14zm264.757 14.78s3.39-38.69 34.37-54.84c13.5-7.04 32.15-9.61 57.81-3.37 3.75.91 7.54-1.4 8.45-5.15.92-3.76-1.39-7.54-5.15-8.46-30.02-7.29-51.79-3.67-67.58 4.56-37.39 19.49-41.84 65.98-41.84 65.98-.35 3.84 2.48 7.25 6.33 7.61a7 7 0 0 0 7.61-6.33h0zm336.27-20.15c7.14 0 12.94 5.88 12.94 13.13s-5.8 13.14-12.94 13.14c-7.13 0-12.93-5.89-12.93-13.14s5.8-13.13 12.93-13.13zm-625.653-13.88s22.696-24.51 54.482-16.19c15.141 3.96 39.055 11.24 51.579 38.38 1.619 3.51 5.782 5.04 9.29 3.42s5.041-5.78 3.422-9.29c-14.85-32.17-42.792-41.35-60.744-46.05-39.832-10.43-68.294 20.21-68.294 20.21-2.627 2.83-2.46 7.27.373 9.89 2.833 2.63 7.265 2.46 9.892-.37zm465.113-13.26c.35-8-.68-15.1-2.7-21.4-10.67-33.26-48.23-43.15-48.23-43.15h0a7.01 7.01 0 0 1-4.95-8.58c1.01-3.73 4.85-5.94 8.58-4.94 0 0 45.06 12.25 57.93 52.4.36 1.11.69 2.23 1 3.38l-11.63 22.29zm-224.29-62.74s-17.77 28.28-50.55 25.98c-15.61-1.1-40.458-3.83-57.781-28.19a7 7 0 0 0-9.761-1.64c-3.148 2.23-3.886 6.61-1.647 9.76 20.54 28.87 49.699 32.73 68.209 34.03 41.07 2.89 63.38-32.49 63.38-32.49a7 7 0 0 0-2.19-9.65c-3.27-2.06-7.6-1.07-9.66 2.2zm518.21 13.3c7.14 0 12.94 5.89 12.94 13.14s-5.8 13.13-12.94 13.13c-7.13 0-12.93-5.88-12.93-13.13s5.8-13.14 12.93-13.14zm-82.58 12.38s-3.66-33.21 23.45-51.77c12.92-8.85 34.08-22.15 62.79-13.84a7 7 0 0 0 8.67-4.77 7.01 7.01 0 0 0-4.78-8.67c-34.04-9.86-59.27 5.24-74.59 15.73-33.97 23.26-29.46 64.84-29.46 64.84.42 3.84 3.88 6.61 7.72 6.2a7.01 7.01 0 0 0 6.2-7.72zm-643-73.24c7.79 13.22 13.523 30.41 10.099 52.19-.6 3.82-4.185 6.43-8.002 5.83s-6.428-4.19-5.828-8c3.366-21.42-4.05-37.47-12.344-49.13l16.075-.89zm330.62 42.42s-33.34-2.14-46.93-32.05c-6.48-14.25-15.92-37.4-2.77-64.23 1.7-3.47.27-7.67-3.2-9.37s-7.67-.26-9.37 3.2c-15.59 31.82-5.09 59.29 2.59 76.19 17.04 37.48 58.77 40.23 58.77 40.23 3.85.25 7.19-2.67 7.44-6.53a7.01 7.01 0 0 0-6.53-7.44zm227.02-17.59c7.14 0 12.93 5.89 12.93 13.14s-5.79 13.13-12.93 13.13c-7.13 0-12.93-5.88-12.93-13.13s5.8-13.14 12.93-13.14zm-673.865-1.69c7.137 0 12.932 5.89 12.932 13.13 0 7.25-5.795 13.14-12.932 13.14s-12.933-5.89-12.933-13.14c0-7.24 5.795-13.13 12.933-13.13zm269.545-7.59c7.13 0 12.93 5.88 12.93 13.13s-5.8 13.14-12.93 13.14c-7.14 0-12.94-5.89-12.94-13.14s5.8-13.13 12.94-13.13zm314.72 25.01c-3.84-2.22-6.43-6.36-6.43-11.11 0-7.08 5.74-12.82 12.82-12.82 1.94 0 3.79.44 5.45 1.22l-11.84 22.71zm3.47-53.61c5.57-4.09 12.19-7.57 20.04-9.9 17.79-5.28 46.44-11.91 75.82 7.91a7.01 7.01 0 0 1 1.88 9.72 7.01 7.01 0 0 1-9.72 1.89c-24.77-16.72-48.99-10.56-64-6.1-5.44 1.61-10.14 3.93-14.2 6.65l-9.82-10.17zm-33.63-36.82c3.05 4 6.21 7.99 9.28 11.62-5.51 8.55-13.52 16.85-25.15 22.84-16.5 8.49-43.43 20.33-75.97 6.3-3.55-1.53-5.19-5.65-3.66-9.2a7 7 0 0 1 9.2-3.65c27.45 11.82 50.1 1.26 64.02-5.9 10.99-5.66 17.92-13.91 22.28-22.01zm168.87-114.807s27.73 18.625 24.43 51.317c-1.57 15.57-5.06 40.33-29.93 56.9-3.21 2.14-4.08 6.49-1.94 9.71 2.14 3.21 6.49 4.08 9.71 1.94 29.49-19.65 34.23-48.68 36.09-67.14 4.14-40.97-30.55-64.343-30.55-64.343a7 7 0 0 0-7.81 11.616zm-238.2 75.357c7.14 0 12.94 5.88 12.94 13.13s-5.8 13.14-12.94 13.14c-7.13 0-12.93-5.89-12.93-13.14s5.8-13.13 12.93-13.13zm335.45-14.63c7.13 0 12.93 5.89 12.93 13.14s-5.8 13.13-12.93 13.13c-7.14 0-12.94-5.88-12.94-13.13s5.8-13.14 12.94-13.14zm-148.42-5.4c7.13 0 12.93 5.89 12.93 13.14s-5.8 13.14-12.93 13.14c-7.14 0-12.94-5.89-12.94-13.14s5.8-13.14 12.94-13.14zm-244.15-98.939c11.95 7.162 25.88 19.652 31.57 40.503 4.88 17.904 10.87 46.696-9.61 75.616-2.23 3.16-6.6 3.91-9.76 1.67a6.99 6.99 0 0 1-1.66-9.75c17.27-24.4 11.64-48.753 7.52-63.853-4.3-15.777-14.53-25.545-23.72-31.376l5.66-12.81zm133.75 103.879s-2.22-33.329 25.66-50.706c13.28-8.278 35-20.656 63.32-11.113 3.67 1.233 7.64-.738 8.87-4.399 1.24-3.661-.73-7.635-4.4-8.868-33.58-11.315-59.44 2.683-75.19 12.498-34.95 21.776-32.23 63.508-32.23 63.508.25 3.86 3.59 6.78 7.44 6.53 3.86-.25 6.78-3.59 6.53-7.45zm-49.62-43.254c7.14 0 12.94 5.885 12.94 13.134s-5.8 13.14-12.94 13.14c-7.13 0-12.93-5.89-12.93-13.14s5.8-13.134 12.93-13.134zm-15.52-163.308s31.05 12.338 34.74 44.989c1.75 15.552 3.58 40.482-17.22 61.942a7.01 7.01 0 0 0 .15 9.899c2.78 2.689 7.21 2.619 9.9-.155 24.67-25.445 23.16-54.817 21.08-73.258-4.63-40.914-43.47-56.422-43.47-56.422a7 7 0 0 0-9.09 3.912c-1.43 3.589.32 7.663 3.91 9.093zm90.27 52.65c7.14 0 12.93 5.886 12.93 13.135s-5.79 13.135-12.93 13.135-12.93-5.885-12.93-13.135 5.79-13.135 12.93-13.135zm18.28-98.951l9.28 9.857c-9.52 27.5 2.07 49.1 9.88 62.402 16.65 28.329 50.03 26.975 50.03 26.975 3.86-.153 7.12 2.857 7.27 6.718.16 3.86-2.85 7.118-6.72 7.271 0 0-41.79 1.628-62.65-33.871-9.4-16-22.72-42.221-10.54-75.497.64-1.746 1.91-3.085 3.45-3.855z" fill="#668cda"/><path d="M1321.59 538.471s64.9-26.801 193.76 18.611l-10.82 14.049-182.94-32.66z"/><path d="M1568.05 294.632c.66-.804-17.45 173.327-17.45 173.327l-234.68 18.02 11-170.284 241.13-21.063z" fill="#fff"/><g fill="#69bac9"><path d="M1547.87 465.16l17.19-170.829c.17-1.647 1.64-2.85 3.29-2.684a3.01 3.01 0 0 1 2.69 3.285l-17.46 173.328a2.99 2.99 0 0 1-2.75 2.69l-234.59 18.02c-1.65.127-3.1-1.11-3.22-2.761a3 3 0 0 1 2.76-3.221l232.09-17.828z"/><path d="M1329.77 318.169l-2.6 40.49-8.17 127.512c-.1 1.652-1.53 2.908-3.18 2.802-1.66-.106-2.91-1.533-2.81-3.186l8.17-127.511 2.77-43.067a2.99 2.99 0 0 1 2.73-2.797l241.11-20.769c1.65-.142 3.11 1.082 3.25 2.731s-1.08 3.105-2.73 3.247l-238.54 20.548z"/></g><path d="M1684.93 408.263l-163.34-99.752-61.74 112.491 159.12 87.246 65.96-99.985z" fill="#fff"/><g fill="#69bac9"><path d="M1617.58 503.041l64.86-96.452a3 3 0 0 1 4.16-.816c1.38.924 1.74 2.79.82 4.164l-66.39 98.717c-.86 1.284-2.56 1.701-3.92.962l-158.87-86.289c-1.45-.79-1.99-2.613-1.2-4.068s2.61-1.994 4.07-1.204l156.47 84.986z"/><path d="M1522.71 312.706l-60.41 109.435c-.8 1.45-2.63 1.977-4.07 1.177-1.45-.8-1.98-2.627-1.18-4.076l61.92-112.18a2.97 2.97 0 0 1 1.85-1.45c.8-.21 1.64-.087 2.34.339l163.33 99.751a3.01 3.01 0 0 1 1 4.124 3.01 3.01 0 0 1-4.13.997l-160.65-98.117z"/></g><path d="M1178.78 433.192l184.71-95.819 73.38 130.402-193.31 97.775-64.78-132.358z" fill="#fff"/><g fill="#69bac9"><path d="M1433.183 468.624l-72.312-129.791c-.81-1.445-.283-3.276 1.162-4.082s3.277-.286 4.076 1.163l73.848 132.544c.402.717.492 1.566.242 2.353-.24.783-.802 1.435-1.536 1.798l-196.218 96.865c-1.487.734-3.289.124-4.023-1.36a3 3 0 0 1 1.363-4.019l193.396-95.473z"/><path d="M1182.711 434.53l61.124 130.987c.705 1.498.055 3.285-1.446 3.986a3.01 3.01 0 0 1-3.991-1.448l-62.343-133.593a3.01 3.01 0 0 1 1.342-3.933l184.712-95.818a3 3 0 0 1 2.764 5.326l-182.162 94.493zm342.933 23.557l18.037 10.48-67.231 115.71-18.037-10.48zm-196.567 66.373l18.336-9.324 60.66 119.286-18.336 9.324zm94.823-46.062l19.436-.136.935 133.821-19.436.136z"/></g><g fill="#3768be"><path d="M1510.64 563.846l-189.05-25.375s-120.25 70.196-103.8 156.782c14.66 77.19 116.15 93.443 116.15 93.443l176.7-224.85z"/><path d="M1246.959 553.289c.672 3.463 3.495 5.596 7.253 6.636 4.527 1.252 10.426.928 13.512.677 18.341-1.493 56.328-17.419 56.328-17.419 1.168-.492 1.713-1.841 1.227-3.012a2.3 2.3 0 0 0-3.008-1.229s-37.033 15.617-54.926 17.074c-2.706.221-7.915.578-11.906-.526-1.918-.53-3.621-1.311-3.962-3.078-.243-1.246-1.451-2.062-2.697-1.82a2.3 2.3 0 0 0-1.82 2.696z"/><path d="M1323.448 538.781c-18.75-2.376-39.963-4.32-58.635.271-3.096.761-9.132 2.469-13.181 5.243-3.378 2.315-5.374 5.386-4.673 8.994.243 1.246 1.451 2.062 2.697 1.82a2.3 2.3 0 0 0 1.82-2.696c-.35-1.826 1.051-3.152 2.755-4.323 3.583-2.452 8.947-3.899 11.682-4.571 18.137-4.46 38.746-2.482 56.951-.174a2.31 2.31 0 0 0 2.58-1.992 2.31 2.31 0 0 0-1.996-2.572z"/><path d="M1320.163 539.25c.098-.14.225-.272.362-.389.96-.822 2.42-.705 3.243.263.519.61 1.009 1.675.069 2.958-.137.198-.441.512-.882.841-.833.623-2.508 1.607-2.91 1.845l-11.042 6.464-29.823 17.344c-28.716 17.016-57.598 34.448-84.109 54.846a2.31 2.31 0 0 1-3.233-.421 2.31 2.31 0 0 1 .421-3.226c26.668-20.509 55.697-38.047 84.57-55.157l29.891-17.377 10.953-6.414c.314-.186 1.969-1.246 2.489-1.576zm-.421 1.731a2.17 2.17 0 0 0 .519 1.121c-.284-.331-.451-.72-.519-1.121z"/><path d="M1322.506 539.433c-8.567 4.749-17.055 12.025-25.315 17.674-22.928 15.682-45.162 32.158-67.129 49.158-20.115 15.565-42.29 28.919-61.177 46.014-.941.852-1.02 2.308-.158 3.248a2.3 2.3 0 0 0 3.249.162c18.798-17.016 40.884-30.294 60.9-45.787 21.898-16.945 44.063-33.368 66.921-48.998 8.141-5.57 16.5-12.766 24.938-17.448 1.109-.616 1.515-2.017.901-3.127-.624-1.109-2.02-1.511-3.13-.896z"/><ellipse cx="1089.93" cy="621.63" rx="4.202" ry="4.382" transform="matrix(1.32394 0 0 1.26422 -251.206 -163.46)"/><ellipse cx="1089.93" cy="621.63" rx="4.202" ry="4.382" transform="matrix(1.32394 0 0 1.26422 -273.215 -131.829)"/></g><g fill="#fff"><path d="M1328.25 549.631l-.74 1.553-3.77 8.084c-3.19 7.625-5.93 15.897-5.46 24.269.07 1.406.2 3.107.59 4.711.31 1.286.77 2.528 1.67 3.347.94.855 1.01 2.311.15 3.249-.85.938-2.31 1.006-3.25.151-2.86-2.605-3.56-7.617-3.76-11.2-.5-9.068 2.36-18.049 5.82-26.307 1.2-2.863 2.49-5.705 3.94-8.451.07-.132.4-.939.71-1.523.28-.524.6-.934.81-1.139a2.39 2.39 0 0 1 1.54-.687 2.3 2.3 0 0 1 2.44 2.146 2.26 2.26 0 0 1-.69 1.797z"/><path d="M1320.78 591.768c.09-.064.28-.197.39-.308.2-.197.39-.431.57-.688 1.79-2.513 2.99-6.889 3.3-8.112 2.99-11.649 2.25-24.359.29-36.118-.21-1.252.64-2.438 1.89-2.647a2.3 2.3 0 0 1 2.65 1.891c2.06 12.378 2.77 25.757-.38 38.019-.44 1.75-2.56 8.68-5.37 11.198-.97.872-2.05 1.339-3.13 1.393-1.12.054-2.33-.296-3.55-1.401-.94-.856-1-2.311-.15-3.25.86-.938 2.31-1.005 3.25-.15.07.062.17.132.24.173z"/></g><path d="M1336.49 641.62l46.67 141.484 56.31-18.412 50.5 53.559 24.15-18.417 33 39.027 122.01-111.241-83.73-132.682c-19.22-30.457-58.07-41.907-90.73-26.743l-158.18 73.425z" fill="#ffd274"/><path d="M1578.23 683.283c-1.62 1.799-3.24 3.614-5.12 5.134-6.54 5.298-13.04 10.695-20.09 15.287-25.18 16.402-47.27 28.562-73.78 41.585-12.66 6.222-25.51 12.073-38.29 18.049-.5.233-1.49.899-1.49.899l5.87 7.178 1.9-.889 38.37-18.196c26.84-13.281 49.16-25.711 74.57-42.533 9.16-6.067 19.14-11.993 25.38-21.041 3.35-4.848-3.77-10.227-7.32-5.473zm13-47.193s14.05 75.171-75 161.517l-1.81 1.744 5.66 7.236 2.11-2.028c93.72-90.889 75.4-175.208 75.4-175.208a4.57 4.57 0 0 0-5.42-3.524c-2.47.524-1.46 7.794-.94 10.263z" fill="#e64b4d"/><path d="M1588.12 599.079s11.37 65.271-31.49 114.24c-21.92 25.047-57.42 46.633-117.16 51.373l18.72 20.983s166.29-29.197 136.87-177.332c-1.39-7.035-3.91-8.221-6.94-9.264z" fill="#3768be"/><path d="M1546.98 838.738l48.2 50.449a97.41 97.41 0 0 0 102.26 24.758c47.4-16.395 82.49-56.78 92.1-106.003 22.15-112.475 42.39-219.674 56.2-338.77.49-4.263-1.87-8.346-5.81-10.048-4.23-1.797-9.7-2.066-13.79 5.028 0 0-9.53-21.141-24.67-8.492 0 0-11.15-18.363-25.1-4.722 0 0-15.57-20.227-27.01 4.695 0 0-23.78-9.515-32.74 38.172l-48.04 233.529-121.6 111.404z" fill="#a62b2a"/><path d="M1642.52 840.869l26.218-113.799-7.712 7.274-25.095 105.269c-.342 1.818.854 3.576 2.669 3.922a3.35 3.35 0 0 0 3.919-2.667z"/><path d="M1768.33 509.242c-.51.392 1.11 2.838 1.28 3.187l5.01 10.497 3.78 9.091 2.28 6.744 1.67 6.014c1.49 6.12 3.98 20.681-4.61 23.547-2.84.946-4.99-1.185-5.7-3.784-1.13-4.126.57-8.601 2.85-12.022 5.98-8.971 18.07-12.943 28.35-13.463" fill="none" stroke="#000" stroke-width="6"/><g fill="#de735a"><path d="M1749.36 455.669s17.79 9.765 29.09 21.689a10.31 10.31 0 0 1 2.07 10.66 10.33 10.33 0 0 1-8.64 6.619l-3.3.235c-6.45.403-18.55-1.014-31.38-2.994a3 3 0 0 0-3.42 2.507c-.25 1.636.87 3.17 2.51 3.423 13.35 2.061 25.96 3.472 32.67 3.053l3.45-.248c.02-.001.04-.003.06-.005 6.17-.609 11.47-4.664 13.66-10.465a16.3 16.3 0 0 0-3.31-16.89c-8.72-9.21-23.39-17.451-30.51-21.169-.33-.171-.77-.462-.77-.462-.91 1.374-2.18 4.047-2.18 4.047z"/><path d="M1744.04 496.985s-1.29 7.469.28 14.069c1.22 5.115 4.1 9.624 9.72 10.968 2.95.705 13.31 1.914 18.17-22.758.32-1.625-.74-3.203-2.36-3.523a3 3 0 0 0-3.52 2.364c-1.55 7.842-3.55 12.548-5.64 15.299-2.19 2.888-4.27 3.018-5.25 2.782-3.22-.769-4.58-3.594-5.28-6.523-1.3-5.464-.21-11.65-.21-11.65.28-1.631-.81-3.186-2.45-3.469a2.99 2.99 0 0 0-3.46 2.441zm34.14-28.025c.67-5.667 1.28-11.956 1.81-18.935.05-.541-.06-1.06-.28-1.518-.03-.065-.04-.23-.1-.193-1.38.816-3.23 2.62-3.23 2.62.01-.035-2.1-2.385-2.13-2.31-.13.299-.21.606-.24.947-.52 6.885-1.12 13.089-1.79 18.68-.19 1.645.98 3.138 2.63 3.334 1.64.195 3.13-.981 3.33-2.625z"/><path d="M1768.94 497.827c-.37 8.058.04 15.197 1.73 19.883 1.49 4.128 4 6.602 7.36 7.234 1.89.358 4.82 1.049 8.19-.469 3.04-1.374 6.69-4.709 9.95-12.897 3.82-9.575 7.43-26.449 9.59-55.957.07-.897 0-2.699 0-2.699-1.36.467-2.79 1.502-4.25 2.695-.51-.786-1.04-1.5-1.62-2.103l-.11 1.669c-2.09 28.558-5.49 44.906-9.18 54.173-2.37 5.947-4.64 8.652-6.85 9.65-1.89.854-3.55.243-4.61.042-1.44-.27-2.19-1.614-2.83-3.375-1.49-4.139-1.7-10.457-1.38-17.574.08-1.654-1.2-3.058-2.86-3.133a3 3 0 0 0-3.13 2.861z"/><path d="M1806.19 528.651c-6.19-.354-9.81-5.755-10.99-14.173-2.27-16.204 3.91-44.222 3.99-50.826a3 3 0 1 1 6 .076c-.08 6.487-6.28 33.999-4.05 49.917.33 2.387.85 4.484 1.68 6.13.88 1.744 2.12 2.898 4.04 2.895.47 0 .93.11 1.35.323.09-.008 2.15-.227 4.16-3.321 4.13-6.362 8.97-25.546 11.02-59.362.01-.203.07-.676.07-.676.92 1.181 1.79 2.688 2.7 4.52.93-1.623 1.96-3.102 3.34-4.057l-.06.944c-2.17 35.442-7.7 55.215-12.04 61.9-2.83 4.352-5.64 5.605-7.59 5.962-1.6.293-2.85.024-3.62-.252z"/><path d="M1828.46 529.563c-2.06-.386-3.79-1.671-5.09-3.865-1.47-2.472-2.4-6.376-2.81-11.152-1.1-12.822 1.27-32.548 2.24-44.239.27-3.319 6.26-3.497 5.98-.132-.98 11.644-3.33 31.156-2.24 43.857.27 3.14.73 5.822 1.56 7.754.42.977.76 1.807 1.56 1.894a2.98 2.98 0 0 1 .94.263 2.33 2.33 0 0 0 .93-.342c.8-.52 1.66-1.478 2.61-3.054 2.55-4.225 8.38-25.426 8.38-25.426-.06 2.528-3.37 26.795-3.85 29.159-.31 1.535-1.38 2.206-2.14 2.952-2.22 2.177-4.23 2.655-5.62 2.711-1.08.044-1.92-.177-2.45-.38z"/></g><path d="M904.155 836.978L1336.49 641.62l46.67 141.484s-290.937 122.31-403.373 139.168c0 0-127.18 9.028-225.709-21.598 0 0-12.789-5.488-5.243-11.813 0 0 9.917-7.239 19.963-8.622 0 0-18.961-10.138-26.337-18.754-.812-1.057-.907-2.499-.241-3.653 1.707-2.897 6.549-7.233 19.954-4.021 0 0-8.57-6.034-13.173-14.101a2.83 2.83 0 0 1-.012-2.718c1.79-3.324 9.311-9.601 40.594 1.228 0 0-10.057-9.231-13.694-19.005a5.67 5.67 0 0 1 .784-5.374c1.159-1.541 3.022-2.387 4.944-2.245 9.243 1.917 28.198 7.491 59.014 24.124 0 0-7.516-25.922 23.319-19.047 0 0 15.968 4.998 40.205 20.305z" fill="#a62b2a"/><path d="M839.857 828.43c-.093 2.384.099 4.793.632 7.23l.686.325c7.264 3.363 19.736 6.654 38.136 3.444 6.549-1.142 15.381-2.056 23.64-2.423l1.301-.054-9.071-5.386-1.286.127c-5.655.428-11.111 1.04-15.615 1.825-20.09 3.505-32.245-1.435-37.588-4.578-.3-.176-.835-.51-.835-.51zm-50.334 9.815l-10.928-3.408 1.23 1.574c6.731 8.314 22.413 23.236 56.261 38.687a3 3 0 1 0 2.492-5.459c-24.91-11.37-39.506-22.307-47.801-30.233-.66-.63-1.254-1.161-1.254-1.161zm-27.506 15.507c-3.588-.858-7.427-1.587-11.106-.932l.648.531s36.345 29.434 74.968 42.044c1.574.514 3.269-.345 3.784-1.919a3 3 0 0 0-1.919-3.784c-29.662-9.702-65.495-35.296-65.495-35.296l-.88-.644zm6.901 26.428c-2.753.544-5.672 1.259-8.37 2.298l.494.275c9.001 5.008 40.49 22.002 75.004 34.508l1.846.664 29.496 3.083s-1.303-.603-1.812-.733c-38.304-9.758-79.45-30.736-96.264-39.821-.198-.106-.394-.274-.394-.274z" fill="#de735a"/><path d="M1515.5 543.046l.24-34.931c.15-22.29 18.05-40.394 40.33-40.808 24.64-.388 53.13 5.132 62.03 30.653.04 1.798-12.87 7.915-38.42-2.802 0 0-2.13 13.373-22.41 24.181 0 0-4.32-9.624-15.79-3.169-3.6 2.025-5.6 6.938-1.41 16.577 0 0-.84 5.405-24.57 10.299z"/><path d="M1515.307 563.148l.62-20.676s17.27-2.843 24.38-9.13c0 0-7.06-13.579 2.28-18.488 4.95-2.6 12.27-1.174 14.73 4.323 0 0 21.07-12.188 22-24.43.23 1.132 29.85 10.042 38.8 3.432-1.22 22.999-1.06 61.28-12.88 72.433-4.7 4.442-10.37 6.22-18.24 6.284l.47 21.886s-23.1-42.815-72.16-35.634z" fill="#a62b2a"/><path d="M1586.89 576.95s-17.2-5.936-27.85-13.947c-.31-.285-.79-.289-1.11-.009s-.38.755-.13 1.102c8 10.932 19 19.387 29.51 28.268l-.42-15.414zm-53.422-45.97s4.46 7.498 7.72 10.478c.94.856 2.4.79 3.25-.147.86-.938.79-2.394-.14-3.25-2.93-2.667-6.87-9.418-6.87-9.418a2.3 2.3 0 0 0-3.15-.813 2.3 2.3 0 0 0-.81 3.15z"/><g fill="#de735a"><path d="M1595.54 539.007c-2.5.1-5.68 1.552-6.56 4.535-.53 1.799-.29 4.331 1.97 7.618.83 1.197 2.32 2.809 4.09 3.817 1.38.785 2.91 1.204 4.45.998 1.64-.218 3.36-1.117 4.87-3.305.63-.908.4-2.155-.5-2.783a2.01 2.01 0 0 0-2.79.506c-.68.989-1.37 1.519-2.1 1.618-.9.119-1.75-.331-2.5-.865-.96-.678-1.75-1.567-2.22-2.254-1.28-1.862-1.73-3.203-1.43-4.222.36-1.244 1.83-1.624 2.88-1.666 1.1-.044 1.96-.976 1.91-2.079-.04-1.103-.97-1.962-2.07-1.918z"/><path d="M1604.36 552.67c.77-1.111 1.24-2.865 1.13-4.787-.14-2.513-1.25-5.285-3.58-7.055-1.54-1.169-3.62-1.931-6.37-1.821-1.11.044-1.97.976-1.92 2.079.04 1.103.97 1.962 2.08 1.918 1.63-.066 2.88.317 3.79 1.01 1.35 1.021 1.93 2.648 2.01 4.097.05.907-.06 1.758-.43 2.282-.62.908-.4 2.155.51 2.783s2.16.401 2.78-.506z"/></g></svg>