<svg width="73" height="73" viewBox="0 0 73 73" fill="none" xmlns="http://www.w3.org/2000/svg">
<path d="M-4.48768e-06 58.044L3.85782 63.5814L31.0617 44.7196L29.5684 72.6539L36.3133 73L37.8565 43.7308L67.3999 60.8869L70.8098 55.0775L44.6512 39.8991L71.4569 35.6719L70.4115 29.022L47.2646 32.6807L73 12.8053L68.8684 7.49035L43.5312 27.0444L54.6069 2.79343L48.4593 6.73733e-06L38.1551 22.5452L38.1551 1.40908L31.4102 1.40908L31.4102 27.5388L16.7006 6.97121L11.2001 10.8771L26.0341 31.6177L10.0801 26.3522L7.96454 32.7301L27.3283 39.108L-4.48768e-06 58.044Z" fill="#FF7752"/>
</svg>
