<svg width="44" height="33" viewBox="0 0 44 33" fill="none" xmlns="http://www.w3.org/2000/svg">
<path d="M17.3333 32.5V15.1667H13C10.8333 15.1667 10.7094 15.5897 8.66667 16.6111C5.77778 18.0556 5.05556 15.1667 7.22222 14.4444C8.95556 13.8667 11.3148 12.2778 12.2778 11.5556L17.3333 0H7.22222L0 13.7222V32.5H17.3333Z" fill="#001F0E"/>
<path d="M43.3333 32.5V15.1667H39C36.8333 15.1667 36.7094 15.5897 34.6667 16.6111C31.7778 18.0556 31.0556 15.1667 33.2222 14.4444C34.9556 13.8667 37.3148 12.2778 38.2778 11.5556L43.3333 0H33.2222L26 13.7222V32.5H43.3333Z" fill="#001F0E"/>
</svg>
