<svg width="96" height="96" viewBox="0 0 96 96" fill="none" xmlns="http://www.w3.org/2000/svg">
<g clip-path="url(#clip0_1701_1977)">
<path d="M1.41425e-06 76.8525L5.0733 84.1843L40.8483 59.2105L38.8844 96.1965L47.7545 96.6548L49.7838 57.9013L88.6355 80.6166L93.1197 72.9248L58.7194 52.828L93.9707 47.231L92.596 38.4263L62.1562 43.2705L96 16.9548L90.5667 9.91765L57.2465 35.8079L71.8118 3.69876L63.7272 0.000162145L50.1766 29.8508L50.1766 1.86582L41.3065 1.86582L41.3065 36.4625L21.9625 9.23029L14.7289 14.4018L34.2366 41.8631L13.2561 34.8914L10.4739 43.336L35.9386 51.7806L1.41425e-06 76.8525Z" fill="#3D85FF"/>
</g>
<defs>
<clipPath id="clip0_1701_1977">
<rect width="96" height="96" fill="white"/>
</clipPath>
</defs>
</svg>
