<svg width="16" height="17" viewBox="0 0 16 17" fill="none" xmlns="http://www.w3.org/2000/svg">
<path d="M11.2746 11.7195C11.8797 12.7696 12.4781 13.8077 13.076 14.8447C10.4284 16.8716 6.30923 17.1166 3.25991 14.7824C-0.249203 12.0941 -0.825957 7.50704 1.05277 4.2051C3.21357 0.407164 7.25714 -0.432773 9.86063 0.18312C9.79023 0.336082 8.23092 3.57099 8.23092 3.57099C8.23092 3.57099 8.10765 3.57908 8.03792 3.58043C7.26839 3.61305 6.69524 3.7921 6.08092 4.10972C5.40692 4.46142 4.82933 4.97285 4.39862 5.5993C3.96791 6.22576 3.6972 6.94818 3.61014 7.70341C3.51931 8.46933 3.62522 9.24576 3.91787 9.95936C4.1653 10.5627 4.51531 11.0985 4.98454 11.5508C5.70436 12.2455 6.56095 12.6756 7.55384 12.8179C8.4941 12.9529 9.39838 12.8193 10.2457 12.3935C10.5636 12.234 10.834 12.0579 11.15 11.8163C11.1903 11.7902 11.226 11.7571 11.2746 11.7195Z" fill="#FF492C"/>
<path d="M11.2813 2.51231C11.1276 2.36115 10.9852 2.22168 10.8435 2.08132C10.759 1.99764 10.6775 1.91059 10.5909 1.82893C10.5599 1.79947 10.5234 1.7592 10.5234 1.7592C10.5234 1.7592 10.5529 1.69667 10.5655 1.67102C10.7313 1.33833 10.9911 1.09517 11.2993 0.901718C11.64 0.686176 12.0371 0.576506 12.4402 0.586573C12.956 0.596696 13.4355 0.725138 13.8402 1.0711C14.1389 1.32641 14.2921 1.65033 14.3191 2.03701C14.3641 2.68934 14.0942 3.18894 13.5581 3.5376C13.2432 3.74275 12.9036 3.90133 12.563 4.08916C12.3752 4.19286 12.2146 4.28396 12.031 4.47156C11.8695 4.65984 11.8616 4.83732 11.8616 4.83732L14.3016 4.83417V5.92087H10.5354C10.5354 5.92087 10.5354 5.84664 10.5354 5.81582C10.521 5.28181 10.5833 4.77928 10.8278 4.29431C11.0527 3.84937 11.4023 3.52365 11.8223 3.27284C12.1457 3.07962 12.4863 2.91518 12.8104 2.72286C13.0104 2.60431 13.1517 2.43043 13.1505 2.17827C13.1505 1.96187 12.9931 1.76955 12.7681 1.70949C12.2377 1.56642 11.6979 1.79474 11.4171 2.28017C11.3762 2.35103 11.3344 2.42143 11.2813 2.51231Z" fill="#FF492C"/>
<path d="M15.9994 10.5646L13.9432 7.01367H9.87416L7.80469 10.6013H11.9036L13.9263 14.1354L15.9994 10.5646Z" fill="#FF492C"/>
</svg>
