<svg width="12" height="25" viewBox="0 0 12 25" fill="none" xmlns="http://www.w3.org/2000/svg">
<path d="M10.15 7.232C10.15 8.408 9.654 9.448 8.84 10.262C7.935 11.166 6.624 11.392 6.624 12.161C6.624 13.201 8.297 12.884 9.902 14.489C10.965 15.552 11.62 16.954 11.62 18.581C11.62 21.791 9.043 24.346 5.81 24.346C2.577 24.346 0 21.794 0 18.584C0 16.956 0.656 15.554 1.718 14.492C3.323 12.886 4.996 13.203 4.996 12.163C4.996 11.394 3.686 11.168 2.781 10.264C1.967 9.45 1.47 8.41 1.47 7.189C1.47 4.839 3.391 2.939 5.742 2.939C6.195 2.939 6.602 3.007 6.941 3.007C7.551 3.007 7.868 2.736 7.868 2.306C7.868 2.057 7.754 1.741 7.754 1.402C7.754 0.633 8.41 0 9.201 0C9.993 0 10.626 0.656 10.626 1.447C10.626 2.283 9.97 2.667 9.473 2.849C9.066 2.984 8.749 3.165 8.749 3.572C8.749 4.338 10.151 5.085 10.151 7.232H10.15ZM9.7 18.584C9.7 16.346 8.05 14.537 5.811 14.537C3.573 14.537 1.923 16.346 1.923 18.584C1.923 20.799 3.573 22.631 5.811 22.631C8.049 22.631 9.7 20.797 9.7 18.584ZM8.365 7.187C8.365 5.763 7.212 4.587 5.81 4.587C4.409 4.587 3.256 5.763 3.256 7.187C3.256 8.611 4.409 9.787 5.81 9.787C7.212 9.787 8.365 8.611 8.365 7.187V7.187Z" fill="#008561"/>
</svg>
