<svg width="882" height="885" viewBox="0 0 882 885" fill="none" xmlns="http://www.w3.org/2000/svg">
<mask id="mask0_1628_2005" style="mask-type:alpha" maskUnits="userSpaceOnUse" x="0" y="0" width="882" height="885">
<rect width="882" height="885" fill="#D9D9D9"/>
</mask>
<g mask="url(#mask0_1628_2005)">
<path opacity="0.1" d="M1232 978.797L1166.89 1072.17L707.781 754.107L732.984 1225.16L619.151 1231L593.108 737.433L94.5109 1026.74L36.9643 928.773L478.435 672.819L26.043 601.535L43.685 489.399L434.33 551.094L3.33306e-05 215.936L69.728 126.31L497.337 456.049L310.415 47.1056L414.167 1.9066e-05L588.067 380.18L588.067 23.7612L701.9 23.7612L701.9 464.387L950.148 117.556L1042.98 183.42L792.63 533.169L1061.88 444.377L1097.58 551.928L770.788 659.479L1232 978.797Z" fill="#FF7752"/>
</g>
</svg>
