<svg width="96" height="96" viewBox="0 0 96 96" fill="none" xmlns="http://www.w3.org/2000/svg">
<g clip-path="url(#clip0_1701_1978)">
<path d="M76.8523 96L84.1841 90.9267L59.2103 55.1517L96.1964 57.1156L96.6546 48.2455L57.9011 46.2162L80.6164 7.36447L72.9246 2.88033L52.8278 37.2806L47.2308 2.02932L38.4262 3.40402L43.2703 33.8438L16.9546 -3.4838e-06L9.91747 5.43334L35.8077 38.7535L3.69858 24.1882L-1.95494e-05 32.2728L29.8506 45.8234L1.86564 45.8234L1.86564 54.6935L36.4623 54.6935L9.23011 74.0375L14.4016 81.2711L41.8629 61.7634L34.8912 82.744L43.3358 85.5261L51.7804 60.0614L76.8523 96Z" fill="#FF7752"/>
</g>
<defs>
<clipPath id="clip0_1701_1978">
<rect width="96" height="96" fill="white"/>
</clipPath>
</defs>
</svg>
