<svg width="18" height="17" viewBox="0 0 18 17" fill="none" xmlns="http://www.w3.org/2000/svg">
<path d="M1.32031 8.37337H4.52031L5.80031 6.45337L8.36031 10.2934L9.64031 8.37337H11.5603" stroke="white" stroke-width="1.5" stroke-linecap="round" stroke-linejoin="round"/>
<path d="M1.00912 5.81262C1.00309 5.70654 1.00005 5.60006 1 5.49318C1.00018 4.5317 1.33335 3.59996 1.94287 2.85636C2.55238 2.11276 3.40062 1.60321 4.34336 1.41433C5.28611 1.22545 6.26517 1.36891 7.1141 1.8203C7.96304 2.2717 8.62943 3.00318 9 3.89038C9.37057 3.00318 10.037 2.2717 10.8859 1.8203C11.7348 1.36891 12.7139 1.22545 13.6566 1.41433C14.5994 1.60321 15.4476 2.11276 16.0571 2.85636C16.6666 3.59996 16.9998 4.5317 17 5.49318C17 10.9332 9 15.4132 9 15.4132C9 15.4132 5.8044 13.6237 3.45256 10.9333" stroke="white" stroke-width="1.5" stroke-linecap="round" stroke-linejoin="round"/>
</svg>
