<svg width="92" height="45" viewBox="0 0 92 45" fill="none" xmlns="http://www.w3.org/2000/svg">
<path fill-rule="evenodd" clip-rule="evenodd" d="M0 45H45.974L90.966 0H0V45Z" fill="url(#paint0_linear_2520_97)"/>
<path fill-rule="evenodd" clip-rule="evenodd" d="M53.984 9.00012H45L45.03 30.1301L37.207 8.99312H29.45L22.772 26.6461C22.062 22.1541 17.418 20.6041 13.764 19.4431C11.351 18.6681 8.79002 17.5281 8.81602 16.2681C8.83602 15.2341 10.186 14.2751 12.869 14.4181C14.669 14.5151 16.259 14.6601 19.422 16.1881L22.532 10.7681C19.648 9.30012 15.66 8.37312 12.39 8.37012H12.37C8.55702 8.37012 5.38202 9.60512 3.41402 11.6401C2.04202 13.0601 1.30202 14.8661 1.27202 16.8631C1.22202 19.6111 2.22902 21.5591 4.34502 23.1161C6.13302 24.4261 8.42002 25.2761 10.435 25.9001C12.92 26.6701 14.95 27.3401 14.925 28.7661C14.905 29.2861 14.709 29.7721 14.335 30.1641C13.715 30.8041 12.765 31.0441 11.45 31.0701C8.91302 31.1241 7.03302 30.7251 4.03702 28.9541L1.27002 34.4441C4.26302 36.1461 7.44002 37.0001 11.05 37.0001L11.862 36.9941C15.004 36.9371 17.554 36.1841 19.58 34.5541C19.696 34.4611 19.8 34.3671 19.908 34.2721L19.568 36.0241L27.148 36.0001L28.508 32.5181C29.938 33.0061 31.564 33.2761 33.29 33.2761C34.972 33.2761 36.554 33.0201 37.957 32.5601L38.905 36.0001L52.505 36.0131L52.538 28.0751H55.432C62.427 28.0751 66.562 24.5151 66.562 18.5451C66.56 11.8961 62.54 9.00012 53.984 9.00012ZM33.29 27.0621C32.245 27.0621 31.265 26.8801 30.422 26.5601L33.258 17.6051H33.313L36.103 26.5851C35.263 26.8851 34.306 27.0621 33.289 27.0621H33.29ZM54.51 21.9171H52.536V14.7001H54.511C57.141 14.7001 59.241 15.5761 59.241 18.2621C59.239 21.0421 57.141 21.9171 54.511 21.9171" fill="white"/>
<defs>
<linearGradient id="paint0_linear_2520_97" x1="45.483" y1="0" x2="45.483" y2="45.001" gradientUnits="userSpaceOnUse">
<stop stop-color="#00AEEF"/>
<stop offset="0.212" stop-color="#0097DC"/>
<stop offset="0.519" stop-color="#007CC5"/>
<stop offset="0.792" stop-color="#006CB8"/>
<stop offset="1" stop-color="#0066B3"/>
</linearGradient>
</defs>
</svg>
