<svg width="48" height="48" viewBox="0 0 48 48" fill="none" xmlns="http://www.w3.org/2000/svg">
<path d="M47.5477 45.4731L38.5117 36.4361C38.2263 36.1566 37.8427 36 37.4432 36C37.0437 36 36.6601 36.1566 36.3747 36.4361L27.3387 45.4731C27.1232 45.6786 26.9754 45.9448 26.9149 46.2363C26.8544 46.5278 26.8841 46.8309 27 47.1051C27.116 47.3793 27.3127 47.6118 27.5639 47.7715C27.8152 47.9312 28.1092 48.0106 28.4067 47.9991H46.4797C46.7755 48.0063 47.0665 47.9244 47.3151 47.764C47.5636 47.6035 47.7581 47.372 47.8733 47.0996C47.9885 46.8271 48.0191 46.5263 47.961 46.2362C47.903 45.9461 47.7589 45.6802 47.5477 45.4731V45.4731Z" fill="#C3C6CC"/>
<path d="M47.8487 13.0131L45.0187 4.61005C44.8906 4.22992 44.6864 3.87982 44.4187 3.58105L0.344727 47.6561C0.603315 47.8873 0.940999 48.0101 1.28773 47.9991H13.8077C14.1574 48.0007 14.504 47.9333 14.8276 47.8008C15.1512 47.6684 15.4455 47.4734 15.6937 47.2271L47.2497 15.6711C47.5927 15.3313 47.8315 14.9006 47.9378 14.4296C48.0441 13.9587 48.0135 13.4672 47.8497 13.0131H47.8487Z" fill="#E1E3E6"/>
<path d="M43.3897 2.97919L34.9867 0.150188C34.5325 -0.0136128 34.041 -0.0441607 33.5701 0.0621452C33.0992 0.168451 32.6684 0.407179 32.3287 0.750188L0.771689 32.3062C0.275246 32.8085 -0.00198162 33.487 0.000688581 34.1932V46.7122C-0.0103844 47.0589 0.112442 47.3966 0.343689 47.6552L44.4207 3.58119C44.1216 3.31299 43.7712 3.1082 43.3907 2.97919H43.3897Z" fill="#C3C6CC"/>
</svg>
