<svg width="26" height="33" viewBox="0 0 26 33" fill="none" xmlns="http://www.w3.org/2000/svg">
<path d="M4.72867 31.8197C4.24087 32.1719 3.8805 32.4998 3.60931 32.4998H2.88257C2.68234 32.4499 2.4721 32.3698 2.25181 32.2592C1.85103 32.058 1.48457 31.8184 1.15091 31.5453C0.816568 31.2717 0.541888 30.9968 0.325056 30.7228C0.107876 30.4484 0 30.256 0 30.1466C0 29.5615 0.217306 28.6468 0.650826 27.4038C1.08447 26.1603 1.66922 24.7519 2.40255 23.1785C3.13554 21.6059 3.95324 19.9494 4.8544 18.212C5.75527 16.4753 6.68869 14.8187 7.65631 13.2456C8.62362 11.673 9.55814 10.2646 10.4589 9.02032C11.3591 7.77689 13.7244 6.1869 12.8608 6.222C11.059 6.29524 9.37383 6.4418 7.80633 6.66062C6.23821 6.87953 4.93819 7.1946 3.90352 7.5934C3.33557 7.81231 2.91008 7.77566 2.62688 7.48314C2.34326 7.19019 2.16034 6.80611 2.07678 6.33065C1.9932 5.85501 2.00177 5.37937 2.10179 4.90373C2.2018 4.42809 2.36009 4.15561 2.55186 4.02568C3.2527 3.55084 4.28645 3.11142 5.65454 2.70901C7.02263 2.30661 8.53208 1.95814 10.1839 1.66598C11.8356 1.37384 13.528 1.12692 15.2633 0.925557C16.9972 0.724355 18.6068 0.595638 20.092 0.540859C21.5758 0.486132 22.8189 0.485329 23.8198 0.540859C24.8207 0.596391 25.4345 0.715385 25.6222 0.952116C25.8551 1.24587 25.9809 1.71183 25.9973 2.35168C26.0137 2.9915 25.9557 3.64114 25.8223 4.29932C25.6887 4.95845 25.4969 5.52561 25.2465 6.00068C24.9957 6.47632 24.7026 6.70685 24.3706 6.65901C23.1025 6.47632 21.6845 6.33786 20.117 6.24695C18.5489 6.15601 13.808 5.16268 15.2633 6.16486C15.5298 6.34836 15.7891 6.56712 16.0385 6.8232C16.2885 7.07993 16.4882 7.34496 16.6386 7.61915C16.7886 7.89279 16.8809 8.159 16.9136 8.4143C16.9465 8.67104 16.8878 8.91775 16.7136 9.12817C14.7447 11.5064 13.0351 13.8749 11.5841 16.2346C10.1332 18.5943 8.98143 20.7064 8.13139 22.5725C7.28124 24.4388 6.76398 25.9303 6.58041 27.0456C6.39681 28.1611 6.62192 28.6291 7.25624 28.4452C7.88921 28.2617 8.0894 28.3713 7.85634 28.7735C7.62273 29.1768 7.21238 29.6605 6.63042 30.2278C6.04675 30.7968 5.41225 31.3262 4.72867 31.8197Z" fill="#DC3978"/>
</svg>
