<svg version="1.1" xmlns="http://www.w3.org/2000/svg" xmlns:xlink="http://www.w3.org/1999/xlink" viewBox="0 0 172 172"><g fill="none" fill-rule="nonzero" stroke="none" stroke-width="1" stroke-linecap="butt" stroke-linejoin="miter" stroke-miterlimit="10" stroke-dasharray="" stroke-dashoffset="0" font-family="none" font-weight="none" font-size="none" text-anchor="none" style="mix-blend-mode: normal"><path d="M0,172v-172h172v172z" fill="none"></path><g fill="#ffffff"><path d="M48.375,157.21875c-2.23062,0 -4.03125,-1.80062 -4.03125,-4.03125v-8.0625c0,-3.70875 -3.01,-6.71875 -6.71875,-6.71875h-21.5c-3.70875,0 -6.71875,3.01 -6.71875,6.71875v8.0625c0,2.23063 -1.80062,4.03125 -4.03125,4.03125c-2.23063,0 -4.03125,-1.80062 -4.03125,-4.03125v-8.0625c0,-8.15656 6.62469,-14.78125 14.78125,-14.78125h21.5c8.15656,0 14.78125,6.62469 14.78125,14.78125v8.0625c0,2.23063 -1.80063,4.03125 -4.03125,4.03125zM26.875,122.28125c-9.63469,0 -17.46875,-7.83406 -17.46875,-17.46875c0,-9.63469 7.83406,-17.46875 17.46875,-17.46875c9.63469,0 17.46875,7.83406 17.46875,17.46875c0,9.63469 -7.83406,17.46875 -17.46875,17.46875zM26.875,95.40625c-5.18688,0 -9.40625,4.21937 -9.40625,9.40625c0,5.18688 4.21937,9.40625 9.40625,9.40625c5.18688,0 9.40625,-4.21937 9.40625,-9.40625c0,-5.18688 -4.21937,-9.40625 -9.40625,-9.40625zM107.5,157.21875c-2.23062,0 -4.03125,-1.80062 -4.03125,-4.03125v-8.0625c0,-3.70875 -3.01,-6.71875 -6.71875,-6.71875h-21.5c-3.70875,0 -6.71875,3.01 -6.71875,6.71875v8.0625c0,2.23063 -1.80063,4.03125 -4.03125,4.03125c-2.23062,0 -4.03125,-1.80062 -4.03125,-4.03125v-8.0625c0,-8.15656 6.62469,-14.78125 14.78125,-14.78125h21.5c8.15656,0 14.78125,6.62469 14.78125,14.78125v8.0625c0,2.23063 -1.80063,4.03125 -4.03125,4.03125zM86,122.28125c-9.63469,0 -17.46875,-7.83406 -17.46875,-17.46875c0,-9.63469 7.83406,-17.46875 17.46875,-17.46875c9.63469,0 17.46875,7.83406 17.46875,17.46875c0,9.63469 -7.83406,17.46875 -17.46875,17.46875zM86,95.40625c-5.18688,0 -9.40625,4.21937 -9.40625,9.40625c0,5.18688 4.21937,9.40625 9.40625,9.40625c5.18688,0 9.40625,-4.21937 9.40625,-9.40625c0,-5.18688 -4.21937,-9.40625 -9.40625,-9.40625zM166.625,157.21875c-2.23063,0 -4.03125,-1.80062 -4.03125,-4.03125v-8.0625c0,-3.70875 -3.01,-6.71875 -6.71875,-6.71875h-21.5c-3.70875,0 -6.71875,3.01 -6.71875,6.71875v8.0625c0,2.23063 -1.80063,4.03125 -4.03125,4.03125c-2.23062,0 -4.03125,-1.80062 -4.03125,-4.03125v-8.0625c0,-8.15656 6.62469,-14.78125 14.78125,-14.78125h21.5c8.15656,0 14.78125,6.62469 14.78125,14.78125v8.0625c0,2.23063 -1.80062,4.03125 -4.03125,4.03125zM145.125,122.28125c-9.63469,0 -17.46875,-7.83406 -17.46875,-17.46875c0,-9.63469 7.83406,-17.46875 17.46875,-17.46875c9.63469,0 17.46875,7.83406 17.46875,17.46875c0,9.63469 -7.83406,17.46875 -17.46875,17.46875zM145.125,95.40625c-5.18687,0 -9.40625,4.21937 -9.40625,9.40625c0,5.18688 4.21938,9.40625 9.40625,9.40625c5.18687,0 9.40625,-4.21937 9.40625,-9.40625c0,-5.18688 -4.21938,-9.40625 -9.40625,-9.40625zM56.4375,79.28125c-9.63469,0 -17.46875,-7.83406 -17.46875,-17.46875c0,-9.63469 7.83406,-17.46875 17.46875,-17.46875c9.63469,0 17.46875,7.83406 17.46875,17.46875c0,9.63469 -7.83406,17.46875 -17.46875,17.46875zM56.4375,52.40625c-5.18688,0 -9.40625,4.21937 -9.40625,9.40625c0,5.18688 4.21937,9.40625 9.40625,9.40625c5.18688,0 9.40625,-4.21937 9.40625,-9.40625c0,-5.18688 -4.21937,-9.40625 -9.40625,-9.40625zM115.5625,79.28125c-9.63469,0 -17.46875,-7.83406 -17.46875,-17.46875c0,-9.63469 7.83406,-17.46875 17.46875,-17.46875c9.63469,0 17.46875,7.83406 17.46875,17.46875c0,9.63469 -7.83406,17.46875 -17.46875,17.46875zM115.5625,52.40625c-5.18688,0 -9.40625,4.21937 -9.40625,9.40625c0,5.18688 4.21937,9.40625 9.40625,9.40625c5.18688,0 9.40625,-4.21937 9.40625,-9.40625c0,-5.18688 -4.21937,-9.40625 -9.40625,-9.40625zM86,36.28125c-9.63469,0 -17.46875,-7.83406 -17.46875,-17.46875c0,-9.63469 7.83406,-17.46875 17.46875,-17.46875c9.63469,0 17.46875,7.83406 17.46875,17.46875c0,9.63469 -7.83406,17.46875 -17.46875,17.46875zM86,9.40625c-5.18688,0 -9.40625,4.21938 -9.40625,9.40625c0,5.18688 4.21937,9.40625 9.40625,9.40625c5.18688,0 9.40625,-4.21937 9.40625,-9.40625c0,-5.18687 -4.21937,-9.40625 -9.40625,-9.40625z"></path></g></g></svg>