<svg version="1.1" xmlns="http://www.w3.org/2000/svg" xmlns:xlink="http://www.w3.org/1999/xlink" viewBox="0 0 172 172"><g fill="none" fill-rule="nonzero" stroke="none" stroke-width="1" stroke-linecap="butt" stroke-linejoin="miter" stroke-miterlimit="10" stroke-dasharray="" stroke-dashoffset="0" font-family="none" font-weight="none" font-size="none" text-anchor="none" style="mix-blend-mode: normal"><path d="M0,172v-172h172v172z" fill="none"></path><g fill="#ffffff"><path d="M58.05,15.05v62.35h4.3v2.15c0,3.53669 2.91331,6.45 6.45,6.45h29.0376c1.67444,3.75213 5.30105,6.45 9.6624,6.45c4.36203,0 7.98734,-2.69797 9.6624,-6.45h29.0376c3.53669,0 6.45,-2.91331 6.45,-6.45v-2.15h4.3v-62.35h-43c-2.60352,0 -4.86855,1.23893 -6.45,3.08643c-1.58145,-1.8475 -3.84648,-3.08643 -6.45,-3.08643zM62.35,19.35h38.7c2.40083,0 4.3,1.89917 4.3,4.3c0,1.18741 0.96259,2.15 2.15,2.15c1.18741,0 2.15,-0.96259 2.15,-2.15c0,-2.40083 1.89917,-4.3 4.3,-4.3h38.7v53.75h-38.7c-2.60352,0 -4.86855,1.23893 -6.45,3.08643c-1.58145,-1.8475 -3.84648,-3.08643 -6.45,-3.08643h-38.7zM107.5,30.1c-1.18741,0 -2.15,0.96259 -2.15,2.15c0,1.18741 0.96259,2.15 2.15,2.15c1.18741,0 2.15,-0.96259 2.15,-2.15c0,-1.18741 -0.96259,-2.15 -2.15,-2.15zM107.5,38.7c-1.18741,0 -2.15,0.96259 -2.15,2.15c0,1.18741 0.96259,2.15 2.15,2.15c1.18741,0 2.15,-0.96259 2.15,-2.15c0,-1.18741 -0.96259,-2.15 -2.15,-2.15zM107.5,47.3c-1.18741,0 -2.15,0.96259 -2.15,2.15c0,1.18741 0.96259,2.15 2.15,2.15c1.18741,0 2.15,-0.96259 2.15,-2.15c0,-1.18741 -0.96259,-2.15 -2.15,-2.15zM107.5,55.9c-1.18741,0 -2.15,0.96259 -2.15,2.15c0,1.18741 0.96259,2.15 2.15,2.15c1.18741,0 2.15,-0.96259 2.15,-2.15c0,-1.18741 -0.96259,-2.15 -2.15,-2.15zM107.5,64.5c-1.18741,0 -2.15,0.96259 -2.15,2.15c0,1.18741 0.96259,2.15 2.15,2.15c1.18741,0 2.15,-0.96259 2.15,-2.15c0,-1.18741 -0.96259,-2.15 -2.15,-2.15zM66.65,77.4h34.4c2.40083,0 4.3,1.89917 4.3,4.3h4.3c0,-2.40083 1.89917,-4.3 4.3,-4.3h34.4v2.15c0,1.21481 -0.93519,2.15 -2.15,2.15h-32.06523l-0.41992,1.6083c-0.72235,2.78276 -3.19533,4.8417 -6.21484,4.8417c-3.01952,0 -5.49455,-2.05645 -6.21484,-4.8375l-0.41992,-1.6125h-32.06523c-1.21481,0 -2.15,-0.93519 -2.15,-2.15zM49.45,90.3c-2.11154,0 -4.12462,0.40493 -5.97969,1.096c-0.06413,0.00938 0.01818,-0.03126 -0.22676,0.05039l0.05459,-0.02099c-4.64514,1.41446 -26.67344,7.55439 -26.67344,7.55439c-0.76639,0.18192 -1.37197,0.76834 -1.57843,1.52848c-0.20646,0.76015 0.01924,1.57234 0.58829,2.11698c0.56905,0.54464 1.39036,0.73454 2.14073,0.49496c0,0 21.52723,-5.99093 26.62725,-7.5376c0.15215,-0.02315 0.30138,-0.06257 0.44512,-0.11758c1.44208,-0.55307 2.98231,-0.86504 4.60234,-0.86504c2.36119,0 4.55577,0.64061 6.4626,1.75107c0.07465,0.04237 0.15178,0.08023 0.23096,0.11338c0.01655,0.00774 0.03373,0.01741 0.05039,0.02519c13.54894,6.39656 41.06534,20.17357 41.13974,20.21084l0.0084,0.0084c-0.12666,-0.06762 -0.11425,-0.05951 0.14697,0.10918c0.0478,0.03134 0.09683,0.06075 0.14697,0.08818c2.03299,1.09607 3.41397,3.17961 3.41397,5.64375c0,1.2892 -0.38041,2.46929 -1.03301,3.48115c-1.89169,2.94404 -5.54832,3.56604 -8.96953,1.91904c-0.04002,-0.01945 -0.08063,-0.03766 -0.12178,-0.05459l-1.46553,-0.59629c-0.71687,-0.31914 -1.55067,-0.22243 -2.17545,0.25233c-0.62478,0.47476 -0.94132,1.25218 -0.82588,2.02834c0.11544,0.77616 0.64453,1.4278 1.38043,1.70019l1.46553,0.59629l-0.12178,-0.05459c4.32595,2.08254 9.60504,1.61508 12.98818,-1.67549l2.33897,1.5999c0.59985,0.40945 1.36585,0.48842 2.03662,0.20996l35.27764,-14.58389l-0.89443,-1.78467c0.50837,1.01501 1.71821,1.45997 2.76309,1.01621c0.76924,-0.32508 1.61096,-0.50391 2.50693,-0.50391c3.58724,0 6.45,2.86276 6.45,6.45c0,2.4485 -1.36482,4.52585 -3.38037,5.63115c-0.98097,0.53722 -1.3863,1.73677 -0.93222,2.75889l-0.80625,-1.81406l-42.38691,22.49941c0.07149,-0.03502 0.00882,-0.00473 -0.08818,0.02519c-0.10074,0.03192 -0.19899,0.07122 -0.29395,0.11758c-1.15922,0.5584 -2.39759,0.88184 -3.71211,0.88184c-1.26631,0 -2.45713,-0.29156 -3.56934,-0.80205c-0.04957,-0.02291 -0.1,-0.04392 -0.15117,-0.06299c-0.16146,-0.0598 -0.18877,-0.07168 -0.07559,-0.02099l-53.41826,-22.596c-0.48138,-0.20312 -1.02025,-0.22402 -1.51592,-0.05879l-25.8,8.6c-1.12711,0.3757 -1.73625,1.59398 -1.36055,2.72109c0.3757,1.12711 1.59398,1.73625 2.72109,1.36055l25.03154,-8.34385l52.61201,22.25166c0.32436,0.14743 0.39308,0.15071 0.31494,0.12178c1.57664,0.70101 3.33724,1.12959 5.21123,1.12959c2.02658,0 3.915,-0.50557 5.57656,-1.30596c0.12964,-0.04597 0.24436,-0.07554 0.40732,-0.15537c0.02118,-0.01085 0.04218,-0.02205 0.06299,-0.03359l44.22197,-23.46943c0.35464,-0.19087 0.64855,-0.4775 0.84824,-0.82725c2.77594,-1.93469 4.78291,-4.96385 4.78291,-8.6084c0,-5.91146 -4.83854,-10.75 -10.75,-10.75c-1.17645,0 -2.26543,0.31974 -3.32998,0.67188h-0.0042c-0.28668,-0.00166 -0.5708,0.05402 -0.83564,0.16377l-36.05449,14.90303l-1.76367,-1.20517c0.48858,-1.22559 1.13799,-2.38764 1.13799,-3.7835c0,-4.08476 -2.32253,-7.62501 -5.67314,-9.43145l0.14697,0.08818c0.07159,0.04625 -0.07108,-0.08802 -0.45352,-0.29395c-0.01805,-0.01006 -0.03625,-0.01986 -0.05459,-0.02939c0,0 -27.6589,-13.85379 -41.33291,-20.30742c-0.01531,-0.00718 -0.03071,-0.01418 -0.04619,-0.021c-0.2354,-0.10462 -0.25894,-0.10527 -0.14278,-0.05879c-2.46942,-1.3791 -5.31271,-2.19619 -8.34385,-2.19619zM62.35,118.25c-1.18741,0 -2.15,0.96259 -2.15,2.15c0,1.18741 0.96259,2.15 2.15,2.15c1.18741,0 2.15,-0.96259 2.15,-2.15c0,-1.18741 -0.96259,-2.15 -2.15,-2.15zM68.8,120.4c-1.18741,0 -2.15,0.96259 -2.15,2.15c0,1.18741 0.96259,2.15 2.15,2.15c1.18741,0 2.15,-0.96259 2.15,-2.15c0,-1.18741 -0.96259,-2.15 -2.15,-2.15zM75.25,122.55c-1.18741,0 -2.15,0.96259 -2.15,2.15c0,1.18741 0.96259,2.15 2.15,2.15c1.18741,0 2.15,-0.96259 2.15,-2.15c0,-1.18741 -0.96259,-2.15 -2.15,-2.15zM81.7,124.7c-1.18741,0 -2.15,0.96259 -2.15,2.15c0,1.18741 0.96259,2.15 2.15,2.15c1.18741,0 2.15,-0.96259 2.15,-2.15c0,-1.18741 -0.96259,-2.15 -2.15,-2.15z"></path></g></g></svg>