<svg version="1.1" xmlns="http://www.w3.org/2000/svg" xmlns:xlink="http://www.w3.org/1999/xlink" viewBox="0 0 172 172"><defs><linearGradient x1="100.09459" y1="154.19565" x2="100.09459" y2="29.37807" gradientUnits="userSpaceOnUse" id="color-1"><stop offset="0.322" stop-color="#8ab4ff"></stop><stop offset="0.466" stop-color="#e492ff"></stop><stop offset="0.752" stop-color="#e492ff"></stop><stop offset="0.898" stop-color="#e492ff"></stop></linearGradient><linearGradient x1="103.35454" y1="92.09252" x2="103.35454" y2="68.20216" gradientUnits="userSpaceOnUse" id="color-2"><stop offset="0.322" stop-color="#8ab4ff"></stop><stop offset="0.466" stop-color="#e492ff"></stop><stop offset="0.752" stop-color="#e492ff"></stop><stop offset="0.898" stop-color="#e492ff"></stop></linearGradient><linearGradient x1="5436.99005" y1="16948.27686" x2="5436.99005" y2="3305.15966" gradientUnits="userSpaceOnUse" id="color-3"><stop offset="0.322" stop-color="#8ab4ff"></stop><stop offset="0.466" stop-color="#e492ff"></stop><stop offset="0.752" stop-color="#e492ff"></stop><stop offset="0.898" stop-color="#e492ff"></stop></linearGradient><linearGradient x1="2206.43623" y1="4092.51047" x2="2206.43623" y2="888.20498" gradientUnits="userSpaceOnUse" id="color-4"><stop offset="0.322" stop-color="#8ab4ff"></stop><stop offset="0.466" stop-color="#e492ff"></stop><stop offset="0.752" stop-color="#e492ff"></stop><stop offset="0.898" stop-color="#e492ff"></stop></linearGradient><linearGradient x1="24155.48132" y1="75559.34113" x2="24155.48132" y2="14398.90788" gradientUnits="userSpaceOnUse" id="color-5"><stop offset="0.322" stop-color="#8ab4ff"></stop><stop offset="0.466" stop-color="#e492ff"></stop><stop offset="0.752" stop-color="#e492ff"></stop><stop offset="0.898" stop-color="#e492ff"></stop></linearGradient></defs><g fill="none" fill-rule="nonzero" stroke="none" stroke-width="1" stroke-linecap="butt" stroke-linejoin="miter" stroke-miterlimit="10" stroke-dasharray="" stroke-dashoffset="0" font-family="none" font-weight="none" font-size="none" text-anchor="none" style="mix-blend-mode: normal"><path d="M0,172v-172h172v172z" fill="none"></path><g><path d="M100.08955,63.72331c-0.12799,0.07189 0.14848,-0.03695 0,0z" fill="url(#color-1)"></path><path d="M97.85859,62.61069c-0.04233,-0.11019 0.01848,0.11254 0,0z" fill="url(#color-2)"></path><path d="M127.62434,130.37466c0.35254,0.27239 0.79886,0.39357 1.24076,0.33687c0.44189,-0.0567 0.84316,-0.28664 1.11551,-0.63921c7.63116,-9.87085 10.33881,-24.69141 10.33881,-34.3869c0,-0.92767 -0.75202,-1.67969 -1.67969,-1.67969c-0.92767,0 -1.67969,0.75202 -1.67969,1.67969c0,9.16437 -2.5239,23.13131 -9.63704,32.33264c-0.27261,0.35244 -0.39402,0.79875 -0.3375,1.24072c0.05651,0.44197 0.28632,0.84337 0.63884,1.11588z" fill="url(#color-3)"></path><path d="M121.56436,134.76334c-1.17081,1.76232 -2.05436,3.69938 -2.61762,5.73882c-0.25168,0.89288 0.26812,1.82072 1.161,2.0724c0.89288,0.25168 1.82072,-0.26812 2.0724,-1.161c0.46547,-1.70315 1.20197,-3.32031 2.18124,-4.78946c0.51383,-0.77237 0.30425,-1.81505 -0.46813,-2.32889c-0.77237,-0.51383 -1.81505,-0.30425 -2.32889,0.46813z" fill="url(#color-4)"></path><path d="M35.41823,119.15703c0.41861,0.16374 0.84878,0.29624 1.28698,0.39641c0.77266,0.19451 1.15059,0.31276 1.28429,0.55732c0.14076,0.25733 0.50122,1.39246 -0.77266,5.21005c-0.86638,2.59814 1.43277,4.38701 2.47048,5.13816c-0.84253,1.21878 -1.71328,2.95423 -1.40691,4.63594c0.18754,1.01552 0.78881,1.90737 1.65987,2.46209c0.48778,0.33291 0.95003,0.53145 1.33737,0.76896c0.18376,0.28487 0.35307,1.53154 0.11321,5.85102c-0.18845,3.37305 1.84281,6.47532 5.00984,7.65131c3.21694,1.15462 7.53676,0.7263 14.38249,-0.46729c2.0411,-0.3469 4.13067,0.23318 5.70086,1.5826c1.81892,1.52455 2.89034,3.76071 2.93878,6.13355v7.54784c0,0.92767 0.75202,1.67969 1.67969,1.67969c0.03964,0 0.07995,0 0.11993,-0.00437l40.36591,-2.8847c0.45567,-0.0325 0.87845,-0.24919 1.1709,-0.60015c0.29245,-0.35095 0.42934,-0.80588 0.37912,-1.25994c-2.45234,-22.19035 -0.93659,-27.64766 5.19427,-33.76777c8.8842,-8.86875 12.86103,-25.10595 12.86103,-37.26219c0.01451,-4.30433 -0.6969,-8.58029 -2.10431,-12.64805c-0.23532,-0.67453 -0.87156,-1.12641 -1.58596,-1.1264h-10.86959c-0.33594,-3.27035 -2.26825,-5.60848 -5.64375,-6.79736c1.30945,-3.11564 0.73161,-6.70491 -1.4895,-9.25218c-2.22111,-2.54726 -5.69827,-3.60843 -8.9632,-2.73542c-1.23576,-2.80114 -3.82823,-4.76736 -6.85884,-5.20199l10.44228,-22.20782c0.43766,-0.93071 0.36886,-2.02061 -0.18235,-2.88891c-0.55121,-0.86829 -1.50825,-1.39432 -2.53672,-1.3943h-0.00403l-15.42558,0.02116l-0.0299,-21.59776c-0.00194,-1.40865 -0.98225,-2.62684 -2.35787,-2.93005c-1.37563,-0.30321 -2.77723,0.38997 -3.3712,1.66726l-15.74405,33.8588c-0.4328,0.93052 -0.36075,2.01757 0.19109,2.88282c0.55184,0.86525 1.50712,1.389 2.53336,1.38896h0.00403l15.43566,-0.0215l0.01277,9.26616c-4.22289,-1.35377 -8.7959,0.62575 -10.69894,4.63123c-0.89015,-0.28261 -1.81463,-0.44275 -2.74797,-0.47602c-2.39043,-0.07665 -4.70598,0.83949 -6.39688,2.5309c-1.6909,1.69141 -2.60634,4.00724 -2.52898,6.39764c0.03576,0.99675 0.25664,1.97815 0.65138,2.8941c-4.11409,1.42146 -6.58262,5.62473 -5.82012,9.91016h-9.94073c-0.74302,0.00001 -1.39775,0.48819 -1.60981,1.2003c-1.17492,4.07301 -1.94315,8.25247 -2.29345,12.47705c-0.08055,1.22039 0.07562,2.44485 0.4599,3.60595c0.41253,1.48887 0.73906,2.66533 -0.33056,5.15899c-0.54388,1.2685 -2.31495,3.06274 -4.02789,4.79752c-3.06543,3.10507 -6.235,6.31562 -5.59974,9.47545c0.32351,1.61015 1.55337,2.87126 3.65601,3.7447zM67.74986,40.20265l14.83433,-31.90331l0.02822,20.35479c0.00976,1.65621 1.35242,2.99512 3.00866,3.00026l15.22066,-0.02116l-14.8219,31.52303l-0.02788,-19.97384c-0.00444,-1.65686 -1.34776,-2.99823 -3.00462,-3.00026h-0.00403zM63.82342,71.65782c0.69744,0.00016 1.32241,-0.43069 1.57035,-1.08257c0.24793,-0.65188 0.06724,-1.38916 -0.45403,-1.85251c-0.83884,-0.76258 -1.31497,-1.84511 -1.31016,-2.97876c-0.03589,-1.4499 0.52449,-2.85106 1.55029,-3.87635c1.0258,-1.02529 2.42724,-1.58497 3.87712,-1.54837c1.0492,0.01476 2.07644,0.30272 2.98044,0.83548c0.46439,0.29079 1.04143,0.3368 1.54604,0.12327c0.5046,-0.21354 0.87334,-0.65977 0.98794,-1.19558c0.55362,-2.52697 2.78811,-4.33034 5.375,-4.33796c0.949,-0.00175 1.88197,0.2447 2.70631,0.71487l0.01142,8.28355c-0.00453,1.40844 0.97537,2.62869 2.35156,2.92837c0.21801,0.04881 0.44074,0.07348 0.66415,0.07357c1.16207,0.0002 2.21869,-0.67385 2.70833,-1.72773l3.7457,-7.96709c0.09742,-0.00504 0.19417,-0.01445 0.29159,-0.01445c2.62031,0 4.92249,2.01865 5.43446,4.57681c0.40645,0.83204 1.32039,1.28811 2.22962,1.11263c0.84961,-0.43134 1.78412,-0.66938 2.73655,-0.69707c3.03442,0.00352 5.49343,2.46252 5.49695,5.49695c0.0057,1.25312 -0.42284,2.46952 -1.21273,3.44235c-0.37301,0.46216 -0.47424,1.08695 -0.26622,1.64325c0.20802,0.55629 0.69434,0.96138 1.27907,1.06542c4.05174,0.72159 5.63031,2.69254 5.11935,6.39121c-0.4275,2.77834 -2.90564,4.77047 -5.71094,4.59092c-0.99723,-0.67103 -2.17218,-1.02887 -3.37416,-1.02763h-13.87825c-2.90039,0.00828 -5.62303,1.39899 -7.32982,3.74402h-3.00462c-1.97405,0.01543 -3.80478,-1.02886 -4.79629,-2.73591c-0.99151,-1.70705 -0.99151,-3.81469 0,-5.52174c0.99151,-1.70705 2.82224,-2.75134 4.79629,-2.73591h16.44918c1.06764,1.11584 2.41008,1.93113 3.89251,2.36399c0.58208,0.18673 1.21965,0.04248 1.66466,-0.37663c0.44501,-0.4191 0.6272,-1.04689 0.47568,-1.63911c-0.15152,-0.59222 -0.61281,-1.05537 -1.20442,-1.20926c-2.36397,-0.6924 -3.97979,-2.87152 -3.95566,-5.33469c0.01045,-0.92756 -0.73298,-1.68798 -1.66054,-1.6985h-0.01915c-0.92024,-0.00006 -1.6692,0.74036 -1.67969,1.66054c-0.01113,0.97583 0.14056,1.94668 0.44881,2.8726h-14.41172c-4.80151,0.00601 -8.72543,3.83371 -8.85061,8.63359h-7.27036c-3.01902,-0.0236 -5.45397,-2.47767 -5.45397,-5.49678c0,-3.01911 2.43495,-5.47318 5.45397,-5.49678zM39.75249,108.29852c2.02167,-2.04922 3.93047,-3.98153 4.72496,-5.83389c1.53355,-3.5774 0.9497,-5.68541 0.48073,-7.3792c-0.27105,-0.77257 -0.39048,-1.59018 -0.35173,-2.408c0.30215,-3.58578 0.91348,-7.13876 1.82716,-10.61932h10.01866c1.64042,2.46861 4.40719,3.95275 7.37114,3.95398h7.84045c1.3064,3.4399 4.60124,5.71581 8.28086,5.72001h1.51777c-0.13123,0.63297 -0.19151,1.2786 -0.17973,1.92492c0.05142,2.42808 1.07574,4.73381 2.84304,6.39961c1.63449,1.55742 3.83264,2.3822 6.0882,2.28437c2.89914,-0.13437 4.55128,0.15285 5.35585,0.92618c0.77971,0.74847 1.12002,2.31797 1.10423,5.10054v6.08248c0,0.92767 0.75202,1.67969 1.67969,1.67969c0.92767,0 1.67969,-0.75202 1.67969,-1.67969v-6.07442c0.01545,-2.69523 -0.22642,-5.69784 -2.13589,-7.53273c-1.94172,-1.86546 -5.05015,-1.98573 -7.83709,-1.85975c-1.34962,0.05687 -2.66377,-0.44078 -3.6372,-1.37734c-1.10755,-1.04474 -1.74906,-2.49055 -1.78047,-4.01277c-0.02406,-1.45573 0.54294,-2.85906 1.57152,-3.88948c1.07195,-1.09101 2.53536,-1.70854 4.06484,-1.7153h13.87791c0.98108,-0.00132 1.88626,0.5277 2.36662,1.38314c0.48035,0.85544 0.46085,1.9037 -0.05098,2.74069c-0.51183,0.83699 -1.43607,1.33198 -2.41642,1.29417l-6.68079,-0.24759c-0.92359,-0.02909 -1.69722,0.69329 -1.73141,1.61671c-0.03419,0.92341 0.68391,1.70103 1.60712,1.74032l6.68079,0.24725c1.99088,0.07755 3.8926,-0.82879 5.08624,-2.42405c1.19364,-1.59525 1.52656,-3.67544 0.89043,-5.56354c3.28381,-0.77562 5.83121,-3.36677 6.55078,-6.66332h9.82752c1.03516,3.37405 1.55611,6.8848 1.54531,10.41406c0,11.46286 -3.6718,26.69527 -11.87505,34.88476c-6.71438,6.70666 -8.64703,12.8093 -6.34485,34.77961l-36.8295,2.63039v-5.76368c-0.04076,-3.36805 -1.55907,-6.54814 -4.15252,-8.69742c-2.32424,-1.98478 -5.41206,-2.83056 -8.4233,-2.30722c-5.97633,1.04141 -10.18059,1.50836 -12.66921,0.61544c-1.77359,-0.66783 -2.90545,-2.41295 -2.79198,-4.3047c0.36752,-6.62267 0.02318,-8.00338 -2.30252,-9.23291c-0.23112,-0.14277 -0.80927,-0.36953 -0.85698,-0.63459c-0.06719,-0.36953 0.20526,-1.21105 0.9628,-2.26388c1.00212,-1.42886 0.65841,-3.39928 -0.76829,-4.40448c-1.3031,-0.93559 -1.39246,-1.37533 -1.3928,-1.37734c0.00251,-0.02299 0.00793,-0.04556 0.01612,-0.06719c1.26984,-3.80651 1.43412,-6.2387 0.53179,-7.88613c-0.85227,-1.55707 -2.3912,-1.94474 -3.40977,-2.2014c-0.27712,-0.06223 -0.54991,-0.14235 -0.81666,-0.23986c-0.56706,-0.23516 -1.53624,-0.72059 -1.65382,-1.30579c-0.2832,-1.40657 2.7137,-4.44277 4.69674,-6.45134z" fill="url(#color-5)"></path></g></g></svg>