<?xml version="1.0" encoding="utf-8"?>
<!-- Generator: Adobe Illustrator 17.1.0, SVG Export Plug-In . SVG Version: 6.00 Build 0)  -->
<!DOCTYPE svg PUBLIC "-//W3C//DTD SVG 1.1//EN" "http://www.w3.org/Graphics/SVG/1.1/DTD/svg11.dtd">
<svg version="1.1" id="Layer_1" xmlns="http://www.w3.org/2000/svg" xmlns:xlink="http://www.w3.org/1999/xlink" x="0px" y="0px"
	 viewBox="0 0 1500 500" enable-background="new 0 0 1500 500" xml:space="preserve">
<path fill="#1A73E8" d="M750,7.8c133.8,0,242.2,108.4,242.2,242.2S883.8,492.2,750,492.2S507.8,383.8,507.8,250S616.2,7.8,750,7.8z
	 M721.8,148l73.7,70.7H617.2c-13,0-23.4,10.4-23.4,23.4v15.6c0,13,10.4,23.4,23.4,23.4h178.3L721.8,352c-9.5,9.1-9.7,24.2-0.4,33.5
	l10.7,10.6c9.2,9.2,24,9.2,33.1,0l129.6-129.5c9.2-9.2,9.2-24,0-33.1L765.2,103.8c-9.2-9.2-24-9.2-33.1,0l-10.7,10.6
	C712.1,123.8,712.3,139,721.8,148z"/>
</svg>
