<svg version="1.1" xmlns="http://www.w3.org/2000/svg" xmlns:xlink="http://www.w3.org/1999/xlink" viewBox="0 0 172 172"><g fill="none" fill-rule="nonzero" stroke="none" stroke-width="1" stroke-linecap="butt" stroke-linejoin="miter" stroke-miterlimit="10" stroke-dasharray="" stroke-dashoffset="0" font-family="none" font-weight="none" font-size="none" text-anchor="none" style="mix-blend-mode: normal"><path d="M0,172v-172h172v172z" fill="none"></path><g fill="#616161"><path d="M172,86c0,-47.49649 -38.50351,-86 -86,-86c-47.49649,0 -86,38.50351 -86,86c0,47.49649 38.50351,86 86,86c47.47071,-0.06218 85.93782,-38.52929 86,-86zM127.74413,135.43629c5.99042,-14.87662 9.13759,-30.74478 9.27832,-46.78158h29.53563c-0.64367,19.93843 -8.68376,38.92391 -22.55511,53.26061c-5.25879,-2.54323 -10.69217,-4.7084 -16.25884,-6.47903zM27.99757,141.91532c-13.87136,-14.33669 -21.91144,-33.32218 -22.55511,-53.26061h29.53563c0.14073,16.0368 3.28791,31.90496 9.27833,46.78158c-5.56667,1.77063 -11.00005,3.93579 -16.25884,6.47903zM27.99757,30.08468c5.25896,2.54326 10.69252,4.70842 16.25937,6.47903c-5.98281,14.85596 -9.12951,30.70127 -9.27725,46.71601h-29.53562c0.65935,-19.91535 8.69768,-38.87468 22.5535,-53.19503zM144.00243,30.08468c13.85582,14.32035 21.89415,33.27968 22.5535,53.19503h-29.53562c-0.14774,-16.01473 -3.29444,-31.86005 -9.27725,-46.71601c5.56685,-1.77061 11.00041,-3.93577 16.25938,-6.47903zM131.64853,83.27971h-42.96103v-40.35469c11.49921,-0.19384 22.92908,-1.82444 34.02375,-4.85389c5.77629,14.37914 8.80767,29.71315 8.93728,45.20859zM88.6875,37.55029v-32.02425c12.64738,1.30156 23.92198,11.7261 31.75308,27.58665c-10.36616,2.75683 -21.02829,4.2469 -31.75308,4.4376zM83.3125,5.52604v32.02425c-10.72479,-0.1907 -21.38692,-1.68077 -31.75308,-4.4376c7.83111,-15.86055 19.10571,-26.28509 31.75308,-27.58665zM83.3125,42.92502v40.35469h-42.96103c0.12961,-15.49543 3.16099,-30.82944 8.93728,-45.20859c11.09467,3.02945 22.52454,4.66006 34.02375,4.85389zM40.35066,88.65471h42.96184v40.42c-11.49922,0.19392 -22.92909,1.82462 -34.02375,4.85416c-5.78395,-14.39978 -8.81572,-29.75666 -8.93809,-45.27416zM83.3125,134.44971v32.02425c-12.64737,-1.30156 -23.92197,-11.7261 -31.75308,-27.58665c10.36616,-2.75683 21.02829,-4.2469 31.75308,-4.4376zM88.6875,166.47396v-32.02425c10.72479,0.1907 21.38692,1.68077 31.75308,4.4376c-7.83111,15.86055 -19.10571,26.28644 -31.75308,27.58665zM88.6875,129.07498v-40.42h42.96184c-0.1224,15.51741 -3.15417,30.8742 -8.93809,45.27389c-11.09467,-3.02945 -22.52454,-4.66006 -34.02375,-4.85389zM139.87927,26.08246c-4.65726,2.15993 -9.45015,4.01446 -14.34829,5.55184c-4.06959,-8.88682 -10.0165,-16.7863 -17.43139,-23.15469c11.79518,3.37174 22.66469,9.39239 31.77969,17.60286zM46.46903,31.63429c-4.89814,-1.53738 -9.69104,-3.39191 -14.34829,-5.55184c9.11497,-8.21056 19.98448,-14.2313 31.77969,-17.60312c-7.41493,6.36847 -13.36184,14.26804 -17.43139,23.15496zM32.12073,145.91754c4.65726,-2.15993 9.45015,-4.01446 14.34829,-5.55184c4.06959,8.88682 10.0165,16.7863 17.43139,23.15469c-11.79518,-3.37174 -22.66469,-9.39239 -31.77969,-17.60286zM125.53098,140.36571c4.89814,1.53738 9.69104,3.39191 14.34829,5.55184c-9.11497,8.21056 -19.98448,14.2313 -31.77969,17.60313c7.41493,-6.36847 13.36184,-14.26804 17.43139,-23.15496z"></path></g></g></svg>