<?xml version="1.0" encoding="utf-8"?>
<!-- Generator: Adobe Illustrator 17.1.0, SVG Export Plug-In . SVG Version: 6.00 Build 0)  -->
<!DOCTYPE svg PUBLIC "-//W3C//DTD SVG 1.1//EN" "http://www.w3.org/Graphics/SVG/1.1/DTD/svg11.dtd">
<svg version="1.1" id="Capa_1" xmlns="http://www.w3.org/2000/svg" xmlns:xlink="http://www.w3.org/1999/xlink" x="0px" y="0px"
	 viewBox="0 0 1500 500" enable-background="new 0 0 1500 500" xml:space="preserve">
<g>
	<path fill="#E9C46A" d="M998.3,221.4c-3.3-14.1-11.4-26.3-21.5-32.5c-6.8-4.2-14-5.5-20.9-3.8c-1.6,0.4-3.1,0.9-4.6,1.6
		c-19.5-47.4-49.8-78-81.1-97.8l11.3-22.7c2.1-4.1,0.4-9.1-3.7-11.2c-4.1-2-9.1-0.4-11.2,3.7l-10.9,21.7c-5.1-2.7-10.3-5.2-15.3-7.4
		l8.2-24.6c1.5-4.4-0.9-9.1-5.3-10.5c-4.4-1.5-9.1,0.9-10.5,5.3L825,66.9c-5.8-2.1-11.4-3.8-16.8-5.3l7.1-21.4
		c1.5-4.4-0.9-9.1-5.3-10.5c-4.4-1.5-9.1,0.9-10.5,5.3L792,57.5c-10.5-2.2-19.5-3.4-26.2-4.1v-16c0-4.6-3.7-8.3-8.3-8.3
		c-4.6,0-8.3,3.7-8.3,8.3v15.4c-4.4,0.2-12,0.8-21.9,2.4L724,36.1c-0.8-4.5-5.1-7.7-9.6-6.8c-4.5,0.8-7.6,5-6.8,9.6l3.2,19.5
		c-8.9,2-18.8,4.8-29.2,8.5l-7.9-23.7c-1.4-4.4-6.1-6.7-10.5-5.3c-4.4,1.4-6.7,6.2-5.3,10.5l8.2,24.5c-7.2,3.1-14.5,6.8-21.8,11.1
		l-12.6-25.3c-2.1-4.1-7.1-5.8-11.2-3.7c-4.1,2.1-5.8,7.1-3.7,11.2L630,92.9c-7.3,5-14.6,10.7-21.6,17.1l-20-20
		c-3.3-3.3-8.5-3.3-11.8,0c-3.3,3.3-3.3,8.5,0,11.8l19.9,19.9c-25.6,27.3-47,65.3-56.9,118.4c-0.1,0.7-0.2,1.4-0.3,2.1
		c-2.1-0.6-4.3-1-6.5-1c-18.4,0-32.8,19.9-32.8,45.2s14.4,45.2,32.8,45.2c3.4,0,6.6-0.8,9.8-2.2c5.8,22.3,15.5,43.2,28.8,61.5
		c27,37.3,80.2,81.4,181.8,80c1.5,0,3.1,0,4.6,0c98.3,0,150.6-43.3,177.2-80c24-33.1,36.2-74.5,35.2-117.3c0.3,0,0.6,0.1,0.9,0.1
		c1.9,0,3.8-0.2,5.6-0.6C994.7,268.7,1004.1,246.1,998.3,221.4z M538.9,312.4c-1.7,1.4-3.8,2.5-6.1,2.5c-7.6,0-16.2-11.7-16.2-28.5
		c0-16.8,8.5-28.5,16.2-28.5c1.4,0,2.8,0.4,4.2,1.2c-0.4,4.4-0.7,8.8-0.8,13.2c0,0.4,0,0.7,0,1.1c-0.1,3.6-0.1,7.2,0,10.7
		c0,1.2,0.1,2.5,0.1,3.7c0.1,2.8,0.3,5.6,0.6,8.5c0.1,1.3,0.2,2.6,0.3,3.9c0.4,3.6,0.9,7.2,1.5,10.7
		C538.8,311.4,538.9,311.9,538.9,312.4z M921.6,381c-36,49.6-92.8,74.3-168.2,73.1h-0.2c-75.6,1.3-132.2-23.5-168.2-73.1
		c-17.2-23.7-27.7-52.1-31-82.2c-0.1-0.6-0.1-1.3-0.1-1.9c-0.5-4.7-0.7-9.6-0.8-14.4c0-2.1,0-4.2,0-6.3c0-3.4,0.2-6.7,0.4-10.1
		c0.2-2.5,0.3-5,0.6-7.5c0.5-5.2,1.1-10.3,2.1-15.5c9.1-49.4,28.6-84.7,52-110l10.3,10.3c1.6,1.6,3.8,2.4,5.9,2.4
		c2.1,0,4.3-0.8,5.9-2.4c3.3-3.3,3.3-8.5,0-11.8l-10.2-10.2c5.7-5.2,11.5-9.8,17.4-14l4.4,8.9c1.5,2.9,4.4,4.6,7.5,4.6
		c1.3,0,2.5-0.3,3.7-0.9c4.1-2.1,5.8-7.1,3.7-11.2l-5.2-10.5c6.6-3.9,13.2-7.3,19.8-10.2l3.4,10.3c1.2,3.5,4.4,5.7,7.9,5.7
		c0.9,0,1.8-0.1,2.6-0.4c4.4-1.4,6.7-6.2,5.3-10.5L686.6,82c9.6-3.4,18.6-5.8,26.9-7.6l2.4,14.6c0.7,4.1,4.2,7,8.2,7
		c0.5,0,0.9,0,1.4-0.1c4.5-0.8,7.6-5,6.8-9.6l-2.5-14.8c8.5-1.2,15.2-1.7,19.2-1.8v18c0,4.6,3.7,8.3,8.3,8.3c4.6,0,8.3-3.7,8.3-8.3
		V70.1c5.5,0.5,12.7,1.5,21,3.1l-3.9,11.6c-1.5,4.4,0.9,9.1,5.3,10.5c0.9,0.3,1.8,0.4,2.6,0.4c3.5,0,6.7-2.2,7.9-5.7l4.3-13
		c5.4,1.5,11,3.2,16.8,5.3l-3.6,10.8c-1.5,4.4,0.9,9.1,5.3,10.5c0.9,0.3,1.8,0.4,2.6,0.4c3.5,0,6.7-2.2,7.9-5.7l3.3-9.9
		c1.5,0.7,2.9,1.3,4.4,2c3,1.4,5.9,2.9,8.8,4.5l-6.9,13.7c-2.1,4.1-0.4,9.1,3.7,11.2c1.2,0.6,2.5,0.9,3.7,0.9c3.1,0,6-1.7,7.5-4.6
		l6.4-12.7c34.8,22.4,60,54.3,75.3,95.2l0,0l1.5,4.3c2.3,6.4,4.2,12.8,6,19.3c0.1,0.4,0.2,0.8,0.3,1.2c1.7,6.4,3.2,12.8,4.4,19.5
		c0,0,0,0.1,0,0.1c1,5.5,1.7,11,2.2,16.5c0.1,1,0.2,2.1,0.3,3.1C956.6,305.8,945.5,348,921.6,381z M972.9,256.8
		c-1.1,0.3-2.3,0.3-3.6,0c0-0.3-0.1-0.6-0.1-0.9c-0.6-5.2-1.3-10.4-2.2-15.7c0-0.1,0-0.1,0-0.1c0-0.2-0.1-0.4-0.1-0.6
		c-1.2-6.2-2.5-12.2-4-18c-0.2-0.7-0.4-1.3-0.6-2c-1.5-5.8-3.1-11.3-4.9-16.7c0-0.1-0.1-0.2-0.1-0.4c0.8-0.6,1.7-1,2.6-1.2
		c3.1-0.7,6.2,0.6,8.3,1.8c6.3,3.9,11.7,12.4,14,22.2C985.9,241.6,980.4,255,972.9,256.8z"/>
	<path fill="#E9C46A" d="M732.2,252.7c12,25.5,37.8,43.2,67.8,43.2c41.4,0,75-33.6,75-75s-33.6-75-75-75c-30,0-55.8,17.7-67.8,43.2
		c-10.4-15.9-28.4-26.5-48.8-26.5c-32.2,0-58.3,26.2-58.3,58.3s26.2,58.3,58.3,58.3C703.8,279.2,721.7,268.6,732.2,252.7z
		 M800,162.5c32.2,0,58.3,26.2,58.3,58.3s-26.2,58.3-58.3,58.3s-58.3-26.2-58.3-58.3S767.8,162.5,800,162.5z M641.7,220.9
		c0-23,18.7-41.7,41.7-41.7s41.7,18.7,41.7,41.7s-18.7,41.7-41.7,41.7S641.7,243.8,641.7,220.9z"/>
	<circle fill="#E9C46A" cx="683.3" cy="220.9" r="16.7"/>
	<circle fill="#E9C46A" cx="800" cy="220.9" r="25"/>
	<path fill="#E9C46A" d="M916.7,320.9c-4.6,0-8.3,3.7-8.3,8.3c0,3.2-0.6,6.2-1.7,9c-40.1-19.2-85.2-22.6-127.8-9.2
		c-42.6,13.4-77.6,42-99.5,80.8c-2.7-4-4.2-8.7-4.2-13.9c0-4.6-3.7-8.3-8.3-8.3c-4.6,0-8.3,3.7-8.3,8.3c0,23,18.7,41.7,41.7,41.7
		c4.6,0,8.3-3.7,8.3-8.3s-3.7-8.3-8.3-8.3c-2.6,0-5-0.5-7.3-1.2c19.7-35.9,51.9-62.5,91.1-74.8c37-11.6,76.1-9.2,111.3,6.3
		c-3.5,1.9-7.4,3-11.7,3c-4.6,0-8.3,3.7-8.3,8.3c0,4.6,3.7,8.3,8.3,8.3c23,0,41.7-18.7,41.7-41.7C925,324.6,921.3,320.9,916.7,320.9
		z"/>
</g>
</svg>
