<?xml version="1.0" encoding="utf-8"?>
<!-- Generator: Adobe Illustrator 17.1.0, SVG Export Plug-In . SVG Version: 6.00 Build 0)  -->
<!DOCTYPE svg PUBLIC "-//W3C//DTD SVG 1.1//EN" "http://www.w3.org/Graphics/SVG/1.1/DTD/svg11.dtd">
<svg version="1.1" id="Capa_1" xmlns="http://www.w3.org/2000/svg" xmlns:xlink="http://www.w3.org/1999/xlink" x="0px" y="0px"
	 viewBox="0 0 1500 500" enable-background="new 0 0 1500 500" xml:space="preserve">
<g>
	<circle fill="#E9C46A" cx="659.1" cy="164.8" r="39.8"/>
	<circle fill="#E9C46A" cx="840.9" cy="164.8" r="39.8"/>
	<path fill="#E9C46A" d="M750,0C612.1,0,500,112.1,500,250s112.1,250,250,250s250-112.1,250-250S887.9,0,750,0z M750,477.3
		c-125.3,0-227.3-102-227.3-227.3S624.7,22.7,750,22.7s227.3,102,227.3,227.3S875.3,477.3,750,477.3z"/>
	<path fill="#E9C46A" d="M742,344.2c-17.9,17.9-38.7,19.6-53,17.7c-19.8-2.5-39.6-12.8-55.9-29.1c-4.4-4.4-11.6-4.4-16.1,0
		c-4.4,4.4-4.4,11.6,0,16.1c23.9,23.9,53,36.1,80.6,36.1c22.5,0,43.9-8.2,60.5-24.8c30.9-30.9,89.4-30.9,120.3,0
		c4.4,4.4,11.6,4.4,16.1,0c4.4-4.4,4.4-11.6,0-16.1C854.5,304.3,781.9,304.3,742,344.2z"/>
</g>
</svg>
