<?xml version="1.0" encoding="utf-8"?>
<!-- Generator: Adobe Illustrator 17.1.0, SVG Export Plug-In . SVG Version: 6.00 Build 0)  -->
<!DOCTYPE svg PUBLIC "-//W3C//DTD SVG 1.1//EN" "http://www.w3.org/Graphics/SVG/1.1/DTD/svg11.dtd">
<svg version="1.1" id="Layer_1" xmlns="http://www.w3.org/2000/svg" xmlns:xlink="http://www.w3.org/1999/xlink" x="0px" y="0px"
	 viewBox="0 0 500 500" enable-background="new 0 0 500 500" xml:space="preserve">
<text transform="matrix(1 0 0 1 83.0161 252.947)" stroke="#231F20" stroke-width="0.5" stroke-miterlimit="10" font-family="'Roboto-Regular'" font-size="57.5013">android</text>
<g>
	<path fill="#30DC80" d="M330.9,216.8c-20.1,0-36.6,15.4-38.3,35h76.7C367.5,232.1,351,216.8,330.9,216.8z M345.6,237.5
		c0-1.8,1.4-3.2,3.2-3.2c1.8,0,3.2,1.4,3.2,3.2c0,1.8-1.4,3.2-3.2,3.2C347,240.7,345.6,239.3,345.6,237.5z M313.1,240.7
		c-1.8,0-3.2-1.4-3.2-3.2c0-1.8,1.4-3.2,3.2-3.2s3.2,1.4,3.2,3.2C316.3,239.3,314.8,240.7,313.1,240.7z"/>
	<path fill="#30DC80" d="M347,225.1c-0.2,0-0.4-0.1-0.7-0.2c-0.6-0.4-0.8-1.2-0.5-1.8l8.3-14.4c0.4-0.6,1.2-0.8,1.8-0.5
		c0.6,0.4,0.8,1.2,0.5,1.8l-8.3,14.4C347.8,224.9,347.4,225.1,347,225.1z"/>
	<path fill="#30DC80" d="M314.9,225.1c-0.5,0-0.9-0.2-1.1-0.7l-8.3-14.4c-0.4-0.6-0.1-1.4,0.5-1.8c0.6-0.4,1.4-0.1,1.8,0.5l8.3,14.4
		c0.4,0.6,0.1,1.4-0.5,1.8C315.3,225.1,315.1,225.1,314.9,225.1z"/>
</g>
</svg>
