<?xml version="1.0" encoding="utf-8"?>
<!-- Generator: Adobe Illustrator 17.1.0, SVG Export Plug-In . SVG Version: 6.00 Build 0)  -->
<!DOCTYPE svg PUBLIC "-//W3C//DTD SVG 1.1//EN" "http://www.w3.org/Graphics/SVG/1.1/DTD/svg11.dtd">
<svg version="1.1" id="Layer_1" xmlns="http://www.w3.org/2000/svg" xmlns:xlink="http://www.w3.org/1999/xlink" x="0px" y="0px"
	 viewBox="0 0 500 500" enable-background="new 0 0 500 500" xml:space="preserve">
<text transform="matrix(1 0 0 1 83.0161 252.947)" stroke="#231F20" stroke-width="0.5" stroke-miterlimit="10" font-family="'Roboto-Regular'" font-size="48">android</text>
<g>
	<path fill="#30DC80" d="M329.1,222.3c-17.5,0-31.8,13.4-33.3,30.4h66.7C360.9,235.6,346.5,222.3,329.1,222.3z M341.8,240.3
		c0-1.5,1.2-2.8,2.8-2.8s2.8,1.2,2.8,2.8c0,1.5-1.2,2.8-2.8,2.8C343.1,243.1,341.8,241.8,341.8,240.3z M313.6,243.1
		c-1.5,0-2.8-1.2-2.8-2.8c0-1.5,1.2-2.8,2.8-2.8s2.8,1.2,2.8,2.8C316.3,241.8,315.1,243.1,313.6,243.1z"/>
	<path fill="#30DC80" d="M343,229.5c-0.2,0-0.4,0-0.6-0.2c-0.5-0.3-0.7-1-0.4-1.6l7.2-12.5c0.3-0.5,1-0.7,1.6-0.4
		c0.5,0.3,0.7,1,0.4,1.6l-7.2,12.5C343.8,229.3,343.4,229.5,343,229.5z"/>
	<path fill="#30DC80" d="M315.1,229.5c-0.4,0-0.8-0.2-1-0.6l-7.2-12.5c-0.3-0.5-0.1-1.2,0.4-1.6c0.5-0.3,1.2-0.1,1.6,0.4l7.2,12.5
		c0.3,0.5,0.1,1.2-0.4,1.6C315.5,229.5,315.3,229.5,315.1,229.5z"/>
</g>
</svg>
