<svg version="1.1" xmlns="http://www.w3.org/2000/svg" xmlns:xlink="http://www.w3.org/1999/xlink" viewBox="0 0 172 172"><g fill="none" fill-rule="nonzero" stroke="none" stroke-width="1" stroke-linecap="butt" stroke-linejoin="miter" stroke-miterlimit="10" stroke-dasharray="" stroke-dashoffset="0" font-family="none" font-weight="none" font-size="none" text-anchor="none" style="mix-blend-mode: normal"><path d="M0,172v-172h172v172z" fill="none"></path><g fill="#000000"><path d="M172,86c0,-47.49649 -38.50351,-86 -86,-86c-47.49649,0 -86,38.50351 -86,86c0,47.49649 38.50351,86 86,86c47.44623,-0.12112 85.87888,-38.55377 86,-86zM91.375,160.97588v-31.83075c7.45305,0.25259 14.87422,1.09734 22.19337,2.52625c-1.89456,9.35443 -4.86707,18.45772 -8.858,27.12762c-4.36964,1.12982 -8.83328,1.85847 -13.33537,2.17687zM67.28963,158.799c-3.98975,-8.66476 -6.96224,-17.76258 -8.858,-27.1115c7.31872,-1.43433 14.73989,-2.28446 22.19337,-2.54237v31.83075c-4.5021,-0.3184 -8.96574,-1.04705 -13.33537,-2.17687zM11.02413,91.375h32.0995c0.20147,10.80191 1.14431,21.57725 2.82188,32.25c-6.86133,1.91303 -13.52151,4.4853 -19.8875,7.68087c-8.78621,-11.56596 -14.01058,-25.4422 -15.03387,-39.93087zM26.07413,40.69413c6.36082,3.19461 13.01556,5.76687 19.87138,7.68088c-1.67782,10.67272 -2.62066,21.44808 -2.82188,32.25h-32.0995c1.02637,-14.48801 6.25042,-28.36339 15.03387,-39.93087zM80.625,11.02413v31.83075c-7.45305,-0.25259 -14.87422,-1.09734 -22.19337,-2.52625c1.89456,-9.35443 4.86707,-18.45772 8.858,-27.12762c4.36964,-1.12982 8.83328,-1.85847 13.33538,-2.17688zM104.71038,13.17413c3.99172,8.67333 6.96424,17.78027 8.858,27.13838c-7.31872,1.43433 -14.73989,2.28446 -22.19338,2.54237v-31.83075c4.5021,0.3184 8.96574,1.04705 13.33538,2.17687zM160.97588,80.625h-32.0995c-0.20122,-10.80192 -1.14406,-21.57728 -2.82187,-32.25c6.86133,-1.91303 13.52151,-4.4853 19.8875,-7.68087c8.78621,11.56596 14.01058,25.4422 15.03387,39.93088zM80.625,80.625h-26.75138c0.20524,-9.95966 1.07072,-19.89475 2.59075,-29.73988c7.96865,1.5409 16.04814,2.43962 24.16063,2.6875zM80.625,91.375v27.0255c-8.11321,0.25674 -16.1927,1.16445 -24.16063,2.71437c-1.52003,-9.84513 -2.38551,-19.78021 -2.59075,-29.73987zM91.375,91.375h26.75137c-0.20524,9.95966 -1.07072,19.89475 -2.59075,29.73988c-7.97676,-1.55135 -16.0653,-2.45907 -24.1875,-2.71438zM91.375,80.625v-27.0255c8.12148,-0.24644 16.21001,-1.14517 24.1875,-2.6875c1.50985,9.83685 2.36635,19.76292 2.56387,29.713zM124.055,37.797c-1.4244,-6.64847 -3.29923,-13.1924 -5.6115,-19.5865c7.47586,3.57112 14.31145,8.35094 20.2315,14.147c-4.72624,2.18634 -9.61407,4.0049 -14.62,5.4395zM47.945,37.797c-5.00593,-1.4346 -9.89376,-3.25316 -14.62,-5.4395c5.92005,-5.79606 12.75564,-10.57588 20.2315,-14.147c-2.31227,6.3941 -4.1871,12.93803 -5.6115,19.5865zM47.945,134.19762c1.42443,6.65023 3.29925,13.19594 5.6115,19.59188c-7.47586,-3.57112 -14.31145,-8.35094 -20.2315,-14.147c4.72706,-2.18582 9.61471,-4.00611 14.62,-5.44488zM124.055,134.19762c5.00529,1.43876 9.89294,3.25905 14.62,5.44488c-5.92168,5.79654 -12.75912,10.57639 -20.23688,14.147c2.31407,-6.3958 4.19069,-12.94152 5.61687,-19.59188zM126.0545,123.625c1.67756,-10.67275 2.62041,-21.44809 2.82187,-32.25h32.0995c-1.02799,14.49037 -6.25802,28.36676 -15.05,39.93088c-6.36082,-3.19461 -13.01556,-5.76687 -19.87138,-7.68088z"></path></g></g></svg>